%TF.GenerationSoftware,KiCad,Pcbnew,10.0.0*%
%TF.CreationDate,2026-05-28T20:35:39+08:00*%
%TF.ProjectId,walk_talk_mint,77616c6b-5f74-4616-9c6b-5f6d696e742e,rev?*%
%TF.SameCoordinates,Original*%
%TF.FileFunction,Copper,L1,Top*%
%TF.FilePolarity,Positive*%
%FSLAX46Y46*%
G04 Gerber Fmt 4.6, Leading zero omitted, Abs format (unit mm)*
G04 Created by KiCad (PCBNEW 10.0.0) date 2026-05-28 20:35:39*
%MOMM*%
%LPD*%
G01*
G04 APERTURE LIST*
G04 Aperture macros list*
%AMRoundRect*
0 Rectangle with rounded corners*
0 $1 Rounding radius*
0 $2 $3 $4 $5 $6 $7 $8 $9 X,Y pos of 4 corners*
0 Add a 4 corners polygon primitive as box body*
4,1,4,$2,$3,$4,$5,$6,$7,$8,$9,$2,$3,0*
0 Add four circle primitives for the rounded corners*
1,1,$1+$1,$2,$3*
1,1,$1+$1,$4,$5*
1,1,$1+$1,$6,$7*
1,1,$1+$1,$8,$9*
0 Add four rect primitives between the rounded corners*
20,1,$1+$1,$2,$3,$4,$5,0*
20,1,$1+$1,$4,$5,$6,$7,0*
20,1,$1+$1,$6,$7,$8,$9,0*
20,1,$1+$1,$8,$9,$2,$3,0*%
%AMFreePoly0*
4,1,9,3.862500,-0.866500,0.737500,-0.866500,0.737500,-0.450000,-0.737500,-0.450000,-0.737500,0.450000,0.737500,0.450000,0.737500,0.866500,3.862500,0.866500,3.862500,-0.866500,3.862500,-0.866500,$1*%
G04 Aperture macros list end*
%TA.AperFunction,ComponentPad*%
%ADD10RoundRect,0.250000X-0.550000X-0.550000X0.550000X-0.550000X0.550000X0.550000X-0.550000X0.550000X0*%
%TD*%
%TA.AperFunction,ComponentPad*%
%ADD11C,1.600000*%
%TD*%
%TA.AperFunction,ComponentPad*%
%ADD12R,1.700000X1.700000*%
%TD*%
%TA.AperFunction,ComponentPad*%
%ADD13C,1.700000*%
%TD*%
%TA.AperFunction,ComponentPad*%
%ADD14C,1.400000*%
%TD*%
%TA.AperFunction,SMDPad,CuDef*%
%ADD15RoundRect,0.225000X-0.425000X-0.225000X0.425000X-0.225000X0.425000X0.225000X-0.425000X0.225000X0*%
%TD*%
%TA.AperFunction,SMDPad,CuDef*%
%ADD16FreePoly0,0.000000*%
%TD*%
%TA.AperFunction,ComponentPad*%
%ADD17R,2.800000X2.800000*%
%TD*%
%TA.AperFunction,ComponentPad*%
%ADD18C,2.000000*%
%TD*%
%TA.AperFunction,ComponentPad*%
%ADD19C,1.524000*%
%TD*%
%TA.AperFunction,Conductor*%
%ADD20C,0.200000*%
%TD*%
%TA.AperFunction,Conductor*%
%ADD21C,0.500000*%
%TD*%
G04 APERTURE END LIST*
D10*
%TO.P,U2,1,~{RESET}/PC6_1*%
%TO.N,/RST*%
X115880000Y-76930000D03*
D11*
%TO.P,U2,2,PD0_2*%
%TO.N,Net-(U2-PD0)*%
X115880000Y-79470000D03*
%TO.P,U2,3,PD1_3*%
%TO.N,Net-(U2-PD1)*%
X115880000Y-82010000D03*
%TO.P,U2,4,PD2_4*%
%TO.N,unconnected-(U2-PD2-Pad4)*%
X115880000Y-84550000D03*
%TO.P,U2,5,PD3_5*%
%TO.N,unconnected-(U2-PD3-Pad5)*%
X115880000Y-87090000D03*
%TO.P,U2,6,PD4_6*%
%TO.N,unconnected-(U2-PD4-Pad6)*%
X115880000Y-89630000D03*
%TO.P,U2,7,VCC_7*%
%TO.N,+3V3*%
X115880000Y-92170000D03*
%TO.P,U2,8,GND_8*%
%TO.N,GND*%
X115880000Y-94710000D03*
%TO.P,U2,9,XTAL1/PB6_9*%
%TO.N,Net-(U2-XTAL1{slash}PB6)*%
X115880000Y-97250000D03*
%TO.P,U2,10,XTAL2/PB7_10*%
%TO.N,Net-(U2-XTAL2{slash}PB7)*%
X115880000Y-99790000D03*
%TO.P,U2,11,PD5_11*%
%TO.N,unconnected-(U2-PD5-Pad11)*%
X115880000Y-102330000D03*
%TO.P,U2,12,PD6_12*%
%TO.N,unconnected-(U2-PD6-Pad12)*%
X115880000Y-104870000D03*
%TO.P,U2,13,PD7_13*%
%TO.N,unconnected-(U2-PD7-Pad13)*%
X115880000Y-107410000D03*
%TO.P,U2,14,PB0_14*%
%TO.N,unconnected-(U2-PB0-Pad14)*%
X115880000Y-109950000D03*
%TO.P,U2,15,PB1_15*%
%TO.N,unconnected-(U2-PB1-Pad15)*%
X123500000Y-109950000D03*
%TO.P,U2,16,PB2_16*%
%TO.N,unconnected-(U2-PB2-Pad16)*%
X123500000Y-107410000D03*
%TO.P,U2,17,PB3_17*%
%TO.N,/MOSI*%
X123500000Y-104870000D03*
%TO.P,U2,18,PB4_18*%
%TO.N,/MISO*%
X123500000Y-102330000D03*
%TO.P,U2,19,PB5_19*%
%TO.N,/SCK*%
X123500000Y-99790000D03*
%TO.P,U2,20,AVCC_20*%
%TO.N,+3V3*%
X123500000Y-97250000D03*
%TO.P,U2,21,AREF_21*%
%TO.N,unconnected-(U2-AREF-Pad21)*%
X123500000Y-94710000D03*
%TO.P,U2,22,GND_22*%
%TO.N,GND*%
X123500000Y-92170000D03*
%TO.P,U2,23,PC0_23*%
%TO.N,/A0*%
X123500000Y-89630000D03*
%TO.P,U2,24,PC1_24*%
%TO.N,/CE*%
X123500000Y-87090000D03*
%TO.P,U2,25,PC2_25*%
%TO.N,/CSN*%
X123500000Y-84550000D03*
%TO.P,U2,26,PC3_26*%
%TO.N,/OUT*%
X123500000Y-82010000D03*
%TO.P,U2,27,PC4_27*%
%TO.N,unconnected-(U2-PC4-Pad27)*%
X123500000Y-79470000D03*
%TO.P,U2,28,PC5_28*%
%TO.N,unconnected-(U2-PC5-Pad28)*%
X123500000Y-76930000D03*
%TD*%
D12*
%TO.P,J1,1,Pin_1_1*%
%TO.N,/MOSI*%
X112250000Y-91040000D03*
D13*
%TO.P,J1,2,Pin_2_2*%
%TO.N,/MISO*%
X112250000Y-88500000D03*
%TO.P,J1,3,Pin_3_3*%
%TO.N,/SCK*%
X112250000Y-85960000D03*
%TO.P,J1,4,Pin_4_4*%
%TO.N,/CE*%
X112250000Y-83420000D03*
%TO.P,J1,5,Pin_5_5*%
%TO.N,/CSN*%
X112250000Y-80880000D03*
%TO.P,J1,6,Pin_6_6*%
%TO.N,/RST*%
X112250000Y-78340000D03*
%TD*%
D12*
%TO.P,D1,1,K_1*%
%TO.N,GND*%
X133096000Y-116591000D03*
D13*
%TO.P,D1,2,A_2*%
%TO.N,Net-(D1-A)*%
X133096000Y-114051000D03*
%TD*%
D12*
%TO.P,U1,1,GND_1*%
%TO.N,GND*%
X123952000Y-114300000D03*
D13*
%TO.P,U1,2,VCC_2*%
%TO.N,+3V3*%
X123952000Y-116840000D03*
%TO.P,U1,3,CE_3*%
%TO.N,/CE*%
X121412000Y-114300000D03*
%TO.P,U1,4,~{CSN}_4*%
%TO.N,/CSN*%
X121412000Y-116840000D03*
%TO.P,U1,5,SCK_5*%
%TO.N,/SCK*%
X118872000Y-114300000D03*
%TO.P,U1,6,MOSI_6*%
%TO.N,/MOSI*%
X118872000Y-116840000D03*
%TO.P,U1,7,MISO_7*%
%TO.N,/MISO*%
X116332000Y-114300000D03*
%TO.P,U1,8,IRQ_8*%
%TO.N,unconnected-(U1-IRQ-Pad8)*%
X116332000Y-116840000D03*
%TD*%
D14*
%TO.P,R1,1*%
%TO.N,Net-(U2-PD0)*%
X136652000Y-114096000D03*
%TO.P,R1,2*%
%TO.N,Net-(D1-A)*%
X136652000Y-116636000D03*
%TD*%
D11*
%TO.P,C1,1*%
%TO.N,Net-(U2-XTAL2{slash}PB7)*%
X112250000Y-93992000D03*
%TO.P,C1,2*%
%TO.N,GND*%
X112250000Y-101492000D03*
%TD*%
D12*
%TO.P,Y1,1,1_1*%
%TO.N,Net-(U2-XTAL2{slash}PB7)*%
X127635000Y-99060000D03*
D13*
%TO.P,Y1,2,2_2*%
%TO.N,Net-(U2-XTAL1{slash}PB6)*%
X127635000Y-96520000D03*
%TD*%
D15*
%TO.P,U4,1,GND_1*%
%TO.N,GND*%
X127300000Y-89250000D03*
D16*
%TO.P,U4,2,VI_2*%
%TO.N,/V_BAT*%
X127387500Y-90750000D03*
D15*
%TO.P,U4,3,VO_3*%
%TO.N,+3V3*%
X127300000Y-92250000D03*
%TD*%
D11*
%TO.P,C2,1*%
%TO.N,GND*%
X112268000Y-103632000D03*
%TO.P,C2,2*%
%TO.N,Net-(U2-XTAL1{slash}PB6)*%
X112268000Y-111132000D03*
%TD*%
D12*
%TO.P,MAX9814,1,AR_1*%
%TO.N,unconnected-(MAX9814-AR-Pad1)*%
X137160000Y-76708000D03*
D13*
%TO.P,MAX9814,2,OUT_2*%
%TO.N,/A0*%
X134620000Y-76708000D03*
%TO.P,MAX9814,3,Gain_3*%
%TO.N,unconnected-(MAX9814-Gain-Pad3)*%
X132080000Y-76708000D03*
%TO.P,MAX9814,4,VDD_4*%
%TO.N,+3V3*%
X129540000Y-76708000D03*
%TO.P,MAX9814,5,GND_5*%
%TO.N,GND*%
X127000000Y-76708000D03*
%TD*%
D17*
%TO.P,U5,1,5v_1*%
%TO.N,unconnected-(U5-5v-Pad1)*%
X142565000Y-128905000D03*
%TO.P,U5,2,GND_2*%
%TO.N,unconnected-(U5-GND-Pad2)*%
X128365000Y-128905000D03*
%TO.P,U5,3,Out+_3*%
%TO.N,/V_BAT*%
X142565000Y-106005000D03*
%TO.P,U5,4,Out-_4*%
%TO.N,GND*%
X128065000Y-106005000D03*
%TO.P,U5,5,B+_5*%
%TO.N,unconnected-(U5-B+-Pad5)*%
X139065000Y-106005000D03*
%TO.P,U5,6,B-_6*%
%TO.N,unconnected-(U5-B--Pad6)*%
X131465000Y-106005000D03*
%TD*%
D18*
%TO.P,SW1,1,1_1*%
%TO.N,Net-(U2-PD1)*%
X135500000Y-99500000D03*
X142000000Y-99500000D03*
%TO.P,SW1,2,2_2*%
%TO.N,GND*%
X135500000Y-95000000D03*
X142000000Y-95000000D03*
%TD*%
D19*
%TO.P,U3,1,L_1*%
%TO.N,/OUT*%
X139340000Y-76630000D03*
%TO.P,U3,2,T_2*%
%TO.N,GND*%
X139340000Y-79170000D03*
%TO.P,U3,3,R_3*%
%TO.N,unconnected-(U3-R-Pad3)*%
X139340000Y-81710000D03*
%TO.P,U3,4,vin_4*%
%TO.N,/V_BAT*%
X139340000Y-89500000D03*
%TO.P,U3,5,gnd_5*%
%TO.N,GND*%
X139340000Y-92040000D03*
%TO.P,U3,6,R-_6*%
%TO.N,unconnected-(U3-R--Pad6)*%
X121290000Y-92010000D03*
%TO.P,U3,7,R+_7*%
%TO.N,unconnected-(U3-R+-Pad7)*%
X121290000Y-89470000D03*
%TO.P,U3,8,L+_8*%
%TO.N,Net-(U3-L+)*%
X121290000Y-79510000D03*
%TO.P,U3,9,L-_9*%
%TO.N,Net-(U3-L-)*%
X121290000Y-76970000D03*
%TD*%
%TO.N,/RST*%
D20*
X113660000Y-76930000D02*
X115880000Y-76930000D01*
X112250000Y-78340000D02*
X113660000Y-76930000D01*
%TO.N,+3V3*%
D21*
X144415000Y-109220000D02*
X144415000Y-77740000D01*
X134800610Y-92250000D02*
X137795000Y-95244390D01*
X136525000Y-111125000D02*
X142510000Y-111125000D01*
X127300000Y-92250000D02*
X134800610Y-92250000D01*
X131064000Y-75184000D02*
X129557908Y-76690092D01*
X127300000Y-93450000D02*
X123500000Y-97250000D01*
X137795000Y-97790000D02*
X137160000Y-98425000D01*
X144415000Y-77740000D02*
X143775000Y-77100000D01*
X140959000Y-75184000D02*
X131064000Y-75184000D01*
X136525000Y-111125000D02*
X132715000Y-111125000D01*
X137160000Y-98425000D02*
X137160000Y-105410000D01*
X135255000Y-109855000D02*
X136525000Y-111125000D01*
X127300000Y-92250000D02*
X127300000Y-93450000D01*
X137795000Y-95244390D02*
X137795000Y-97790000D01*
X143775000Y-77100000D02*
X142875000Y-77100000D01*
X132715000Y-111125000D02*
X127000000Y-116840000D01*
D20*
X129148000Y-77100000D02*
X129190000Y-77100000D01*
D21*
X137160000Y-105410000D02*
X135255000Y-107315000D01*
X142510000Y-111125000D02*
X144415000Y-109220000D01*
X142875000Y-77100000D02*
X140959000Y-75184000D01*
X135255000Y-107315000D02*
X135255000Y-109855000D01*
X127000000Y-116840000D02*
X123952000Y-116840000D01*
%TO.N,GND*%
D20*
X116040000Y-94710000D02*
X116250000Y-94500000D01*
X115880000Y-94710000D02*
X116040000Y-94710000D01*
%TO.N,Net-(U2-XTAL2{slash}PB7)*%
X112250000Y-94500000D02*
X112250000Y-96160000D01*
X112250000Y-96160000D02*
X115880000Y-99790000D01*
%TO.N,/MOSI*%
X114780000Y-94495000D02*
X114780000Y-95165635D01*
X112250000Y-91965000D02*
X114780000Y-94495000D01*
X115424365Y-95810000D02*
X116095000Y-95810000D01*
X112250000Y-91040000D02*
X112250000Y-91965000D01*
X120650000Y-100365000D02*
X120650000Y-102020000D01*
X114780000Y-95165635D02*
X115424365Y-95810000D01*
X120650000Y-102020000D02*
X123500000Y-104870000D01*
X116095000Y-95810000D02*
X120650000Y-100365000D01*
%TO.N,/MISO*%
X116335635Y-93610000D02*
X122400000Y-99674365D01*
X112250000Y-88500000D02*
X114300000Y-90550000D01*
X115764365Y-93610000D02*
X116335635Y-93610000D01*
X114300000Y-92145635D02*
X115764365Y-93610000D01*
X122400000Y-101230000D02*
X123500000Y-102330000D01*
X114300000Y-90550000D02*
X114300000Y-92145635D01*
X122400000Y-99674365D02*
X122400000Y-101230000D01*
%TO.N,/SCK*%
X116980000Y-89174365D02*
X116980000Y-93270000D01*
X112250000Y-85960000D02*
X114820000Y-88530000D01*
X114820000Y-88530000D02*
X116335635Y-88530000D01*
X116980000Y-93270000D02*
X123500000Y-99790000D01*
X116335635Y-88530000D02*
X116980000Y-89174365D01*
%TO.N,/A0*%
X124600000Y-88530000D02*
X123500000Y-89630000D01*
X125476000Y-85852000D02*
X125476000Y-85992000D01*
X125476000Y-85852000D02*
X134620000Y-76708000D01*
X124600000Y-86868000D02*
X124600000Y-88530000D01*
X125476000Y-85992000D02*
X124600000Y-86868000D01*
%TO.N,/CE*%
X116420000Y-83420000D02*
X120090000Y-87090000D01*
X112250000Y-83420000D02*
X116420000Y-83420000D01*
X120090000Y-87090000D02*
X123500000Y-87090000D01*
%TO.N,/CSN*%
X120050000Y-84550000D02*
X123500000Y-84550000D01*
X120262000Y-115690000D02*
X120262000Y-107696365D01*
X114780000Y-99255686D02*
X110600000Y-95075686D01*
X120262000Y-107696365D02*
X116335635Y-103770000D01*
X114780000Y-103125635D02*
X114780000Y-99255686D01*
X110600000Y-82530000D02*
X112250000Y-80880000D01*
X110600000Y-95075686D02*
X110600000Y-82530000D01*
X112250000Y-80880000D02*
X116380000Y-80880000D01*
X116335635Y-103770000D02*
X115424365Y-103770000D01*
X116380000Y-80880000D02*
X120050000Y-84550000D01*
X121412000Y-116840000D02*
X120262000Y-115690000D01*
X115424365Y-103770000D02*
X114780000Y-103125635D01*
%TO.N,/V_BAT*%
D21*
X127387500Y-90750000D02*
X133407000Y-90750000D01*
X134817000Y-90750000D02*
X127387500Y-90750000D01*
X139530000Y-95080000D02*
X139530000Y-99525000D01*
X142875000Y-102870000D02*
X142875000Y-104965000D01*
X136067000Y-89500000D02*
X134817000Y-90750000D01*
X136067000Y-89500000D02*
X139340000Y-89500000D01*
X134112000Y-91455000D02*
X135905000Y-91455000D01*
X139530000Y-99525000D02*
X142875000Y-102870000D01*
X135905000Y-91455000D02*
X139530000Y-95080000D01*
X133407000Y-90750000D02*
X134112000Y-91455000D01*
%TD*%
%TA.AperFunction,Conductor*%
%TO.N,GND*%
G36*
X110705703Y-96031070D02*
G01*
X110712181Y-96037102D01*
X114143181Y-99468102D01*
X114176666Y-99529425D01*
X114179500Y-99555783D01*
X114179500Y-103038965D01*
X114179499Y-103038983D01*
X114179499Y-103204689D01*
X114179498Y-103204689D01*
X114220424Y-103357424D01*
X114220425Y-103357425D01*
X114245747Y-103401283D01*
X114245748Y-103401285D01*
X114299475Y-103494344D01*
X114299481Y-103494352D01*
X114418349Y-103613220D01*
X114418355Y-103613225D01*
X114787846Y-103982717D01*
X114821331Y-104044040D01*
X114816347Y-104113732D01*
X114800485Y-104143280D01*
X114767716Y-104188384D01*
X114767712Y-104188391D01*
X114674781Y-104370776D01*
X114611522Y-104565465D01*
X114579500Y-104767648D01*
X114579500Y-104972351D01*
X114611522Y-105174534D01*
X114674781Y-105369223D01*
X114767715Y-105551613D01*
X114888028Y-105717213D01*
X115032786Y-105861971D01*
X115187749Y-105974556D01*
X115198390Y-105982287D01*
X115289840Y-106028883D01*
X115291080Y-106029515D01*
X115341876Y-106077490D01*
X115358671Y-106145311D01*
X115336134Y-106211446D01*
X115291080Y-106250485D01*
X115198386Y-106297715D01*
X115032786Y-106418028D01*
X114888028Y-106562786D01*
X114767715Y-106728386D01*
X114674781Y-106910776D01*
X114611522Y-107105465D01*
X114579500Y-107307648D01*
X114579500Y-107512351D01*
X114611522Y-107714534D01*
X114674781Y-107909223D01*
X114767715Y-108091613D01*
X114888028Y-108257213D01*
X115032786Y-108401971D01*
X115187749Y-108514556D01*
X115198390Y-108522287D01*
X115289840Y-108568883D01*
X115291080Y-108569515D01*
X115341876Y-108617490D01*
X115358671Y-108685311D01*
X115336134Y-108751446D01*
X115291080Y-108790485D01*
X115198386Y-108837715D01*
X115032786Y-108958028D01*
X114888028Y-109102786D01*
X114767715Y-109268386D01*
X114674781Y-109450776D01*
X114611522Y-109645465D01*
X114579500Y-109847648D01*
X114579500Y-110052351D01*
X114611522Y-110254534D01*
X114674781Y-110449223D01*
X114767715Y-110631613D01*
X114888028Y-110797213D01*
X115032786Y-110941971D01*
X115187749Y-111054556D01*
X115198390Y-111062287D01*
X115314607Y-111121503D01*
X115380776Y-111155218D01*
X115380778Y-111155218D01*
X115380781Y-111155220D01*
X115485137Y-111189127D01*
X115575465Y-111218477D01*
X115675689Y-111234351D01*
X115777648Y-111250500D01*
X115777649Y-111250500D01*
X115982351Y-111250500D01*
X115982352Y-111250500D01*
X116184534Y-111218477D01*
X116379219Y-111155220D01*
X116561610Y-111062287D01*
X116654590Y-110994732D01*
X116727213Y-110941971D01*
X116727215Y-110941968D01*
X116727219Y-110941966D01*
X116871966Y-110797219D01*
X116871968Y-110797215D01*
X116871971Y-110797213D01*
X116924732Y-110724590D01*
X116992287Y-110631610D01*
X117085220Y-110449219D01*
X117148477Y-110254534D01*
X117180500Y-110052352D01*
X117180500Y-109847648D01*
X117148477Y-109645466D01*
X117085220Y-109450781D01*
X117085218Y-109450778D01*
X117085218Y-109450776D01*
X117051503Y-109384607D01*
X116992287Y-109268390D01*
X116984556Y-109257749D01*
X116871971Y-109102786D01*
X116727213Y-108958028D01*
X116561614Y-108837715D01*
X116555006Y-108834348D01*
X116468917Y-108790483D01*
X116418123Y-108742511D01*
X116401328Y-108674690D01*
X116423865Y-108608555D01*
X116468917Y-108569516D01*
X116561610Y-108522287D01*
X116582770Y-108506913D01*
X116727213Y-108401971D01*
X116727215Y-108401968D01*
X116727219Y-108401966D01*
X116871966Y-108257219D01*
X116871968Y-108257215D01*
X116871971Y-108257213D01*
X116924732Y-108184590D01*
X116992287Y-108091610D01*
X117085220Y-107909219D01*
X117148477Y-107714534D01*
X117180500Y-107512352D01*
X117180500Y-107307648D01*
X117148477Y-107105466D01*
X117145429Y-107096086D01*
X117085218Y-106910776D01*
X117047413Y-106836580D01*
X116992287Y-106728390D01*
X116962481Y-106687365D01*
X116871971Y-106562786D01*
X116727213Y-106418028D01*
X116561614Y-106297715D01*
X116555006Y-106294348D01*
X116468917Y-106250483D01*
X116418123Y-106202511D01*
X116401328Y-106134690D01*
X116423865Y-106068555D01*
X116468917Y-106029516D01*
X116561610Y-105982287D01*
X116634731Y-105929162D01*
X116727213Y-105861971D01*
X116727215Y-105861968D01*
X116727219Y-105861966D01*
X116871966Y-105717219D01*
X116871968Y-105717215D01*
X116871971Y-105717213D01*
X116992286Y-105551611D01*
X117007871Y-105521025D01*
X117055845Y-105470228D01*
X117123666Y-105453433D01*
X117189801Y-105475970D01*
X117206037Y-105489638D01*
X119625181Y-107908781D01*
X119658666Y-107970104D01*
X119661500Y-107996462D01*
X119661500Y-112984219D01*
X119641815Y-113051258D01*
X119589011Y-113097013D01*
X119519853Y-113106957D01*
X119481205Y-113094704D01*
X119390414Y-113048444D01*
X119390413Y-113048443D01*
X119390412Y-113048443D01*
X119188243Y-112982754D01*
X119188241Y-112982753D01*
X119188240Y-112982753D01*
X119026957Y-112957208D01*
X118978287Y-112949500D01*
X118765713Y-112949500D01*
X118717042Y-112957208D01*
X118555760Y-112982753D01*
X118353585Y-113048444D01*
X118164179Y-113144951D01*
X117992213Y-113269890D01*
X117841890Y-113420213D01*
X117716949Y-113592182D01*
X117712484Y-113600946D01*
X117664509Y-113651742D01*
X117596688Y-113668536D01*
X117530553Y-113645998D01*
X117491516Y-113600946D01*
X117487050Y-113592182D01*
X117362109Y-113420213D01*
X117211786Y-113269890D01*
X117039820Y-113144951D01*
X116850414Y-113048444D01*
X116850413Y-113048443D01*
X116850412Y-113048443D01*
X116648243Y-112982754D01*
X116648241Y-112982753D01*
X116648240Y-112982753D01*
X116486957Y-112957208D01*
X116438287Y-112949500D01*
X116225713Y-112949500D01*
X116177042Y-112957208D01*
X116015760Y-112982753D01*
X115813585Y-113048444D01*
X115624179Y-113144951D01*
X115452213Y-113269890D01*
X115301890Y-113420213D01*
X115176951Y-113592179D01*
X115080444Y-113781585D01*
X115014753Y-113983760D01*
X114981500Y-114193713D01*
X114981500Y-114406286D01*
X115007336Y-114569412D01*
X115014754Y-114616243D01*
X115061080Y-114758820D01*
X115080444Y-114818414D01*
X115176951Y-115007820D01*
X115301890Y-115179786D01*
X115452213Y-115330109D01*
X115624182Y-115455050D01*
X115632946Y-115459516D01*
X115683742Y-115507491D01*
X115700536Y-115575312D01*
X115677998Y-115641447D01*
X115632946Y-115680484D01*
X115624182Y-115684949D01*
X115452213Y-115809890D01*
X115301890Y-115960213D01*
X115176951Y-116132179D01*
X115080444Y-116321585D01*
X115014753Y-116523760D01*
X114981500Y-116733713D01*
X114981500Y-116946286D01*
X115014753Y-117156239D01*
X115080444Y-117358414D01*
X115176951Y-117547820D01*
X115301890Y-117719786D01*
X115452213Y-117870109D01*
X115624179Y-117995048D01*
X115624181Y-117995049D01*
X115624184Y-117995051D01*
X115813588Y-118091557D01*
X116015757Y-118157246D01*
X116225713Y-118190500D01*
X116225714Y-118190500D01*
X116438286Y-118190500D01*
X116438287Y-118190500D01*
X116648243Y-118157246D01*
X116850412Y-118091557D01*
X117039816Y-117995051D01*
X117061789Y-117979086D01*
X117211786Y-117870109D01*
X117211788Y-117870106D01*
X117211792Y-117870104D01*
X117362104Y-117719792D01*
X117362106Y-117719788D01*
X117362109Y-117719786D01*
X117484236Y-117551690D01*
X117487051Y-117547816D01*
X117491514Y-117539054D01*
X117539488Y-117488259D01*
X117607308Y-117471463D01*
X117673444Y-117493999D01*
X117712486Y-117539056D01*
X117716951Y-117547820D01*
X117841890Y-117719786D01*
X117992213Y-117870109D01*
X118164179Y-117995048D01*
X118164181Y-117995049D01*
X118164184Y-117995051D01*
X118353588Y-118091557D01*
X118555757Y-118157246D01*
X118765713Y-118190500D01*
X118765714Y-118190500D01*
X118978286Y-118190500D01*
X118978287Y-118190500D01*
X119188243Y-118157246D01*
X119390412Y-118091557D01*
X119579816Y-117995051D01*
X119601789Y-117979086D01*
X119751786Y-117870109D01*
X119751788Y-117870106D01*
X119751792Y-117870104D01*
X119902104Y-117719792D01*
X119902106Y-117719788D01*
X119902109Y-117719786D01*
X120024236Y-117551690D01*
X120027051Y-117547816D01*
X120031514Y-117539054D01*
X120079488Y-117488259D01*
X120147308Y-117471463D01*
X120213444Y-117493999D01*
X120252486Y-117539056D01*
X120256951Y-117547820D01*
X120381890Y-117719786D01*
X120532213Y-117870109D01*
X120704179Y-117995048D01*
X120704181Y-117995049D01*
X120704184Y-117995051D01*
X120893588Y-118091557D01*
X121095757Y-118157246D01*
X121305713Y-118190500D01*
X121305714Y-118190500D01*
X121518286Y-118190500D01*
X121518287Y-118190500D01*
X121728243Y-118157246D01*
X121930412Y-118091557D01*
X122119816Y-117995051D01*
X122141789Y-117979086D01*
X122291786Y-117870109D01*
X122291788Y-117870106D01*
X122291792Y-117870104D01*
X122442104Y-117719792D01*
X122442106Y-117719788D01*
X122442109Y-117719786D01*
X122564236Y-117551690D01*
X122567051Y-117547816D01*
X122571514Y-117539054D01*
X122619488Y-117488259D01*
X122687308Y-117471463D01*
X122753444Y-117493999D01*
X122792486Y-117539056D01*
X122796951Y-117547820D01*
X122921890Y-117719786D01*
X123072213Y-117870109D01*
X123244179Y-117995048D01*
X123244181Y-117995049D01*
X123244184Y-117995051D01*
X123433588Y-118091557D01*
X123635757Y-118157246D01*
X123845713Y-118190500D01*
X123845714Y-118190500D01*
X124058286Y-118190500D01*
X124058287Y-118190500D01*
X124268243Y-118157246D01*
X124470412Y-118091557D01*
X124659816Y-117995051D01*
X124681789Y-117979086D01*
X124831786Y-117870109D01*
X124831788Y-117870106D01*
X124831792Y-117870104D01*
X124982104Y-117719792D01*
X125008767Y-117683093D01*
X125038903Y-117641615D01*
X125094233Y-117598949D01*
X125139221Y-117590500D01*
X127073920Y-117590500D01*
X127171462Y-117571096D01*
X127218913Y-117561658D01*
X127355495Y-117505084D01*
X127404729Y-117472186D01*
X127405812Y-117471463D01*
X127429071Y-117455921D01*
X127478416Y-117422952D01*
X131843813Y-113057553D01*
X131905134Y-113024070D01*
X131974826Y-113029054D01*
X132030759Y-113070926D01*
X132055176Y-113136390D01*
X132040324Y-113204663D01*
X132031811Y-113218120D01*
X131940950Y-113343181D01*
X131844444Y-113532585D01*
X131778753Y-113734760D01*
X131745500Y-113944713D01*
X131745500Y-114157287D01*
X131750758Y-114190486D01*
X131778529Y-114365826D01*
X131778754Y-114367243D01*
X131840355Y-114556832D01*
X131844444Y-114569414D01*
X131940951Y-114758820D01*
X132065890Y-114930786D01*
X132179818Y-115044714D01*
X132213303Y-115106037D01*
X132208319Y-115175729D01*
X132166447Y-115231662D01*
X132135471Y-115248577D01*
X132003912Y-115297646D01*
X132003906Y-115297649D01*
X131888812Y-115383809D01*
X131888809Y-115383812D01*
X131802649Y-115498906D01*
X131802645Y-115498913D01*
X131752403Y-115633620D01*
X131752401Y-115633627D01*
X131746000Y-115693155D01*
X131746000Y-116341000D01*
X132662988Y-116341000D01*
X132630075Y-116398007D01*
X132596000Y-116525174D01*
X132596000Y-116656826D01*
X132630075Y-116783993D01*
X132662988Y-116841000D01*
X131746000Y-116841000D01*
X131746000Y-117488844D01*
X131752401Y-117548372D01*
X131752403Y-117548379D01*
X131802645Y-117683086D01*
X131802649Y-117683093D01*
X131888809Y-117798187D01*
X131888812Y-117798190D01*
X132003906Y-117884350D01*
X132003913Y-117884354D01*
X132138620Y-117934596D01*
X132138627Y-117934598D01*
X132198155Y-117940999D01*
X132198172Y-117941000D01*
X132846000Y-117941000D01*
X132846000Y-117024012D01*
X132903007Y-117056925D01*
X133030174Y-117091000D01*
X133161826Y-117091000D01*
X133288993Y-117056925D01*
X133346000Y-117024012D01*
X133346000Y-117941000D01*
X133993828Y-117941000D01*
X133993844Y-117940999D01*
X134053372Y-117934598D01*
X134053379Y-117934596D01*
X134188086Y-117884354D01*
X134188093Y-117884350D01*
X134303187Y-117798190D01*
X134303190Y-117798187D01*
X134389350Y-117683093D01*
X134389354Y-117683086D01*
X134439596Y-117548379D01*
X134439598Y-117548372D01*
X134445999Y-117488844D01*
X134446000Y-117488827D01*
X134446000Y-116841000D01*
X133529012Y-116841000D01*
X133561925Y-116783993D01*
X133596000Y-116656826D01*
X133596000Y-116525174D01*
X133561925Y-116398007D01*
X133529012Y-116341000D01*
X134446000Y-116341000D01*
X134446000Y-115693172D01*
X134445999Y-115693155D01*
X134439598Y-115633627D01*
X134439596Y-115633620D01*
X134389354Y-115498913D01*
X134389350Y-115498906D01*
X134303190Y-115383812D01*
X134303187Y-115383809D01*
X134188093Y-115297649D01*
X134188088Y-115297646D01*
X134056528Y-115248577D01*
X134000595Y-115206705D01*
X133976178Y-115141241D01*
X133991030Y-115072968D01*
X134012175Y-115044720D01*
X134126104Y-114930792D01*
X134251051Y-114758816D01*
X134347557Y-114569412D01*
X134413246Y-114367243D01*
X134446500Y-114157287D01*
X134446500Y-114001513D01*
X135451500Y-114001513D01*
X135451500Y-114190486D01*
X135481059Y-114377118D01*
X135539454Y-114556836D01*
X135565018Y-114607007D01*
X135625240Y-114725199D01*
X135736310Y-114878073D01*
X135869927Y-115011690D01*
X136022801Y-115122760D01*
X136102347Y-115163290D01*
X136191163Y-115208545D01*
X136191165Y-115208545D01*
X136191168Y-115208547D01*
X136262308Y-115231662D01*
X136312803Y-115248069D01*
X136370478Y-115287507D01*
X136397676Y-115351866D01*
X136385761Y-115420712D01*
X136338516Y-115472188D01*
X136312803Y-115483931D01*
X136191163Y-115523454D01*
X136022800Y-115609240D01*
X135989235Y-115633627D01*
X135869927Y-115720310D01*
X135869925Y-115720312D01*
X135869924Y-115720312D01*
X135736312Y-115853924D01*
X135736312Y-115853925D01*
X135736310Y-115853927D01*
X135688610Y-115919579D01*
X135625240Y-116006800D01*
X135539454Y-116175163D01*
X135481059Y-116354881D01*
X135451500Y-116541513D01*
X135451500Y-116730486D01*
X135481059Y-116917118D01*
X135539454Y-117096836D01*
X135569722Y-117156239D01*
X135625240Y-117265199D01*
X135736310Y-117418073D01*
X135869927Y-117551690D01*
X136022801Y-117662760D01*
X136062707Y-117683093D01*
X136191163Y-117748545D01*
X136191165Y-117748545D01*
X136191168Y-117748547D01*
X136287497Y-117779846D01*
X136370881Y-117806940D01*
X136557514Y-117836500D01*
X136557519Y-117836500D01*
X136746486Y-117836500D01*
X136933118Y-117806940D01*
X137112832Y-117748547D01*
X137281199Y-117662760D01*
X137434073Y-117551690D01*
X137567690Y-117418073D01*
X137678760Y-117265199D01*
X137764547Y-117096832D01*
X137822940Y-116917118D01*
X137844025Y-116783993D01*
X137852500Y-116730486D01*
X137852500Y-116541513D01*
X137822940Y-116354881D01*
X137764545Y-116175163D01*
X137678759Y-116006800D01*
X137567690Y-115853927D01*
X137434073Y-115720310D01*
X137281199Y-115609240D01*
X137250013Y-115593350D01*
X137112836Y-115523454D01*
X137008336Y-115489500D01*
X136991195Y-115483930D01*
X136933521Y-115444493D01*
X136906323Y-115380134D01*
X136918238Y-115311288D01*
X136965482Y-115259812D01*
X136991194Y-115248069D01*
X137112832Y-115208547D01*
X137281199Y-115122760D01*
X137434073Y-115011690D01*
X137567690Y-114878073D01*
X137678760Y-114725199D01*
X137764547Y-114556832D01*
X137822940Y-114377118D01*
X137824505Y-114367239D01*
X137852500Y-114190486D01*
X137852500Y-114001513D01*
X137822940Y-113814881D01*
X137764545Y-113635163D01*
X137712280Y-113532588D01*
X137678760Y-113466801D01*
X137567690Y-113313927D01*
X137434073Y-113180310D01*
X137281199Y-113069240D01*
X137258266Y-113057555D01*
X137112836Y-112983454D01*
X136933118Y-112925059D01*
X136746486Y-112895500D01*
X136746481Y-112895500D01*
X136557519Y-112895500D01*
X136557514Y-112895500D01*
X136370881Y-112925059D01*
X136191163Y-112983454D01*
X136022800Y-113069240D01*
X135970888Y-113106957D01*
X135869927Y-113180310D01*
X135869925Y-113180312D01*
X135869924Y-113180312D01*
X135736312Y-113313924D01*
X135736312Y-113313925D01*
X135736310Y-113313927D01*
X135688610Y-113379579D01*
X135625240Y-113466800D01*
X135539454Y-113635163D01*
X135481059Y-113814881D01*
X135451500Y-114001513D01*
X134446500Y-114001513D01*
X134446500Y-113944713D01*
X134413246Y-113734757D01*
X134347557Y-113532588D01*
X134251051Y-113343184D01*
X134251049Y-113343181D01*
X134251048Y-113343179D01*
X134126109Y-113171213D01*
X133975786Y-113020890D01*
X133803820Y-112895951D01*
X133614414Y-112799444D01*
X133614413Y-112799443D01*
X133614412Y-112799443D01*
X133412243Y-112733754D01*
X133412241Y-112733753D01*
X133412240Y-112733753D01*
X133250957Y-112708208D01*
X133202287Y-112700500D01*
X132989713Y-112700500D01*
X132941042Y-112708208D01*
X132779760Y-112733753D01*
X132577585Y-112799444D01*
X132388181Y-112895950D01*
X132263120Y-112986811D01*
X132197314Y-113010290D01*
X132129260Y-112994464D01*
X132080566Y-112944358D01*
X132066691Y-112875880D01*
X132092041Y-112810771D01*
X132102546Y-112798820D01*
X132989548Y-111911818D01*
X133050871Y-111878334D01*
X133077229Y-111875500D01*
X142583920Y-111875500D01*
X142681462Y-111856096D01*
X142728913Y-111846658D01*
X142865495Y-111790084D01*
X142914729Y-111757186D01*
X142988416Y-111707952D01*
X144692819Y-110003549D01*
X144754142Y-109970064D01*
X144823834Y-109975048D01*
X144879767Y-110016920D01*
X144904184Y-110082384D01*
X144904500Y-110091230D01*
X144904500Y-130151961D01*
X144884815Y-130219000D01*
X144832011Y-130264755D01*
X144779796Y-130275959D01*
X144588795Y-130274874D01*
X144521868Y-130254809D01*
X144476414Y-130201746D01*
X144465499Y-130150880D01*
X144465499Y-127457128D01*
X144459091Y-127397517D01*
X144408796Y-127262669D01*
X144408795Y-127262668D01*
X144408793Y-127262664D01*
X144322547Y-127147455D01*
X144322544Y-127147452D01*
X144207335Y-127061206D01*
X144207328Y-127061202D01*
X144072482Y-127010908D01*
X144072483Y-127010908D01*
X144012883Y-127004501D01*
X144012881Y-127004500D01*
X144012873Y-127004500D01*
X144012864Y-127004500D01*
X141117129Y-127004500D01*
X141117123Y-127004501D01*
X141057516Y-127010908D01*
X140922671Y-127061202D01*
X140922664Y-127061206D01*
X140807455Y-127147452D01*
X140807452Y-127147455D01*
X140721206Y-127262664D01*
X140721202Y-127262671D01*
X140670908Y-127397517D01*
X140664501Y-127457116D01*
X140664501Y-127457123D01*
X140664500Y-127457135D01*
X140664500Y-130127884D01*
X140644815Y-130194923D01*
X140592011Y-130240678D01*
X140539796Y-130251882D01*
X130388795Y-130194242D01*
X130321868Y-130174177D01*
X130276414Y-130121114D01*
X130265499Y-130070248D01*
X130265499Y-127457128D01*
X130259091Y-127397517D01*
X130208796Y-127262669D01*
X130208795Y-127262668D01*
X130208793Y-127262664D01*
X130122547Y-127147455D01*
X130122544Y-127147452D01*
X130007335Y-127061206D01*
X130007328Y-127061202D01*
X129872482Y-127010908D01*
X129872483Y-127010908D01*
X129812883Y-127004501D01*
X129812881Y-127004500D01*
X129812873Y-127004500D01*
X129812864Y-127004500D01*
X126917129Y-127004500D01*
X126917123Y-127004501D01*
X126857516Y-127010908D01*
X126722671Y-127061202D01*
X126722664Y-127061206D01*
X126607455Y-127147452D01*
X126607452Y-127147455D01*
X126521206Y-127262664D01*
X126521202Y-127262671D01*
X126470908Y-127397517D01*
X126464501Y-127457116D01*
X126464501Y-127457123D01*
X126464500Y-127457135D01*
X126464500Y-130047251D01*
X126444815Y-130114290D01*
X126392011Y-130160045D01*
X126339796Y-130171249D01*
X110623796Y-130082008D01*
X110556869Y-130061943D01*
X110511415Y-130008880D01*
X110500500Y-129958010D01*
X110500500Y-111029648D01*
X110967500Y-111029648D01*
X110967500Y-111234351D01*
X110999522Y-111436534D01*
X111062781Y-111631223D01*
X111101876Y-111707950D01*
X111143725Y-111790083D01*
X111155715Y-111813613D01*
X111276028Y-111979213D01*
X111420786Y-112123971D01*
X111575749Y-112236556D01*
X111586390Y-112244287D01*
X111702607Y-112303503D01*
X111768776Y-112337218D01*
X111768778Y-112337218D01*
X111768781Y-112337220D01*
X111873137Y-112371127D01*
X111963465Y-112400477D01*
X112064557Y-112416488D01*
X112165648Y-112432500D01*
X112165649Y-112432500D01*
X112370351Y-112432500D01*
X112370352Y-112432500D01*
X112572534Y-112400477D01*
X112767219Y-112337220D01*
X112949610Y-112244287D01*
X113042590Y-112176732D01*
X113115213Y-112123971D01*
X113115215Y-112123968D01*
X113115219Y-112123966D01*
X113259966Y-111979219D01*
X113259968Y-111979215D01*
X113259971Y-111979213D01*
X113312732Y-111906590D01*
X113380287Y-111813610D01*
X113473220Y-111631219D01*
X113536477Y-111436534D01*
X113568500Y-111234352D01*
X113568500Y-111029648D01*
X113536477Y-110827466D01*
X113473220Y-110632781D01*
X113473218Y-110632778D01*
X113473218Y-110632776D01*
X113426989Y-110542048D01*
X113380287Y-110450390D01*
X113367315Y-110432536D01*
X113259971Y-110284786D01*
X113115213Y-110140028D01*
X112949613Y-110019715D01*
X112949612Y-110019714D01*
X112949610Y-110019713D01*
X112892653Y-109990691D01*
X112767223Y-109926781D01*
X112572534Y-109863522D01*
X112397995Y-109835878D01*
X112370352Y-109831500D01*
X112165648Y-109831500D01*
X112141329Y-109835351D01*
X111963465Y-109863522D01*
X111768776Y-109926781D01*
X111586386Y-110019715D01*
X111420786Y-110140028D01*
X111276028Y-110284786D01*
X111155715Y-110450386D01*
X111062781Y-110632776D01*
X110999522Y-110827465D01*
X110967500Y-111029648D01*
X110500500Y-111029648D01*
X110500500Y-101389682D01*
X110950000Y-101389682D01*
X110950000Y-101594317D01*
X110982009Y-101796417D01*
X111045244Y-101991031D01*
X111138141Y-102173350D01*
X111138147Y-102173359D01*
X111170523Y-102217921D01*
X111170524Y-102217922D01*
X111850000Y-101538446D01*
X111850000Y-101544661D01*
X111877259Y-101646394D01*
X111929920Y-101737606D01*
X112004394Y-101812080D01*
X112095606Y-101864741D01*
X112197339Y-101892000D01*
X112203553Y-101892000D01*
X111542553Y-102553000D01*
X112221554Y-103232000D01*
X112215339Y-103232000D01*
X112113606Y-103259259D01*
X112022394Y-103311920D01*
X111947920Y-103386394D01*
X111895259Y-103477606D01*
X111868000Y-103579339D01*
X111868000Y-103585553D01*
X111188524Y-102906077D01*
X111188523Y-102906077D01*
X111156143Y-102950644D01*
X111063244Y-103132968D01*
X111000009Y-103327582D01*
X110968000Y-103529682D01*
X110968000Y-103734317D01*
X111000009Y-103936417D01*
X111063244Y-104131031D01*
X111156141Y-104313350D01*
X111156147Y-104313359D01*
X111188523Y-104357921D01*
X111188524Y-104357922D01*
X111868000Y-103678446D01*
X111868000Y-103684661D01*
X111895259Y-103786394D01*
X111947920Y-103877606D01*
X112022394Y-103952080D01*
X112113606Y-104004741D01*
X112215339Y-104032000D01*
X112221553Y-104032000D01*
X111542076Y-104711474D01*
X111586650Y-104743859D01*
X111768968Y-104836755D01*
X111963582Y-104899990D01*
X112165683Y-104932000D01*
X112370317Y-104932000D01*
X112572417Y-104899990D01*
X112767031Y-104836755D01*
X112949349Y-104743859D01*
X112993921Y-104711474D01*
X112314447Y-104032000D01*
X112320661Y-104032000D01*
X112422394Y-104004741D01*
X112513606Y-103952080D01*
X112588080Y-103877606D01*
X112640741Y-103786394D01*
X112668000Y-103684661D01*
X112668000Y-103678447D01*
X113347474Y-104357921D01*
X113379859Y-104313349D01*
X113472755Y-104131031D01*
X113535990Y-103936417D01*
X113568000Y-103734317D01*
X113568000Y-103529682D01*
X113535990Y-103327582D01*
X113472755Y-103132968D01*
X113379859Y-102950650D01*
X113347474Y-102906077D01*
X113347474Y-102906076D01*
X112668000Y-103585551D01*
X112668000Y-103579339D01*
X112640741Y-103477606D01*
X112588080Y-103386394D01*
X112513606Y-103311920D01*
X112422394Y-103259259D01*
X112320661Y-103232000D01*
X112314447Y-103232000D01*
X112975446Y-102570999D01*
X112975446Y-102570998D01*
X112296447Y-101892000D01*
X112302661Y-101892000D01*
X112404394Y-101864741D01*
X112495606Y-101812080D01*
X112570080Y-101737606D01*
X112622741Y-101646394D01*
X112650000Y-101544661D01*
X112650000Y-101538448D01*
X113329474Y-102217922D01*
X113329474Y-102217921D01*
X113361859Y-102173349D01*
X113454755Y-101991031D01*
X113517990Y-101796417D01*
X113550000Y-101594317D01*
X113550000Y-101389682D01*
X113517990Y-101187582D01*
X113454755Y-100992968D01*
X113361859Y-100810650D01*
X113329474Y-100766077D01*
X113329474Y-100766076D01*
X112650000Y-101445551D01*
X112650000Y-101439339D01*
X112622741Y-101337606D01*
X112570080Y-101246394D01*
X112495606Y-101171920D01*
X112404394Y-101119259D01*
X112302661Y-101092000D01*
X112296446Y-101092000D01*
X112975922Y-100412524D01*
X112975921Y-100412523D01*
X112931359Y-100380147D01*
X112931350Y-100380141D01*
X112749031Y-100287244D01*
X112554417Y-100224009D01*
X112352317Y-100192000D01*
X112147683Y-100192000D01*
X111945582Y-100224009D01*
X111750968Y-100287244D01*
X111568644Y-100380143D01*
X111524077Y-100412523D01*
X111524077Y-100412524D01*
X112203554Y-101092000D01*
X112197339Y-101092000D01*
X112095606Y-101119259D01*
X112004394Y-101171920D01*
X111929920Y-101246394D01*
X111877259Y-101337606D01*
X111850000Y-101439339D01*
X111850000Y-101445553D01*
X111170524Y-100766077D01*
X111170523Y-100766077D01*
X111138143Y-100810644D01*
X111045244Y-100992968D01*
X110982009Y-101187582D01*
X110950000Y-101389682D01*
X110500500Y-101389682D01*
X110500500Y-96124783D01*
X110520185Y-96057744D01*
X110572989Y-96011989D01*
X110642147Y-96002045D01*
X110705703Y-96031070D01*
G37*
%TD.AperFunction*%
%TA.AperFunction,Conductor*%
G36*
X134505419Y-93020185D02*
G01*
X134526061Y-93036819D01*
X134919406Y-93430164D01*
X134952891Y-93491487D01*
X134947907Y-93561179D01*
X134906035Y-93617112D01*
X134888020Y-93628330D01*
X134713830Y-93717084D01*
X134630894Y-93777340D01*
X135329766Y-94476212D01*
X135287708Y-94487482D01*
X135162292Y-94559890D01*
X135059890Y-94662292D01*
X134987482Y-94787708D01*
X134976212Y-94829766D01*
X134277340Y-94130894D01*
X134217084Y-94213830D01*
X134109897Y-94424197D01*
X134036934Y-94648752D01*
X134000000Y-94881947D01*
X134000000Y-95118052D01*
X134036934Y-95351247D01*
X134109897Y-95575802D01*
X134217087Y-95786174D01*
X134277338Y-95869104D01*
X134277340Y-95869105D01*
X134976212Y-95170233D01*
X134987482Y-95212292D01*
X135059890Y-95337708D01*
X135162292Y-95440110D01*
X135287708Y-95512518D01*
X135329765Y-95523787D01*
X134630893Y-96222658D01*
X134713828Y-96282914D01*
X134924197Y-96390102D01*
X135148752Y-96463065D01*
X135148751Y-96463065D01*
X135381948Y-96500000D01*
X135618052Y-96500000D01*
X135851247Y-96463065D01*
X136075802Y-96390102D01*
X136286163Y-96282918D01*
X136286169Y-96282914D01*
X136369104Y-96222658D01*
X136369105Y-96222658D01*
X135670233Y-95523787D01*
X135712292Y-95512518D01*
X135837708Y-95440110D01*
X135940110Y-95337708D01*
X136012518Y-95212292D01*
X136023787Y-95170233D01*
X136722658Y-95869105D01*
X136722658Y-95869104D01*
X136782914Y-95786169D01*
X136782921Y-95786159D01*
X136810015Y-95732984D01*
X136857989Y-95682188D01*
X136925810Y-95665392D01*
X136991945Y-95687929D01*
X137035397Y-95742644D01*
X137044500Y-95789278D01*
X137044500Y-97427770D01*
X137024815Y-97494809D01*
X137008181Y-97515451D01*
X136577048Y-97946583D01*
X136551751Y-97984443D01*
X136535403Y-98008912D01*
X136494916Y-98069505D01*
X136457497Y-98159841D01*
X136454969Y-98164689D01*
X136434377Y-98186079D01*
X136415746Y-98209199D01*
X136410411Y-98210974D01*
X136406512Y-98215025D01*
X136377624Y-98221887D01*
X136349452Y-98231264D01*
X136343601Y-98229969D01*
X136338534Y-98231173D01*
X136320675Y-98224896D01*
X136288731Y-98217828D01*
X136075996Y-98109433D01*
X135851368Y-98036446D01*
X135618097Y-97999500D01*
X135618092Y-97999500D01*
X135381908Y-97999500D01*
X135381903Y-97999500D01*
X135148631Y-98036446D01*
X134924003Y-98109433D01*
X134713566Y-98216657D01*
X134678732Y-98241966D01*
X134522490Y-98355483D01*
X134522488Y-98355485D01*
X134522487Y-98355485D01*
X134355485Y-98522487D01*
X134355485Y-98522488D01*
X134355483Y-98522490D01*
X134335748Y-98549653D01*
X134216657Y-98713566D01*
X134109433Y-98924003D01*
X134036446Y-99148631D01*
X133999500Y-99381902D01*
X133999500Y-99618097D01*
X134036446Y-99851368D01*
X134109433Y-100075996D01*
X134207034Y-100267546D01*
X134216657Y-100286433D01*
X134355483Y-100477510D01*
X134522490Y-100644517D01*
X134713567Y-100783343D01*
X134767160Y-100810650D01*
X134924003Y-100890566D01*
X134924005Y-100890566D01*
X134924008Y-100890568D01*
X135023783Y-100922987D01*
X135148631Y-100963553D01*
X135381903Y-101000500D01*
X135381908Y-101000500D01*
X135618097Y-101000500D01*
X135851368Y-100963553D01*
X135894572Y-100949515D01*
X136075992Y-100890568D01*
X136229205Y-100812501D01*
X136297874Y-100799606D01*
X136362615Y-100825882D01*
X136402872Y-100882989D01*
X136409500Y-100922987D01*
X136409500Y-105047769D01*
X136389815Y-105114808D01*
X136373181Y-105135450D01*
X134672050Y-106836580D01*
X134672044Y-106836588D01*
X134622812Y-106910268D01*
X134622813Y-106910269D01*
X134589921Y-106959496D01*
X134589914Y-106959508D01*
X134533342Y-107096086D01*
X134533340Y-107096092D01*
X134504500Y-107241079D01*
X134504500Y-107241082D01*
X134504500Y-109928918D01*
X134504500Y-109928920D01*
X134504499Y-109928920D01*
X134533340Y-110073907D01*
X134533342Y-110073913D01*
X134586831Y-110203047D01*
X134594300Y-110272517D01*
X134563025Y-110334996D01*
X134502936Y-110370648D01*
X134472270Y-110374500D01*
X132641076Y-110374500D01*
X132612242Y-110380234D01*
X132612243Y-110380235D01*
X132496093Y-110403339D01*
X132496089Y-110403340D01*
X132425606Y-110432536D01*
X132359506Y-110459915D01*
X132277372Y-110514795D01*
X132236585Y-110542047D01*
X132236581Y-110542050D01*
X126725451Y-116053181D01*
X126664128Y-116086666D01*
X126637770Y-116089500D01*
X125139221Y-116089500D01*
X125072182Y-116069815D01*
X125038903Y-116038385D01*
X124982107Y-115960211D01*
X124868181Y-115846285D01*
X124834696Y-115784962D01*
X124839680Y-115715270D01*
X124881552Y-115659337D01*
X124912529Y-115642422D01*
X125044086Y-115593354D01*
X125044093Y-115593350D01*
X125159187Y-115507190D01*
X125159190Y-115507187D01*
X125245350Y-115392093D01*
X125245354Y-115392086D01*
X125295596Y-115257379D01*
X125295598Y-115257372D01*
X125301999Y-115197844D01*
X125302000Y-115197827D01*
X125302000Y-114550000D01*
X124385012Y-114550000D01*
X124417925Y-114492993D01*
X124452000Y-114365826D01*
X124452000Y-114234174D01*
X124417925Y-114107007D01*
X124385012Y-114050000D01*
X125302000Y-114050000D01*
X125302000Y-113402172D01*
X125301999Y-113402155D01*
X125295598Y-113342627D01*
X125295596Y-113342620D01*
X125245354Y-113207913D01*
X125245350Y-113207906D01*
X125159190Y-113092812D01*
X125159187Y-113092809D01*
X125044093Y-113006649D01*
X125044086Y-113006645D01*
X124909379Y-112956403D01*
X124909372Y-112956401D01*
X124849844Y-112950000D01*
X124202000Y-112950000D01*
X124202000Y-113866988D01*
X124144993Y-113834075D01*
X124017826Y-113800000D01*
X123886174Y-113800000D01*
X123759007Y-113834075D01*
X123702000Y-113866988D01*
X123702000Y-112950000D01*
X123054155Y-112950000D01*
X122994627Y-112956401D01*
X122994620Y-112956403D01*
X122859913Y-113006645D01*
X122859906Y-113006649D01*
X122744812Y-113092809D01*
X122744809Y-113092812D01*
X122658649Y-113207906D01*
X122658646Y-113207912D01*
X122609577Y-113339471D01*
X122567705Y-113395404D01*
X122502241Y-113419821D01*
X122433968Y-113404969D01*
X122405714Y-113383818D01*
X122291786Y-113269890D01*
X122119820Y-113144951D01*
X121930414Y-113048444D01*
X121930413Y-113048443D01*
X121930412Y-113048443D01*
X121728243Y-112982754D01*
X121728241Y-112982753D01*
X121728240Y-112982753D01*
X121566957Y-112957208D01*
X121518287Y-112949500D01*
X121305713Y-112949500D01*
X121266202Y-112955757D01*
X121095759Y-112982753D01*
X121095755Y-112982754D01*
X121024817Y-113005803D01*
X120954976Y-113007798D01*
X120895143Y-112971717D01*
X120864316Y-112909016D01*
X120862500Y-112887872D01*
X120862500Y-107785425D01*
X120862501Y-107785412D01*
X120862501Y-107617309D01*
X120862501Y-107617308D01*
X120821577Y-107464581D01*
X120814819Y-107452876D01*
X120742524Y-107327655D01*
X120742518Y-107327647D01*
X116823225Y-103408355D01*
X116819695Y-103404825D01*
X116801296Y-103371117D01*
X116786224Y-103343515D01*
X116786224Y-103343506D01*
X116786220Y-103343498D01*
X116789095Y-103303373D01*
X116791208Y-103273823D01*
X116791213Y-103273814D01*
X116791214Y-103273807D01*
X116791244Y-103273766D01*
X116819709Y-103229476D01*
X116844496Y-103204689D01*
X116871966Y-103177219D01*
X116871968Y-103177215D01*
X116871971Y-103177213D01*
X116966884Y-103046574D01*
X116992287Y-103011610D01*
X117085220Y-102829219D01*
X117148477Y-102634534D01*
X117180500Y-102432352D01*
X117180500Y-102227648D01*
X117148477Y-102025466D01*
X117137288Y-101991031D01*
X117096254Y-101864741D01*
X117085220Y-101830781D01*
X117085218Y-101830778D01*
X117085218Y-101830776D01*
X117027546Y-101717590D01*
X116992287Y-101648390D01*
X116953001Y-101594317D01*
X116871971Y-101482786D01*
X116727213Y-101338028D01*
X116561614Y-101217715D01*
X116555006Y-101214348D01*
X116468917Y-101170483D01*
X116418123Y-101122511D01*
X116401328Y-101054690D01*
X116423865Y-100988555D01*
X116468917Y-100949516D01*
X116561610Y-100902287D01*
X116588172Y-100882989D01*
X116727213Y-100781971D01*
X116727215Y-100781968D01*
X116727219Y-100781966D01*
X116871966Y-100637219D01*
X116871968Y-100637215D01*
X116871971Y-100637213D01*
X116924732Y-100564590D01*
X116992287Y-100471610D01*
X117085220Y-100289219D01*
X117148477Y-100094534D01*
X117180500Y-99892352D01*
X117180500Y-99687648D01*
X117148477Y-99485466D01*
X117085220Y-99290781D01*
X117085218Y-99290778D01*
X117085218Y-99290776D01*
X117033425Y-99189128D01*
X116992287Y-99108390D01*
X116983991Y-99096972D01*
X116871971Y-98942786D01*
X116727213Y-98798028D01*
X116561614Y-98677715D01*
X116555006Y-98674348D01*
X116468917Y-98630483D01*
X116418123Y-98582511D01*
X116401328Y-98514690D01*
X116423865Y-98448555D01*
X116468917Y-98409516D01*
X116561610Y-98362287D01*
X116582770Y-98346913D01*
X116727213Y-98241971D01*
X116727215Y-98241968D01*
X116727219Y-98241966D01*
X116871966Y-98097219D01*
X116871968Y-98097215D01*
X116871971Y-98097213D01*
X116981408Y-97946584D01*
X116992287Y-97931610D01*
X117041412Y-97835196D01*
X117089384Y-97784403D01*
X117157204Y-97767607D01*
X117223339Y-97790144D01*
X117239576Y-97803812D01*
X120013181Y-100577416D01*
X120046666Y-100638739D01*
X120049500Y-100665097D01*
X120049500Y-101933330D01*
X120049499Y-101933348D01*
X120049499Y-102099054D01*
X120049498Y-102099054D01*
X120090423Y-102251785D01*
X120110782Y-102287048D01*
X120110784Y-102287050D01*
X120169479Y-102388714D01*
X120169481Y-102388717D01*
X120288349Y-102507585D01*
X120288355Y-102507590D01*
X122205921Y-104425157D01*
X122239406Y-104486480D01*
X122236173Y-104551149D01*
X122231523Y-104565460D01*
X122231523Y-104565462D01*
X122199500Y-104767648D01*
X122199500Y-104972351D01*
X122231522Y-105174534D01*
X122294781Y-105369223D01*
X122387715Y-105551613D01*
X122508028Y-105717213D01*
X122652786Y-105861971D01*
X122807749Y-105974556D01*
X122818390Y-105982287D01*
X122909840Y-106028883D01*
X122911080Y-106029515D01*
X122961876Y-106077490D01*
X122978671Y-106145311D01*
X122956134Y-106211446D01*
X122911080Y-106250485D01*
X122818386Y-106297715D01*
X122652786Y-106418028D01*
X122508028Y-106562786D01*
X122387715Y-106728386D01*
X122294781Y-106910776D01*
X122231522Y-107105465D01*
X122199500Y-107307648D01*
X122199500Y-107512351D01*
X122231522Y-107714534D01*
X122294781Y-107909223D01*
X122387715Y-108091613D01*
X122508028Y-108257213D01*
X122652786Y-108401971D01*
X122807749Y-108514556D01*
X122818390Y-108522287D01*
X122909840Y-108568883D01*
X122911080Y-108569515D01*
X122961876Y-108617490D01*
X122978671Y-108685311D01*
X122956134Y-108751446D01*
X122911080Y-108790485D01*
X122818386Y-108837715D01*
X122652786Y-108958028D01*
X122508028Y-109102786D01*
X122387715Y-109268386D01*
X122294781Y-109450776D01*
X122231522Y-109645465D01*
X122199500Y-109847648D01*
X122199500Y-110052351D01*
X122231522Y-110254534D01*
X122294781Y-110449223D01*
X122387715Y-110631613D01*
X122508028Y-110797213D01*
X122652786Y-110941971D01*
X122807749Y-111054556D01*
X122818390Y-111062287D01*
X122934607Y-111121503D01*
X123000776Y-111155218D01*
X123000778Y-111155218D01*
X123000781Y-111155220D01*
X123105137Y-111189127D01*
X123195465Y-111218477D01*
X123295689Y-111234351D01*
X123397648Y-111250500D01*
X123397649Y-111250500D01*
X123602351Y-111250500D01*
X123602352Y-111250500D01*
X123804534Y-111218477D01*
X123999219Y-111155220D01*
X124181610Y-111062287D01*
X124274590Y-110994732D01*
X124347213Y-110941971D01*
X124347215Y-110941968D01*
X124347219Y-110941966D01*
X124491966Y-110797219D01*
X124491968Y-110797215D01*
X124491971Y-110797213D01*
X124544732Y-110724590D01*
X124612287Y-110631610D01*
X124705220Y-110449219D01*
X124768477Y-110254534D01*
X124800500Y-110052352D01*
X124800500Y-109847648D01*
X124768477Y-109645466D01*
X124705220Y-109450781D01*
X124705218Y-109450778D01*
X124705218Y-109450776D01*
X124671503Y-109384607D01*
X124612287Y-109268390D01*
X124604556Y-109257749D01*
X124491971Y-109102786D01*
X124347213Y-108958028D01*
X124181614Y-108837715D01*
X124175006Y-108834348D01*
X124088917Y-108790483D01*
X124038123Y-108742511D01*
X124021328Y-108674690D01*
X124043865Y-108608555D01*
X124088917Y-108569516D01*
X124181610Y-108522287D01*
X124202770Y-108506913D01*
X124347213Y-108401971D01*
X124347215Y-108401968D01*
X124347219Y-108401966D01*
X124491966Y-108257219D01*
X124491968Y-108257215D01*
X124491971Y-108257213D01*
X124544732Y-108184590D01*
X124612287Y-108091610D01*
X124705220Y-107909219D01*
X124768477Y-107714534D01*
X124800500Y-107512352D01*
X124800500Y-107307648D01*
X124768477Y-107105466D01*
X124765429Y-107096086D01*
X124705218Y-106910776D01*
X124667413Y-106836580D01*
X124612287Y-106728390D01*
X124582481Y-106687365D01*
X124491971Y-106562786D01*
X124347213Y-106418028D01*
X124196901Y-106308821D01*
X124196893Y-106308816D01*
X124181610Y-106297713D01*
X124087594Y-106249809D01*
X124086306Y-106249114D01*
X124062507Y-106225540D01*
X124038123Y-106202511D01*
X124037754Y-106201021D01*
X124036666Y-106199944D01*
X124029385Y-106167227D01*
X124021328Y-106134690D01*
X124021822Y-106133239D01*
X124021489Y-106131743D01*
X124033057Y-106100270D01*
X124043865Y-106068555D01*
X124045111Y-106067474D01*
X124045594Y-106066163D01*
X124053684Y-106060046D01*
X124088917Y-106029516D01*
X124181610Y-105982287D01*
X124254731Y-105929162D01*
X124347213Y-105861971D01*
X124347215Y-105861968D01*
X124347219Y-105861966D01*
X124491966Y-105717219D01*
X124491968Y-105717215D01*
X124491971Y-105717213D01*
X124547874Y-105640268D01*
X124612287Y-105551610D01*
X124705220Y-105369219D01*
X124768477Y-105174534D01*
X124800500Y-104972352D01*
X124800500Y-104767648D01*
X124768477Y-104565466D01*
X124765777Y-104557155D01*
X126165000Y-104557155D01*
X126165000Y-105755000D01*
X127335111Y-105755000D01*
X127324590Y-105780399D01*
X127295000Y-105929162D01*
X127295000Y-106080838D01*
X127324590Y-106229601D01*
X127335111Y-106255000D01*
X126165000Y-106255000D01*
X126165000Y-107452844D01*
X126171401Y-107512372D01*
X126171403Y-107512379D01*
X126221645Y-107647086D01*
X126221649Y-107647093D01*
X126307809Y-107762187D01*
X126307812Y-107762190D01*
X126422906Y-107848350D01*
X126422913Y-107848354D01*
X126557620Y-107898596D01*
X126557627Y-107898598D01*
X126617155Y-107904999D01*
X126617172Y-107905000D01*
X127815000Y-107905000D01*
X127815000Y-106734889D01*
X127840399Y-106745410D01*
X127989162Y-106775000D01*
X128140838Y-106775000D01*
X128289601Y-106745410D01*
X128315000Y-106734889D01*
X128315000Y-107905000D01*
X129512828Y-107905000D01*
X129512844Y-107904999D01*
X129572372Y-107898598D01*
X129572376Y-107898597D01*
X129715398Y-107845253D01*
X129716076Y-107847070D01*
X129773306Y-107834615D01*
X129814032Y-107846572D01*
X129814359Y-107845697D01*
X129957517Y-107899091D01*
X129957516Y-107899091D01*
X129964444Y-107899835D01*
X130017127Y-107905500D01*
X132912872Y-107905499D01*
X132972483Y-107899091D01*
X133107331Y-107848796D01*
X133222546Y-107762546D01*
X133308796Y-107647331D01*
X133359091Y-107512483D01*
X133365500Y-107452873D01*
X133365499Y-104557128D01*
X133359091Y-104497517D01*
X133354974Y-104486480D01*
X133308797Y-104362671D01*
X133308793Y-104362664D01*
X133222547Y-104247455D01*
X133222544Y-104247452D01*
X133107335Y-104161206D01*
X133107328Y-104161202D01*
X132972482Y-104110908D01*
X132972483Y-104110908D01*
X132912883Y-104104501D01*
X132912881Y-104104500D01*
X132912873Y-104104500D01*
X132912864Y-104104500D01*
X130017129Y-104104500D01*
X130017123Y-104104501D01*
X129957516Y-104110908D01*
X129814359Y-104164303D01*
X129813774Y-104162734D01*
X129755624Y-104175383D01*
X129715794Y-104163686D01*
X129715399Y-104164746D01*
X129572379Y-104111403D01*
X129572372Y-104111401D01*
X129512844Y-104105000D01*
X128315000Y-104105000D01*
X128315000Y-105275110D01*
X128289601Y-105264590D01*
X128140838Y-105235000D01*
X127989162Y-105235000D01*
X127840399Y-105264590D01*
X127815000Y-105275110D01*
X127815000Y-104105000D01*
X126617155Y-104105000D01*
X126557627Y-104111401D01*
X126557620Y-104111403D01*
X126422913Y-104161645D01*
X126422906Y-104161649D01*
X126307812Y-104247809D01*
X126307809Y-104247812D01*
X126221649Y-104362906D01*
X126221645Y-104362913D01*
X126171403Y-104497620D01*
X126171401Y-104497627D01*
X126165000Y-104557155D01*
X124765777Y-104557155D01*
X124705220Y-104370781D01*
X124705218Y-104370778D01*
X124705218Y-104370776D01*
X124642564Y-104247812D01*
X124612287Y-104188390D01*
X124592537Y-104161206D01*
X124491971Y-104022786D01*
X124347213Y-103878028D01*
X124181614Y-103757715D01*
X124175006Y-103754348D01*
X124088917Y-103710483D01*
X124038123Y-103662511D01*
X124021328Y-103594690D01*
X124043865Y-103528555D01*
X124088917Y-103489516D01*
X124181610Y-103442287D01*
X124233171Y-103404826D01*
X124347213Y-103321971D01*
X124347215Y-103321968D01*
X124347219Y-103321966D01*
X124491966Y-103177219D01*
X124491968Y-103177215D01*
X124491971Y-103177213D01*
X124586884Y-103046574D01*
X124612287Y-103011610D01*
X124705220Y-102829219D01*
X124768477Y-102634534D01*
X124800500Y-102432352D01*
X124800500Y-102227648D01*
X124768477Y-102025466D01*
X124757288Y-101991031D01*
X124716254Y-101864741D01*
X124705220Y-101830781D01*
X124705218Y-101830778D01*
X124705218Y-101830776D01*
X124647546Y-101717590D01*
X124612287Y-101648390D01*
X124573001Y-101594317D01*
X124491971Y-101482786D01*
X124347213Y-101338028D01*
X124181614Y-101217715D01*
X124175006Y-101214348D01*
X124088917Y-101170483D01*
X124038123Y-101122511D01*
X124021328Y-101054690D01*
X124043865Y-100988555D01*
X124088917Y-100949516D01*
X124181610Y-100902287D01*
X124208172Y-100882989D01*
X124347213Y-100781971D01*
X124347215Y-100781968D01*
X124347219Y-100781966D01*
X124491966Y-100637219D01*
X124491968Y-100637215D01*
X124491971Y-100637213D01*
X124544732Y-100564590D01*
X124612287Y-100471610D01*
X124705220Y-100289219D01*
X124768477Y-100094534D01*
X124800500Y-99892352D01*
X124800500Y-99687648D01*
X124768477Y-99485466D01*
X124705220Y-99290781D01*
X124705218Y-99290778D01*
X124705218Y-99290776D01*
X124653425Y-99189128D01*
X124612287Y-99108390D01*
X124603991Y-99096972D01*
X124491971Y-98942786D01*
X124347213Y-98798028D01*
X124181614Y-98677715D01*
X124175006Y-98674348D01*
X124088917Y-98630483D01*
X124038123Y-98582511D01*
X124021328Y-98514690D01*
X124043865Y-98448555D01*
X124088917Y-98409516D01*
X124181610Y-98362287D01*
X124202770Y-98346913D01*
X124347213Y-98241971D01*
X124347215Y-98241968D01*
X124347219Y-98241966D01*
X124491966Y-98097219D01*
X124491968Y-98097215D01*
X124491971Y-98097213D01*
X124586087Y-97967671D01*
X124612287Y-97931610D01*
X124705220Y-97749219D01*
X124768477Y-97554534D01*
X124800500Y-97352352D01*
X124800500Y-97147648D01*
X124791681Y-97091971D01*
X124800635Y-97022679D01*
X124826470Y-96984895D01*
X125397652Y-96413713D01*
X126284500Y-96413713D01*
X126284500Y-96626287D01*
X126317754Y-96836243D01*
X126366053Y-96984892D01*
X126383444Y-97038414D01*
X126479951Y-97227820D01*
X126604890Y-97399786D01*
X126718430Y-97513326D01*
X126751915Y-97574649D01*
X126746931Y-97644341D01*
X126705059Y-97700274D01*
X126674083Y-97717189D01*
X126542669Y-97766203D01*
X126542664Y-97766206D01*
X126427455Y-97852452D01*
X126427452Y-97852455D01*
X126341206Y-97967664D01*
X126341202Y-97967671D01*
X126290908Y-98102517D01*
X126290165Y-98109433D01*
X126284501Y-98162123D01*
X126284500Y-98162135D01*
X126284500Y-99957870D01*
X126284501Y-99957876D01*
X126290908Y-100017483D01*
X126341202Y-100152328D01*
X126341206Y-100152335D01*
X126427452Y-100267544D01*
X126427455Y-100267547D01*
X126542664Y-100353793D01*
X126542671Y-100353797D01*
X126677517Y-100404091D01*
X126677516Y-100404091D01*
X126684444Y-100404835D01*
X126737127Y-100410500D01*
X128532872Y-100410499D01*
X128592483Y-100404091D01*
X128727331Y-100353796D01*
X128842546Y-100267546D01*
X128928796Y-100152331D01*
X128979091Y-100017483D01*
X128985500Y-99957873D01*
X128985499Y-98162128D01*
X128979091Y-98102517D01*
X128966778Y-98069505D01*
X128928797Y-97967671D01*
X128928793Y-97967664D01*
X128842547Y-97852455D01*
X128842544Y-97852452D01*
X128727335Y-97766206D01*
X128727328Y-97766202D01*
X128595917Y-97717189D01*
X128539983Y-97675318D01*
X128515566Y-97609853D01*
X128530418Y-97541580D01*
X128551563Y-97513332D01*
X128665104Y-97399792D01*
X128790051Y-97227816D01*
X128886557Y-97038412D01*
X128952246Y-96836243D01*
X128985500Y-96626287D01*
X128985500Y-96413713D01*
X128952246Y-96203757D01*
X128886557Y-96001588D01*
X128790051Y-95812184D01*
X128790049Y-95812181D01*
X128790048Y-95812179D01*
X128665109Y-95640213D01*
X128514786Y-95489890D01*
X128342820Y-95364951D01*
X128153414Y-95268444D01*
X128153413Y-95268443D01*
X128153412Y-95268443D01*
X127951243Y-95202754D01*
X127951241Y-95202753D01*
X127951240Y-95202753D01*
X127764521Y-95173180D01*
X127741287Y-95169500D01*
X127528713Y-95169500D01*
X127505479Y-95173180D01*
X127318760Y-95202753D01*
X127116585Y-95268444D01*
X126927179Y-95364951D01*
X126755213Y-95489890D01*
X126604890Y-95640213D01*
X126479951Y-95812179D01*
X126383444Y-96001585D01*
X126383443Y-96001587D01*
X126383443Y-96001588D01*
X126373864Y-96031070D01*
X126317753Y-96203760D01*
X126305216Y-96282918D01*
X126284500Y-96413713D01*
X125397652Y-96413713D01*
X126254153Y-95557213D01*
X127021973Y-94789394D01*
X127882948Y-93928419D01*
X127882948Y-93928418D01*
X127882952Y-93928415D01*
X127939285Y-93844106D01*
X127965084Y-93805495D01*
X127996631Y-93729334D01*
X128021659Y-93668912D01*
X128044763Y-93552759D01*
X128050500Y-93523918D01*
X128050500Y-93195845D01*
X128070185Y-93128806D01*
X128103602Y-93094113D01*
X128106456Y-93092123D01*
X128178044Y-93047968D01*
X128196962Y-93029049D01*
X128205976Y-93022768D01*
X128229106Y-93015024D01*
X128250516Y-93003334D01*
X128270418Y-93001194D01*
X128272232Y-93000587D01*
X128273373Y-93000876D01*
X128276874Y-93000500D01*
X134438380Y-93000500D01*
X134505419Y-93020185D01*
G37*
%TD.AperFunction*%
%TA.AperFunction,Conductor*%
G36*
X116959474Y-95435921D02*
G01*
X116991859Y-95391349D01*
X117007499Y-95360654D01*
X117055473Y-95309857D01*
X117123293Y-95293061D01*
X117189429Y-95315597D01*
X117205666Y-95329266D01*
X121763181Y-99886781D01*
X121796666Y-99948104D01*
X121799500Y-99974462D01*
X121799500Y-101143330D01*
X121799499Y-101143348D01*
X121799499Y-101309054D01*
X121799498Y-101309054D01*
X121840423Y-101461785D01*
X121852545Y-101482781D01*
X121869358Y-101511900D01*
X121869359Y-101511904D01*
X121869360Y-101511904D01*
X121919479Y-101598714D01*
X121919481Y-101598717D01*
X122038349Y-101717585D01*
X122038355Y-101717590D01*
X122205922Y-101885157D01*
X122239407Y-101946480D01*
X122236173Y-102011155D01*
X122231522Y-102025468D01*
X122199500Y-102227648D01*
X122199500Y-102420902D01*
X122179815Y-102487941D01*
X122127011Y-102533696D01*
X122057853Y-102543640D01*
X121994297Y-102514615D01*
X121987819Y-102508583D01*
X121286819Y-101807583D01*
X121253334Y-101746260D01*
X121250500Y-101719902D01*
X121250500Y-100454060D01*
X121250501Y-100454047D01*
X121250501Y-100285944D01*
X121250501Y-100285943D01*
X121209577Y-100133216D01*
X121187244Y-100094534D01*
X121130524Y-99996290D01*
X121130518Y-99996282D01*
X116582590Y-95448355D01*
X116582588Y-95448352D01*
X116463717Y-95329481D01*
X116463716Y-95329480D01*
X116357996Y-95268443D01*
X116357995Y-95268442D01*
X116326783Y-95250422D01*
X116270881Y-95235443D01*
X116174057Y-95209499D01*
X116077307Y-95209499D01*
X116010268Y-95189814D01*
X115989626Y-95173180D01*
X115926446Y-95110000D01*
X115932661Y-95110000D01*
X116034394Y-95082741D01*
X116125606Y-95030080D01*
X116200080Y-94955606D01*
X116252741Y-94864394D01*
X116280000Y-94762661D01*
X116280000Y-94756447D01*
X116959474Y-95435921D01*
G37*
%TD.AperFunction*%
%TA.AperFunction,Conductor*%
G36*
X141487482Y-95212292D02*
G01*
X141559890Y-95337708D01*
X141662292Y-95440110D01*
X141787708Y-95512518D01*
X141829765Y-95523787D01*
X141130893Y-96222658D01*
X141213828Y-96282914D01*
X141424197Y-96390102D01*
X141648752Y-96463065D01*
X141648751Y-96463065D01*
X141881948Y-96500000D01*
X142118052Y-96500000D01*
X142351247Y-96463065D01*
X142575802Y-96390102D01*
X142786163Y-96282918D01*
X142786169Y-96282914D01*
X142869104Y-96222658D01*
X142869105Y-96222658D01*
X142170233Y-95523787D01*
X142212292Y-95512518D01*
X142337708Y-95440110D01*
X142440110Y-95337708D01*
X142512518Y-95212292D01*
X142523787Y-95170234D01*
X143222658Y-95869105D01*
X143222658Y-95869104D01*
X143282914Y-95786169D01*
X143282918Y-95786163D01*
X143390102Y-95575802D01*
X143422569Y-95475882D01*
X143462006Y-95418206D01*
X143526365Y-95391008D01*
X143595211Y-95402923D01*
X143646687Y-95450167D01*
X143664500Y-95514200D01*
X143664500Y-98984178D01*
X143644815Y-99051217D01*
X143592011Y-99096972D01*
X143522853Y-99106916D01*
X143459297Y-99077891D01*
X143422569Y-99022497D01*
X143396669Y-98942786D01*
X143390568Y-98924008D01*
X143390566Y-98924005D01*
X143390566Y-98924003D01*
X143294705Y-98735867D01*
X143283343Y-98713567D01*
X143144517Y-98522490D01*
X142977510Y-98355483D01*
X142786433Y-98216657D01*
X142783230Y-98215025D01*
X142575996Y-98109433D01*
X142351368Y-98036446D01*
X142118097Y-97999500D01*
X142118092Y-97999500D01*
X141881908Y-97999500D01*
X141881903Y-97999500D01*
X141648631Y-98036446D01*
X141424003Y-98109433D01*
X141213566Y-98216657D01*
X141178732Y-98241966D01*
X141022490Y-98355483D01*
X141022488Y-98355485D01*
X141022487Y-98355485D01*
X140855485Y-98522487D01*
X140855485Y-98522488D01*
X140855483Y-98522490D01*
X140835748Y-98549653D01*
X140716657Y-98713566D01*
X140609433Y-98924003D01*
X140536446Y-99148631D01*
X140530566Y-99185761D01*
X140500636Y-99248896D01*
X140441325Y-99285827D01*
X140371462Y-99284829D01*
X140320412Y-99254044D01*
X140316819Y-99250451D01*
X140283334Y-99189128D01*
X140280500Y-99162770D01*
X140280500Y-95307751D01*
X140300185Y-95240712D01*
X140352989Y-95194957D01*
X140422147Y-95185013D01*
X140485703Y-95214038D01*
X140523477Y-95272816D01*
X140526973Y-95288353D01*
X140536934Y-95351248D01*
X140609897Y-95575802D01*
X140717087Y-95786174D01*
X140777338Y-95869104D01*
X140777340Y-95869105D01*
X141476212Y-95170233D01*
X141487482Y-95212292D01*
G37*
%TD.AperFunction*%
%TA.AperFunction,Conductor*%
G36*
X117228404Y-85080207D02*
G01*
X117244639Y-85093874D01*
X119721284Y-87570520D01*
X119721286Y-87570521D01*
X119721290Y-87570524D01*
X119807347Y-87620208D01*
X119858216Y-87649577D01*
X120010943Y-87690501D01*
X120010945Y-87690501D01*
X120176654Y-87690501D01*
X120176670Y-87690500D01*
X122270398Y-87690500D01*
X122337437Y-87710185D01*
X122380883Y-87758205D01*
X122387715Y-87771614D01*
X122508028Y-87937213D01*
X122652786Y-88081971D01*
X122771686Y-88168355D01*
X122818390Y-88202287D01*
X122889633Y-88238587D01*
X122911080Y-88249515D01*
X122961876Y-88297490D01*
X122978671Y-88365311D01*
X122956134Y-88431446D01*
X122911080Y-88470485D01*
X122818386Y-88517715D01*
X122652788Y-88638027D01*
X122519882Y-88770933D01*
X122458559Y-88804417D01*
X122388867Y-88799433D01*
X122332934Y-88757561D01*
X122331883Y-88756136D01*
X122289925Y-88698386D01*
X122252981Y-88647536D01*
X122112464Y-88507019D01*
X121951694Y-88390213D01*
X121902965Y-88365384D01*
X121774632Y-88299994D01*
X121774629Y-88299993D01*
X121585637Y-88238587D01*
X121487498Y-88223043D01*
X121389361Y-88207500D01*
X121190639Y-88207500D01*
X121125214Y-88217862D01*
X120994362Y-88238587D01*
X120805370Y-88299993D01*
X120805367Y-88299994D01*
X120628305Y-88390213D01*
X120467533Y-88507021D01*
X120327021Y-88647533D01*
X120210213Y-88808305D01*
X120119994Y-88985367D01*
X120119993Y-88985370D01*
X120058587Y-89174362D01*
X120027500Y-89370639D01*
X120027500Y-89569360D01*
X120058587Y-89765637D01*
X120119993Y-89954629D01*
X120119994Y-89954632D01*
X120208952Y-90129219D01*
X120210213Y-90131694D01*
X120327019Y-90292464D01*
X120467536Y-90432981D01*
X120628306Y-90549787D01*
X120687186Y-90579788D01*
X120784780Y-90629515D01*
X120835576Y-90677490D01*
X120852371Y-90745311D01*
X120829833Y-90811446D01*
X120784780Y-90850485D01*
X120628305Y-90930213D01*
X120467533Y-91047021D01*
X120327021Y-91187533D01*
X120210213Y-91348305D01*
X120119994Y-91525367D01*
X120119993Y-91525370D01*
X120058587Y-91714362D01*
X120044064Y-91806060D01*
X120027500Y-91910639D01*
X120027500Y-92109361D01*
X120039807Y-92187061D01*
X120058587Y-92305637D01*
X120119993Y-92494629D01*
X120119994Y-92494632D01*
X120187010Y-92626156D01*
X120210213Y-92671694D01*
X120327019Y-92832464D01*
X120467536Y-92972981D01*
X120628306Y-93089787D01*
X120686350Y-93119362D01*
X120805367Y-93180005D01*
X120805370Y-93180006D01*
X120896274Y-93209542D01*
X120994364Y-93241413D01*
X121190639Y-93272500D01*
X121190640Y-93272500D01*
X121389360Y-93272500D01*
X121389361Y-93272500D01*
X121585636Y-93241413D01*
X121774632Y-93180005D01*
X121951694Y-93089787D01*
X122112464Y-92972981D01*
X122220658Y-92864786D01*
X122281977Y-92831304D01*
X122351669Y-92836288D01*
X122407603Y-92878159D01*
X122408655Y-92879585D01*
X122420524Y-92895922D01*
X123100000Y-92216446D01*
X123100000Y-92222661D01*
X123127259Y-92324394D01*
X123179920Y-92415606D01*
X123254394Y-92490080D01*
X123345606Y-92542741D01*
X123447339Y-92570000D01*
X123453553Y-92570000D01*
X122774076Y-93249474D01*
X122818652Y-93281861D01*
X122911628Y-93329234D01*
X122962425Y-93377208D01*
X122979220Y-93445029D01*
X122956683Y-93511164D01*
X122911630Y-93550203D01*
X122818388Y-93597713D01*
X122652786Y-93718028D01*
X122508028Y-93862786D01*
X122387715Y-94028386D01*
X122294781Y-94210776D01*
X122231522Y-94405465D01*
X122199500Y-94607648D01*
X122199500Y-94812351D01*
X122231522Y-95014534D01*
X122294781Y-95209223D01*
X122348982Y-95315597D01*
X122387406Y-95391008D01*
X122387715Y-95391613D01*
X122508028Y-95557213D01*
X122652786Y-95701971D01*
X122804477Y-95812179D01*
X122818390Y-95822287D01*
X122909840Y-95868883D01*
X122911080Y-95869515D01*
X122961876Y-95917490D01*
X122978671Y-95985311D01*
X122956134Y-96051446D01*
X122911080Y-96090485D01*
X122818386Y-96137715D01*
X122652786Y-96258028D01*
X122508028Y-96402786D01*
X122387715Y-96568386D01*
X122294781Y-96750776D01*
X122231522Y-96945465D01*
X122199500Y-97147648D01*
X122199500Y-97340903D01*
X122179815Y-97407942D01*
X122127011Y-97453697D01*
X122057853Y-97463641D01*
X121994297Y-97434616D01*
X121987819Y-97428584D01*
X117616819Y-93057584D01*
X117583334Y-92996261D01*
X117580500Y-92969903D01*
X117580500Y-89263425D01*
X117580501Y-89263412D01*
X117580501Y-89095309D01*
X117578533Y-89087963D01*
X117539577Y-88942581D01*
X117517965Y-88905147D01*
X117460524Y-88805655D01*
X117460518Y-88805647D01*
X116823225Y-88168355D01*
X116819695Y-88164825D01*
X116801296Y-88131117D01*
X116786224Y-88103515D01*
X116786224Y-88103506D01*
X116786220Y-88103498D01*
X116788806Y-88067407D01*
X116791208Y-88033823D01*
X116791213Y-88033814D01*
X116791214Y-88033807D01*
X116791244Y-88033766D01*
X116819709Y-87989476D01*
X116871966Y-87937219D01*
X116871968Y-87937215D01*
X116871971Y-87937213D01*
X116924732Y-87864590D01*
X116992287Y-87771610D01*
X117085220Y-87589219D01*
X117148477Y-87394534D01*
X117180500Y-87192352D01*
X117180500Y-86987648D01*
X117148477Y-86785466D01*
X117085220Y-86590781D01*
X117085218Y-86590778D01*
X117085218Y-86590776D01*
X117051503Y-86524607D01*
X116992287Y-86408390D01*
X116957650Y-86360716D01*
X116871971Y-86242786D01*
X116727213Y-86098028D01*
X116561614Y-85977715D01*
X116555006Y-85974348D01*
X116468917Y-85930483D01*
X116418123Y-85882511D01*
X116401328Y-85814690D01*
X116423865Y-85748555D01*
X116468917Y-85709516D01*
X116561610Y-85662287D01*
X116619518Y-85620215D01*
X116727213Y-85541971D01*
X116727215Y-85541968D01*
X116727219Y-85541966D01*
X116871966Y-85397219D01*
X116871968Y-85397215D01*
X116871971Y-85397213D01*
X116992284Y-85231614D01*
X116992285Y-85231613D01*
X116992287Y-85231610D01*
X117046475Y-85125259D01*
X117094448Y-85074465D01*
X117162269Y-85057670D01*
X117228404Y-85080207D01*
G37*
%TD.AperFunction*%
%TA.AperFunction,Conductor*%
G36*
X140701051Y-75987419D02*
G01*
X142396580Y-77682948D01*
X142396584Y-77682951D01*
X142519498Y-77765080D01*
X142519511Y-77765087D01*
X142639289Y-77814700D01*
X142656087Y-77821658D01*
X142656091Y-77821658D01*
X142656092Y-77821659D01*
X142801079Y-77850500D01*
X142801082Y-77850500D01*
X142948917Y-77850500D01*
X143412770Y-77850500D01*
X143479809Y-77870185D01*
X143500446Y-77886814D01*
X143628182Y-78014549D01*
X143661666Y-78075870D01*
X143664500Y-78102229D01*
X143664500Y-94485799D01*
X143644815Y-94552838D01*
X143592011Y-94598593D01*
X143522853Y-94608537D01*
X143459297Y-94579512D01*
X143422569Y-94524117D01*
X143390102Y-94424197D01*
X143282914Y-94213828D01*
X143222658Y-94130894D01*
X143222658Y-94130893D01*
X142523787Y-94829765D01*
X142512518Y-94787708D01*
X142440110Y-94662292D01*
X142337708Y-94559890D01*
X142212292Y-94487482D01*
X142170234Y-94476212D01*
X142869105Y-93777340D01*
X142869104Y-93777338D01*
X142786174Y-93717087D01*
X142575802Y-93609897D01*
X142351247Y-93536934D01*
X142351248Y-93536934D01*
X142118052Y-93500000D01*
X141881948Y-93500000D01*
X141648752Y-93536934D01*
X141424197Y-93609897D01*
X141213830Y-93717084D01*
X141130894Y-93777340D01*
X141829766Y-94476212D01*
X141787708Y-94487482D01*
X141662292Y-94559890D01*
X141559890Y-94662292D01*
X141487482Y-94787708D01*
X141476212Y-94829766D01*
X140777340Y-94130894D01*
X140717084Y-94213830D01*
X140609897Y-94424197D01*
X140536934Y-94648752D01*
X140500377Y-94879564D01*
X140470448Y-94942699D01*
X140411136Y-94979630D01*
X140341274Y-94978632D01*
X140283041Y-94940022D01*
X140256287Y-94884358D01*
X140251658Y-94861087D01*
X140235974Y-94823223D01*
X140195087Y-94724511D01*
X140195080Y-94724498D01*
X140112952Y-94601585D01*
X140064205Y-94552838D01*
X140008416Y-94497049D01*
X139002804Y-93491437D01*
X138969320Y-93430115D01*
X138974304Y-93360423D01*
X139016176Y-93304490D01*
X139081640Y-93280073D01*
X139109884Y-93281284D01*
X139240679Y-93302000D01*
X139439321Y-93302000D01*
X139635520Y-93270924D01*
X139635523Y-93270924D01*
X139824437Y-93209542D01*
X140001425Y-93119362D01*
X140038715Y-93092268D01*
X139367446Y-92421000D01*
X139390160Y-92421000D01*
X139487061Y-92395036D01*
X139573940Y-92344876D01*
X139644876Y-92273940D01*
X139695036Y-92187061D01*
X139721000Y-92090160D01*
X139721000Y-92067447D01*
X140392268Y-92738715D01*
X140419362Y-92701425D01*
X140509542Y-92524437D01*
X140570924Y-92335523D01*
X140570924Y-92335520D01*
X140602000Y-92139321D01*
X140602000Y-91940678D01*
X140570924Y-91744479D01*
X140570924Y-91744476D01*
X140509542Y-91555562D01*
X140419358Y-91378567D01*
X140392268Y-91341283D01*
X139721000Y-92012551D01*
X139721000Y-91989840D01*
X139695036Y-91892939D01*
X139644876Y-91806060D01*
X139573940Y-91735124D01*
X139487061Y-91684964D01*
X139390160Y-91659000D01*
X139367447Y-91659000D01*
X140038716Y-90987731D01*
X140038715Y-90987730D01*
X140001432Y-90960641D01*
X139844668Y-90880765D01*
X139793872Y-90832790D01*
X139777077Y-90764969D01*
X139799615Y-90698834D01*
X139844667Y-90659796D01*
X140001694Y-90579787D01*
X140162464Y-90462981D01*
X140302981Y-90322464D01*
X140419787Y-90161694D01*
X140510005Y-89984632D01*
X140571413Y-89795636D01*
X140602500Y-89599361D01*
X140602500Y-89400639D01*
X140571413Y-89204364D01*
X140511748Y-89020732D01*
X140510006Y-89015370D01*
X140510005Y-89015367D01*
X140451784Y-88901104D01*
X140419787Y-88838306D01*
X140302981Y-88677536D01*
X140162464Y-88537019D01*
X140001694Y-88420213D01*
X139824632Y-88329994D01*
X139824629Y-88329993D01*
X139635637Y-88268587D01*
X139515220Y-88249515D01*
X139439361Y-88237500D01*
X139240639Y-88237500D01*
X139175214Y-88247862D01*
X139044362Y-88268587D01*
X138855370Y-88329993D01*
X138855367Y-88329994D01*
X138678305Y-88420213D01*
X138517533Y-88537021D01*
X138377020Y-88677534D01*
X138361871Y-88698386D01*
X138306540Y-88741051D01*
X138261553Y-88749500D01*
X135993080Y-88749500D01*
X135848092Y-88778340D01*
X135848086Y-88778342D01*
X135711508Y-88834914D01*
X135711496Y-88834921D01*
X135662269Y-88867813D01*
X135588588Y-88917044D01*
X135588580Y-88917050D01*
X134542451Y-89963181D01*
X134481128Y-89996666D01*
X134454770Y-89999500D01*
X131879245Y-89999500D01*
X131812206Y-89979815D01*
X131766451Y-89927011D01*
X131755561Y-89884346D01*
X131750355Y-89811559D01*
X131727097Y-89732352D01*
X131709819Y-89673508D01*
X131669137Y-89610206D01*
X131632032Y-89552469D01*
X131632028Y-89552465D01*
X131523299Y-89458250D01*
X131523297Y-89458248D01*
X131523294Y-89458246D01*
X131523290Y-89458244D01*
X131392419Y-89398476D01*
X131392414Y-89398475D01*
X131250000Y-89378000D01*
X128125000Y-89378000D01*
X128124997Y-89378000D01*
X128053059Y-89383144D01*
X127915005Y-89423682D01*
X127826884Y-89480315D01*
X127759844Y-89500000D01*
X126150001Y-89500000D01*
X126150001Y-89523322D01*
X126160144Y-89622607D01*
X126213452Y-89783481D01*
X126213457Y-89783492D01*
X126257989Y-89855688D01*
X126276430Y-89923080D01*
X126255508Y-89989743D01*
X126246165Y-90001987D01*
X126224746Y-90026706D01*
X126224745Y-90026707D01*
X126164976Y-90157580D01*
X126164975Y-90157585D01*
X126144500Y-90299999D01*
X126144500Y-91200002D01*
X126149644Y-91271940D01*
X126190182Y-91409994D01*
X126190184Y-91409998D01*
X126256017Y-91512436D01*
X126275702Y-91579475D01*
X126257241Y-91644571D01*
X126213000Y-91716296D01*
X126212996Y-91716305D01*
X126159651Y-91877290D01*
X126149500Y-91976647D01*
X126149500Y-92523337D01*
X126149501Y-92523355D01*
X126159650Y-92622707D01*
X126159651Y-92622710D01*
X126212996Y-92783694D01*
X126213001Y-92783705D01*
X126302029Y-92928040D01*
X126302032Y-92928044D01*
X126421956Y-93047968D01*
X126423576Y-93048967D01*
X126423749Y-93049074D01*
X126424720Y-93050153D01*
X126427623Y-93052449D01*
X126427230Y-93052944D01*
X126470475Y-93101020D01*
X126481699Y-93169983D01*
X126453857Y-93234065D01*
X126446336Y-93242295D01*
X125010933Y-94677697D01*
X124949610Y-94711182D01*
X124879918Y-94706198D01*
X124823985Y-94664326D01*
X124800779Y-94609414D01*
X124800500Y-94607652D01*
X124800500Y-94607648D01*
X124768477Y-94405466D01*
X124705220Y-94210781D01*
X124705218Y-94210778D01*
X124705218Y-94210776D01*
X124664515Y-94130893D01*
X124612287Y-94028390D01*
X124576195Y-93978713D01*
X124491971Y-93862786D01*
X124347213Y-93718028D01*
X124181611Y-93597713D01*
X124088369Y-93550203D01*
X124037574Y-93502229D01*
X124020779Y-93434407D01*
X124043317Y-93368273D01*
X124088371Y-93329234D01*
X124181346Y-93281861D01*
X124181347Y-93281861D01*
X124225921Y-93249474D01*
X123546447Y-92570000D01*
X123552661Y-92570000D01*
X123654394Y-92542741D01*
X123745606Y-92490080D01*
X123820080Y-92415606D01*
X123872741Y-92324394D01*
X123900000Y-92222661D01*
X123900000Y-92216447D01*
X124579474Y-92895921D01*
X124611859Y-92851349D01*
X124704755Y-92669031D01*
X124767990Y-92474417D01*
X124800000Y-92272317D01*
X124800000Y-92067682D01*
X124767990Y-91865582D01*
X124704755Y-91670968D01*
X124611859Y-91488650D01*
X124579474Y-91444077D01*
X124579474Y-91444076D01*
X123900000Y-92123551D01*
X123900000Y-92117339D01*
X123872741Y-92015606D01*
X123820080Y-91924394D01*
X123745606Y-91849920D01*
X123654394Y-91797259D01*
X123552661Y-91770000D01*
X123546446Y-91770000D01*
X124225922Y-91090524D01*
X124225921Y-91090523D01*
X124181359Y-91058147D01*
X124181350Y-91058141D01*
X124088369Y-91010765D01*
X124037573Y-90962790D01*
X124020778Y-90894969D01*
X124043315Y-90828835D01*
X124088370Y-90789795D01*
X124116249Y-90775590D01*
X124181610Y-90742287D01*
X124270796Y-90677490D01*
X124347213Y-90621971D01*
X124347215Y-90621968D01*
X124347219Y-90621966D01*
X124491966Y-90477219D01*
X124491968Y-90477215D01*
X124491971Y-90477213D01*
X124544732Y-90404590D01*
X124612287Y-90311610D01*
X124705220Y-90129219D01*
X124768477Y-89934534D01*
X124800500Y-89732352D01*
X124800500Y-89527648D01*
X124768477Y-89325466D01*
X124763825Y-89311151D01*
X124761832Y-89241312D01*
X124794075Y-89185158D01*
X124958506Y-89020728D01*
X124958511Y-89020724D01*
X124968714Y-89010520D01*
X124968716Y-89010520D01*
X125002559Y-88976677D01*
X126150000Y-88976677D01*
X126150000Y-89000000D01*
X127050000Y-89000000D01*
X127550000Y-89000000D01*
X128449999Y-89000000D01*
X128449999Y-88976692D01*
X128449998Y-88976677D01*
X128439855Y-88877392D01*
X128386547Y-88716518D01*
X128386542Y-88716507D01*
X128297575Y-88572271D01*
X128297572Y-88572267D01*
X128177732Y-88452427D01*
X128177728Y-88452424D01*
X128033492Y-88363457D01*
X128033481Y-88363452D01*
X127872606Y-88310144D01*
X127773322Y-88300000D01*
X127550000Y-88300000D01*
X127550000Y-89000000D01*
X127050000Y-89000000D01*
X127050000Y-88300000D01*
X126826693Y-88300000D01*
X126826676Y-88300001D01*
X126727392Y-88310144D01*
X126566518Y-88363452D01*
X126566507Y-88363457D01*
X126422271Y-88452424D01*
X126422267Y-88452427D01*
X126302427Y-88572267D01*
X126302424Y-88572271D01*
X126213457Y-88716507D01*
X126213452Y-88716518D01*
X126160144Y-88877393D01*
X126150000Y-88976677D01*
X125002559Y-88976677D01*
X125080520Y-88898716D01*
X125146004Y-88785294D01*
X125159577Y-88761785D01*
X125200501Y-88609057D01*
X125200501Y-88450943D01*
X125200501Y-88443348D01*
X125200500Y-88443330D01*
X125200500Y-87168096D01*
X125220185Y-87101057D01*
X125236815Y-87080419D01*
X125834506Y-86482727D01*
X125834511Y-86482724D01*
X125844714Y-86472520D01*
X125844716Y-86472520D01*
X125956520Y-86360716D01*
X126019382Y-86251835D01*
X126035577Y-86223785D01*
X126058421Y-86138527D01*
X126060235Y-86133524D01*
X126072736Y-86116498D01*
X126089129Y-86088104D01*
X134135478Y-78041755D01*
X134196799Y-78008272D01*
X134261473Y-78011506D01*
X134303757Y-78025246D01*
X134513713Y-78058500D01*
X134513714Y-78058500D01*
X134726286Y-78058500D01*
X134726287Y-78058500D01*
X134936243Y-78025246D01*
X135138412Y-77959557D01*
X135327816Y-77863051D01*
X135442098Y-77780021D01*
X135499784Y-77738110D01*
X135499784Y-77738109D01*
X135499792Y-77738104D01*
X135613329Y-77624566D01*
X135674648Y-77591084D01*
X135744340Y-77596068D01*
X135800274Y-77637939D01*
X135817189Y-77668917D01*
X135866202Y-77800328D01*
X135866206Y-77800335D01*
X135952452Y-77915544D01*
X135952455Y-77915547D01*
X136067664Y-78001793D01*
X136067671Y-78001797D01*
X136202517Y-78052091D01*
X136202516Y-78052091D01*
X136209444Y-78052835D01*
X136262127Y-78058500D01*
X138057872Y-78058499D01*
X138117483Y-78052091D01*
X138252331Y-78001796D01*
X138367546Y-77915546D01*
X138453796Y-77800331D01*
X138471200Y-77753666D01*
X138513070Y-77697734D01*
X138578533Y-77673316D01*
X138646206Y-77687841D01*
X138653538Y-77691792D01*
X138678306Y-77709787D01*
X138836606Y-77790445D01*
X138837860Y-77791121D01*
X138861701Y-77814700D01*
X138886127Y-77837769D01*
X138886483Y-77839210D01*
X138887538Y-77840253D01*
X138894852Y-77873002D01*
X138902922Y-77905590D01*
X138902443Y-77906993D01*
X138902767Y-77908442D01*
X138891212Y-77939951D01*
X138880385Y-77971725D01*
X138879177Y-77972771D01*
X138878712Y-77974041D01*
X138870783Y-77980044D01*
X138835332Y-78010764D01*
X138678566Y-78090641D01*
X138641283Y-78117729D01*
X138641282Y-78117730D01*
X139312554Y-78789000D01*
X139289840Y-78789000D01*
X139192939Y-78814964D01*
X139106060Y-78865124D01*
X139035124Y-78936060D01*
X138984964Y-79022939D01*
X138959000Y-79119840D01*
X138959000Y-79142552D01*
X138287730Y-78471282D01*
X138287729Y-78471283D01*
X138260643Y-78508564D01*
X138170457Y-78685562D01*
X138109075Y-78874476D01*
X138109075Y-78874479D01*
X138078000Y-79070678D01*
X138078000Y-79269321D01*
X138109075Y-79465520D01*
X138109075Y-79465523D01*
X138170457Y-79654437D01*
X138260641Y-79831432D01*
X138287730Y-79868715D01*
X138287731Y-79868716D01*
X138959000Y-79197447D01*
X138959000Y-79220160D01*
X138984964Y-79317061D01*
X139035124Y-79403940D01*
X139106060Y-79474876D01*
X139192939Y-79525036D01*
X139289840Y-79551000D01*
X139312553Y-79551000D01*
X138641283Y-80222268D01*
X138641283Y-80222269D01*
X138678567Y-80249358D01*
X138835331Y-80329234D01*
X138886127Y-80377209D01*
X138902922Y-80445030D01*
X138880384Y-80511165D01*
X138835331Y-80550204D01*
X138678305Y-80630213D01*
X138517533Y-80747021D01*
X138377021Y-80887533D01*
X138260213Y-81048305D01*
X138169994Y-81225367D01*
X138169993Y-81225370D01*
X138108587Y-81414362D01*
X138077500Y-81610639D01*
X138077500Y-81809360D01*
X138108587Y-82005637D01*
X138169993Y-82194629D01*
X138169994Y-82194632D01*
X138203549Y-82260486D01*
X138260213Y-82371694D01*
X138377019Y-82532464D01*
X138517536Y-82672981D01*
X138678306Y-82789787D01*
X138723613Y-82812872D01*
X138855367Y-82880005D01*
X138855370Y-82880006D01*
X138949866Y-82910709D01*
X139044364Y-82941413D01*
X139240639Y-82972500D01*
X139240640Y-82972500D01*
X139439360Y-82972500D01*
X139439361Y-82972500D01*
X139635636Y-82941413D01*
X139824632Y-82880005D01*
X140001694Y-82789787D01*
X140162464Y-82672981D01*
X140302981Y-82532464D01*
X140419787Y-82371694D01*
X140510005Y-82194632D01*
X140571413Y-82005636D01*
X140602500Y-81809361D01*
X140602500Y-81610639D01*
X140571413Y-81414364D01*
X140536972Y-81308364D01*
X140510006Y-81225370D01*
X140510005Y-81225367D01*
X140419786Y-81048305D01*
X140397793Y-81018034D01*
X140302981Y-80887536D01*
X140162464Y-80747019D01*
X140001694Y-80630213D01*
X139844667Y-80550203D01*
X139793872Y-80502229D01*
X139777077Y-80434408D01*
X139799614Y-80368273D01*
X139844669Y-80329234D01*
X140001422Y-80249364D01*
X140038716Y-80222268D01*
X139367448Y-79551000D01*
X139390160Y-79551000D01*
X139487061Y-79525036D01*
X139573940Y-79474876D01*
X139644876Y-79403940D01*
X139695036Y-79317061D01*
X139721000Y-79220160D01*
X139721000Y-79197447D01*
X140392268Y-79868715D01*
X140419362Y-79831425D01*
X140509542Y-79654437D01*
X140570924Y-79465523D01*
X140570924Y-79465520D01*
X140602000Y-79269321D01*
X140602000Y-79070678D01*
X140570924Y-78874479D01*
X140570924Y-78874476D01*
X140509542Y-78685562D01*
X140419358Y-78508567D01*
X140392268Y-78471283D01*
X139721000Y-79142551D01*
X139721000Y-79119840D01*
X139695036Y-79022939D01*
X139644876Y-78936060D01*
X139573940Y-78865124D01*
X139487061Y-78814964D01*
X139390160Y-78789000D01*
X139367447Y-78789000D01*
X140038716Y-78117731D01*
X140038715Y-78117730D01*
X140001432Y-78090641D01*
X139844668Y-78010765D01*
X139793872Y-77962790D01*
X139777077Y-77894969D01*
X139799615Y-77828834D01*
X139844667Y-77789796D01*
X140001694Y-77709787D01*
X140162464Y-77592981D01*
X140302981Y-77452464D01*
X140419787Y-77291694D01*
X140510005Y-77114632D01*
X140571413Y-76925636D01*
X140602500Y-76729361D01*
X140602500Y-76530639D01*
X140571413Y-76334364D01*
X140512357Y-76152606D01*
X140510006Y-76145370D01*
X140510001Y-76145358D01*
X140502887Y-76131397D01*
X140489989Y-76062729D01*
X140516264Y-75997988D01*
X140573369Y-75957729D01*
X140643175Y-75954735D01*
X140701051Y-75987419D01*
G37*
%TD.AperFunction*%
%TA.AperFunction,Conductor*%
G36*
X138328592Y-90270185D02*
G01*
X138361869Y-90301612D01*
X138377019Y-90322464D01*
X138517536Y-90462981D01*
X138678306Y-90579787D01*
X138835332Y-90659796D01*
X138886127Y-90707769D01*
X138902922Y-90775590D01*
X138880385Y-90841725D01*
X138835332Y-90880764D01*
X138678566Y-90960641D01*
X138641283Y-90987729D01*
X138641282Y-90987730D01*
X139312554Y-91659000D01*
X139289840Y-91659000D01*
X139192939Y-91684964D01*
X139106060Y-91735124D01*
X139035124Y-91806060D01*
X138984964Y-91892939D01*
X138959000Y-91989840D01*
X138959000Y-92012553D01*
X138287730Y-91341282D01*
X138287729Y-91341283D01*
X138260643Y-91378564D01*
X138170457Y-91555562D01*
X138109075Y-91744476D01*
X138109075Y-91744479D01*
X138078000Y-91940678D01*
X138078000Y-92139322D01*
X138077999Y-92139322D01*
X138098715Y-92270115D01*
X138089760Y-92339408D01*
X138044764Y-92392860D01*
X137978012Y-92413499D01*
X137910699Y-92394774D01*
X137888561Y-92377193D01*
X136383421Y-90872052D01*
X136383414Y-90872046D01*
X136287883Y-90808215D01*
X136287883Y-90808216D01*
X136260495Y-90789916D01*
X136233144Y-90778587D01*
X136133517Y-90737320D01*
X136079114Y-90693479D01*
X136057049Y-90627185D01*
X136074328Y-90559486D01*
X136093285Y-90535082D01*
X136341549Y-90286819D01*
X136402872Y-90253334D01*
X136429230Y-90250500D01*
X138261553Y-90250500D01*
X138328592Y-90270185D01*
G37*
%TD.AperFunction*%
%TA.AperFunction,Conductor*%
G36*
X122351312Y-90296645D02*
G01*
X122407246Y-90338516D01*
X122408247Y-90339873D01*
X122497687Y-90462978D01*
X122508034Y-90477219D01*
X122652786Y-90621971D01*
X122818385Y-90742284D01*
X122818387Y-90742285D01*
X122818390Y-90742287D01*
X122871253Y-90769222D01*
X122911630Y-90789795D01*
X122962426Y-90837770D01*
X122979221Y-90905591D01*
X122956684Y-90971725D01*
X122911630Y-91010765D01*
X122818644Y-91058143D01*
X122774077Y-91090523D01*
X122774077Y-91090524D01*
X123453554Y-91770000D01*
X123447339Y-91770000D01*
X123345606Y-91797259D01*
X123254394Y-91849920D01*
X123179920Y-91924394D01*
X123127259Y-92015606D01*
X123100000Y-92117339D01*
X123100000Y-92123553D01*
X122430458Y-91454011D01*
X122407655Y-91422627D01*
X122369787Y-91348306D01*
X122252981Y-91187536D01*
X122112464Y-91047019D01*
X121951694Y-90930213D01*
X121795218Y-90850484D01*
X121744423Y-90802510D01*
X121727628Y-90734689D01*
X121750165Y-90668554D01*
X121795218Y-90629515D01*
X121951694Y-90549787D01*
X122112464Y-90432981D01*
X122220301Y-90325143D01*
X122281620Y-90291661D01*
X122351312Y-90296645D01*
G37*
%TD.AperFunction*%
%TA.AperFunction,Conductor*%
G36*
X130024309Y-74949685D02*
G01*
X130070064Y-75002489D01*
X130080008Y-75071647D01*
X130050983Y-75135203D01*
X130044958Y-75141673D01*
X129876118Y-75310513D01*
X129848807Y-75337824D01*
X129787484Y-75371309D01*
X129741728Y-75372616D01*
X129646292Y-75357500D01*
X129646287Y-75357500D01*
X129433713Y-75357500D01*
X129385042Y-75365208D01*
X129223760Y-75390753D01*
X129021585Y-75456444D01*
X128832179Y-75552951D01*
X128660213Y-75677890D01*
X128509890Y-75828213D01*
X128384949Y-76000182D01*
X128380202Y-76009499D01*
X128332227Y-76060293D01*
X128264405Y-76077087D01*
X128198271Y-76054548D01*
X128159234Y-76009495D01*
X128154626Y-76000452D01*
X128115270Y-75946282D01*
X128115269Y-75946282D01*
X127482962Y-76578590D01*
X127465925Y-76515007D01*
X127400099Y-76400993D01*
X127307007Y-76307901D01*
X127192993Y-76242075D01*
X127129409Y-76225037D01*
X127761716Y-75592728D01*
X127707550Y-75553375D01*
X127518217Y-75456904D01*
X127316129Y-75391242D01*
X127106246Y-75358000D01*
X126893754Y-75358000D01*
X126683872Y-75391242D01*
X126683869Y-75391242D01*
X126481782Y-75456904D01*
X126292439Y-75553380D01*
X126238282Y-75592727D01*
X126238282Y-75592728D01*
X126870591Y-76225037D01*
X126807007Y-76242075D01*
X126692993Y-76307901D01*
X126599901Y-76400993D01*
X126534075Y-76515007D01*
X126517037Y-76578591D01*
X125884728Y-75946282D01*
X125884727Y-75946282D01*
X125845380Y-76000439D01*
X125748904Y-76189782D01*
X125683242Y-76391869D01*
X125683242Y-76391872D01*
X125650000Y-76601753D01*
X125650000Y-76814246D01*
X125683242Y-77024127D01*
X125683242Y-77024130D01*
X125748904Y-77226217D01*
X125845375Y-77415550D01*
X125884728Y-77469716D01*
X126517037Y-76837408D01*
X126534075Y-76900993D01*
X126599901Y-77015007D01*
X126692993Y-77108099D01*
X126807007Y-77173925D01*
X126870590Y-77190962D01*
X126238282Y-77823269D01*
X126238282Y-77823270D01*
X126292449Y-77862624D01*
X126481782Y-77959095D01*
X126683870Y-78024757D01*
X126893754Y-78058000D01*
X127106246Y-78058000D01*
X127316127Y-78024757D01*
X127316130Y-78024757D01*
X127518217Y-77959095D01*
X127707554Y-77862622D01*
X127761716Y-77823270D01*
X127761717Y-77823270D01*
X127129408Y-77190962D01*
X127192993Y-77173925D01*
X127307007Y-77108099D01*
X127400099Y-77015007D01*
X127465925Y-76900993D01*
X127482962Y-76837408D01*
X128115270Y-77469717D01*
X128115270Y-77469716D01*
X128154622Y-77415555D01*
X128159232Y-77406507D01*
X128207205Y-77355709D01*
X128275025Y-77338912D01*
X128341161Y-77361447D01*
X128380204Y-77406504D01*
X128384949Y-77415817D01*
X128509890Y-77587786D01*
X128660213Y-77738109D01*
X128832179Y-77863048D01*
X128832181Y-77863049D01*
X128832184Y-77863051D01*
X129021588Y-77959557D01*
X129223757Y-78025246D01*
X129433713Y-78058500D01*
X129433714Y-78058500D01*
X129646286Y-78058500D01*
X129646287Y-78058500D01*
X129856243Y-78025246D01*
X130058412Y-77959557D01*
X130247816Y-77863051D01*
X130304792Y-77821656D01*
X130419786Y-77738109D01*
X130419788Y-77738106D01*
X130419792Y-77738104D01*
X130570104Y-77587792D01*
X130570106Y-77587788D01*
X130570109Y-77587786D01*
X130695048Y-77415820D01*
X130695050Y-77415817D01*
X130695051Y-77415816D01*
X130699514Y-77407054D01*
X130747488Y-77356259D01*
X130815308Y-77339463D01*
X130881444Y-77361999D01*
X130920486Y-77407056D01*
X130924951Y-77415820D01*
X131049890Y-77587786D01*
X131200213Y-77738109D01*
X131372179Y-77863048D01*
X131372181Y-77863049D01*
X131372184Y-77863051D01*
X131561588Y-77959557D01*
X131763757Y-78025246D01*
X131973713Y-78058500D01*
X131973714Y-78058500D01*
X132120902Y-78058500D01*
X132187941Y-78078185D01*
X132233696Y-78130989D01*
X132243640Y-78200147D01*
X132214615Y-78263703D01*
X132208583Y-78270181D01*
X124995481Y-85483282D01*
X124995479Y-85483285D01*
X124950015Y-85562031D01*
X124950013Y-85562034D01*
X124945360Y-85570095D01*
X124916423Y-85620215D01*
X124893163Y-85707016D01*
X124890628Y-85713483D01*
X124877791Y-85730046D01*
X124862867Y-85755896D01*
X124521655Y-86097108D01*
X124460332Y-86130593D01*
X124390640Y-86125609D01*
X124351528Y-86100472D01*
X124350915Y-86101191D01*
X124347213Y-86098028D01*
X124181614Y-85977715D01*
X124175006Y-85974348D01*
X124088917Y-85930483D01*
X124038123Y-85882511D01*
X124021328Y-85814690D01*
X124043865Y-85748555D01*
X124088917Y-85709516D01*
X124181610Y-85662287D01*
X124239518Y-85620215D01*
X124347213Y-85541971D01*
X124347215Y-85541968D01*
X124347219Y-85541966D01*
X124491966Y-85397219D01*
X124491968Y-85397215D01*
X124491971Y-85397213D01*
X124597339Y-85252184D01*
X124612287Y-85231610D01*
X124705220Y-85049219D01*
X124768477Y-84854534D01*
X124800500Y-84652352D01*
X124800500Y-84447648D01*
X124768477Y-84245466D01*
X124768476Y-84245464D01*
X124730250Y-84127815D01*
X124705220Y-84050781D01*
X124705218Y-84050778D01*
X124705218Y-84050776D01*
X124671503Y-83984607D01*
X124612287Y-83868390D01*
X124604556Y-83857749D01*
X124491971Y-83702786D01*
X124347213Y-83558028D01*
X124181614Y-83437715D01*
X124175006Y-83434348D01*
X124088917Y-83390483D01*
X124038123Y-83342511D01*
X124021328Y-83274690D01*
X124043865Y-83208555D01*
X124088917Y-83169516D01*
X124181610Y-83122287D01*
X124269607Y-83058354D01*
X124347213Y-83001971D01*
X124347215Y-83001968D01*
X124347219Y-83001966D01*
X124491966Y-82857219D01*
X124491968Y-82857215D01*
X124491971Y-82857213D01*
X124568560Y-82751795D01*
X124612287Y-82691610D01*
X124705220Y-82509219D01*
X124768477Y-82314534D01*
X124800500Y-82112352D01*
X124800500Y-81907648D01*
X124784933Y-81809361D01*
X124768477Y-81705465D01*
X124734881Y-81602068D01*
X124705220Y-81510781D01*
X124705218Y-81510778D01*
X124705218Y-81510776D01*
X124630697Y-81364522D01*
X124612287Y-81328390D01*
X124597737Y-81308364D01*
X124491971Y-81162786D01*
X124347213Y-81018028D01*
X124181614Y-80897715D01*
X124175006Y-80894348D01*
X124088917Y-80850483D01*
X124038123Y-80802511D01*
X124021328Y-80734690D01*
X124043865Y-80668555D01*
X124088917Y-80629516D01*
X124181610Y-80582287D01*
X124225769Y-80550204D01*
X124347213Y-80461971D01*
X124347215Y-80461968D01*
X124347219Y-80461966D01*
X124491966Y-80317219D01*
X124491968Y-80317215D01*
X124491971Y-80317213D01*
X124553434Y-80232615D01*
X124612287Y-80151610D01*
X124705220Y-79969219D01*
X124768477Y-79774534D01*
X124800500Y-79572352D01*
X124800500Y-79367648D01*
X124776222Y-79214364D01*
X124768477Y-79165465D01*
X124739127Y-79075137D01*
X124705220Y-78970781D01*
X124705218Y-78970778D01*
X124705218Y-78970776D01*
X124671503Y-78904607D01*
X124612287Y-78788390D01*
X124573695Y-78735272D01*
X124491971Y-78622786D01*
X124347213Y-78478028D01*
X124181614Y-78357715D01*
X124167424Y-78350485D01*
X124088917Y-78310483D01*
X124038123Y-78262511D01*
X124021328Y-78194690D01*
X124043865Y-78128555D01*
X124088917Y-78089516D01*
X124181610Y-78042287D01*
X124219791Y-78014547D01*
X124347213Y-77921971D01*
X124347215Y-77921968D01*
X124347219Y-77921966D01*
X124491966Y-77777219D01*
X124546385Y-77702318D01*
X124593158Y-77637939D01*
X124612287Y-77611610D01*
X124705220Y-77429219D01*
X124768477Y-77234534D01*
X124800500Y-77032352D01*
X124800500Y-76827648D01*
X124784933Y-76729361D01*
X124768477Y-76625465D01*
X124711296Y-76449481D01*
X124705220Y-76430781D01*
X124705218Y-76430778D01*
X124705218Y-76430776D01*
X124653865Y-76329992D01*
X124612287Y-76248390D01*
X124573695Y-76195272D01*
X124491971Y-76082786D01*
X124347213Y-75938028D01*
X124181614Y-75817715D01*
X124156038Y-75804683D01*
X124026317Y-75738587D01*
X123999223Y-75724781D01*
X123804534Y-75661522D01*
X123629995Y-75633878D01*
X123602352Y-75629500D01*
X123397648Y-75629500D01*
X123373329Y-75633351D01*
X123195465Y-75661522D01*
X123000776Y-75724781D01*
X122818386Y-75817715D01*
X122652786Y-75938028D01*
X122508032Y-76082782D01*
X122508028Y-76082787D01*
X122457302Y-76152606D01*
X122401972Y-76195272D01*
X122332359Y-76201251D01*
X122270564Y-76168645D01*
X122256668Y-76152609D01*
X122252986Y-76147542D01*
X122252982Y-76147537D01*
X122112466Y-76007021D01*
X122112464Y-76007019D01*
X121951694Y-75890213D01*
X121774632Y-75799994D01*
X121774629Y-75799993D01*
X121585637Y-75738587D01*
X121487498Y-75723043D01*
X121389361Y-75707500D01*
X121190639Y-75707500D01*
X121125214Y-75717862D01*
X120994362Y-75738587D01*
X120805370Y-75799993D01*
X120805367Y-75799994D01*
X120628305Y-75890213D01*
X120467533Y-76007021D01*
X120327021Y-76147533D01*
X120210213Y-76308305D01*
X120119994Y-76485367D01*
X120119993Y-76485370D01*
X120058587Y-76674362D01*
X120049876Y-76729360D01*
X120027500Y-76870639D01*
X120027500Y-77069361D01*
X120033636Y-77108099D01*
X120058587Y-77265637D01*
X120119993Y-77454629D01*
X120119994Y-77454632D01*
X120195587Y-77602989D01*
X120210213Y-77631694D01*
X120327019Y-77792464D01*
X120467536Y-77932981D01*
X120628306Y-78049787D01*
X120708486Y-78090641D01*
X120784780Y-78129515D01*
X120835576Y-78177490D01*
X120852371Y-78245311D01*
X120829833Y-78311446D01*
X120784780Y-78350485D01*
X120628305Y-78430213D01*
X120467533Y-78547021D01*
X120327021Y-78687533D01*
X120210213Y-78848305D01*
X120119994Y-79025367D01*
X120119993Y-79025370D01*
X120058587Y-79214362D01*
X120027500Y-79410639D01*
X120027500Y-79609360D01*
X120058587Y-79805637D01*
X120119993Y-79994629D01*
X120119994Y-79994632D01*
X120196133Y-80144061D01*
X120210213Y-80171694D01*
X120327019Y-80332464D01*
X120467536Y-80472981D01*
X120628306Y-80589787D01*
X120706276Y-80629515D01*
X120805367Y-80680005D01*
X120805370Y-80680006D01*
X120899866Y-80710709D01*
X120994364Y-80741413D01*
X121190639Y-80772500D01*
X121190640Y-80772500D01*
X121389360Y-80772500D01*
X121389361Y-80772500D01*
X121585636Y-80741413D01*
X121774632Y-80680005D01*
X121951694Y-80589787D01*
X122112464Y-80472981D01*
X122252981Y-80332464D01*
X122285728Y-80287391D01*
X122341056Y-80244726D01*
X122410669Y-80238747D01*
X122472464Y-80271352D01*
X122486364Y-80287393D01*
X122508030Y-80317215D01*
X122652786Y-80461971D01*
X122807749Y-80574556D01*
X122818390Y-80582287D01*
X122909840Y-80628883D01*
X122911080Y-80629515D01*
X122961876Y-80677490D01*
X122978671Y-80745311D01*
X122956134Y-80811446D01*
X122911080Y-80850485D01*
X122818386Y-80897715D01*
X122652786Y-81018028D01*
X122508028Y-81162786D01*
X122387715Y-81328386D01*
X122294781Y-81510776D01*
X122231522Y-81705465D01*
X122199500Y-81907648D01*
X122199500Y-82112351D01*
X122231522Y-82314534D01*
X122294781Y-82509223D01*
X122387715Y-82691613D01*
X122508028Y-82857213D01*
X122652786Y-83001971D01*
X122807749Y-83114556D01*
X122818390Y-83122287D01*
X122909840Y-83168883D01*
X122911080Y-83169515D01*
X122961876Y-83217490D01*
X122978671Y-83285311D01*
X122956134Y-83351446D01*
X122911080Y-83390485D01*
X122818386Y-83437715D01*
X122652786Y-83558028D01*
X122508028Y-83702786D01*
X122387715Y-83868385D01*
X122380883Y-83881795D01*
X122332909Y-83932591D01*
X122270398Y-83949500D01*
X120350098Y-83949500D01*
X120283059Y-83929815D01*
X120262417Y-83913181D01*
X116867590Y-80518355D01*
X116867586Y-80518351D01*
X116856887Y-80507651D01*
X116836394Y-80470117D01*
X116823406Y-80446332D01*
X116823406Y-80446328D01*
X116823405Y-80446326D01*
X116826411Y-80404313D01*
X116828390Y-80376640D01*
X116828391Y-80376637D01*
X116828392Y-80376635D01*
X116828400Y-80376623D01*
X116856889Y-80332295D01*
X116871966Y-80317219D01*
X116992287Y-80151610D01*
X117085220Y-79969219D01*
X117148477Y-79774534D01*
X117180500Y-79572352D01*
X117180500Y-79367648D01*
X117156222Y-79214364D01*
X117148477Y-79165465D01*
X117119127Y-79075137D01*
X117085220Y-78970781D01*
X117085218Y-78970778D01*
X117085218Y-78970776D01*
X117051503Y-78904607D01*
X116992287Y-78788390D01*
X116953695Y-78735272D01*
X116871971Y-78622786D01*
X116727219Y-78478034D01*
X116717926Y-78471282D01*
X116633547Y-78409978D01*
X116590882Y-78354649D01*
X116584903Y-78285036D01*
X116617508Y-78223240D01*
X116667426Y-78191955D01*
X116749334Y-78164814D01*
X116898656Y-78072712D01*
X117022712Y-77948656D01*
X117114814Y-77799334D01*
X117169999Y-77632797D01*
X117180500Y-77530009D01*
X117180499Y-76329992D01*
X117169999Y-76227203D01*
X117114814Y-76060666D01*
X117022712Y-75911344D01*
X116898656Y-75787288D01*
X116797314Y-75724780D01*
X116749336Y-75695187D01*
X116749331Y-75695185D01*
X116697138Y-75677890D01*
X116582797Y-75640001D01*
X116582795Y-75640000D01*
X116480010Y-75629500D01*
X115279998Y-75629500D01*
X115279981Y-75629501D01*
X115177203Y-75640000D01*
X115177200Y-75640001D01*
X115010668Y-75695185D01*
X115010663Y-75695187D01*
X114861342Y-75787289D01*
X114737289Y-75911342D01*
X114645187Y-76060663D01*
X114645185Y-76060668D01*
X114590000Y-76227204D01*
X114589088Y-76231467D01*
X114555801Y-76292898D01*
X114494586Y-76326581D01*
X114467837Y-76329500D01*
X113580943Y-76329500D01*
X113428213Y-76370423D01*
X113391264Y-76391757D01*
X113391263Y-76391757D01*
X113291287Y-76449477D01*
X113179478Y-76561286D01*
X112734522Y-77006241D01*
X112673199Y-77039726D01*
X112608523Y-77036491D01*
X112566245Y-77022754D01*
X112426272Y-77000584D01*
X112356287Y-76989500D01*
X112143713Y-76989500D01*
X112095042Y-76997208D01*
X111933760Y-77022753D01*
X111731585Y-77088444D01*
X111542179Y-77184951D01*
X111370213Y-77309890D01*
X111219890Y-77460213D01*
X111094951Y-77632179D01*
X110998444Y-77821585D01*
X110998443Y-77821587D01*
X110998443Y-77821588D01*
X110977248Y-77886818D01*
X110932753Y-78023760D01*
X110909820Y-78168554D01*
X110899500Y-78233713D01*
X110899500Y-78446287D01*
X110932754Y-78656243D01*
X110995159Y-78848306D01*
X110998444Y-78858414D01*
X111094951Y-79047820D01*
X111219890Y-79219786D01*
X111370213Y-79370109D01*
X111542182Y-79495050D01*
X111550946Y-79499516D01*
X111601742Y-79547491D01*
X111618536Y-79615312D01*
X111595998Y-79681447D01*
X111550946Y-79720484D01*
X111542182Y-79724949D01*
X111370213Y-79849890D01*
X111219890Y-80000213D01*
X111094951Y-80172179D01*
X110998444Y-80361585D01*
X110932753Y-80563760D01*
X110899500Y-80773713D01*
X110899500Y-80986286D01*
X110932754Y-81196244D01*
X110932754Y-81196247D01*
X110946491Y-81238523D01*
X110948486Y-81308364D01*
X110916241Y-81364522D01*
X110712181Y-81568583D01*
X110650858Y-81602068D01*
X110581167Y-81597084D01*
X110525233Y-81555213D01*
X110500816Y-81489748D01*
X110500500Y-81480902D01*
X110500500Y-75054000D01*
X110520185Y-74986961D01*
X110572989Y-74941206D01*
X110624500Y-74930000D01*
X129957270Y-74930000D01*
X130024309Y-74949685D01*
G37*
%TD.AperFunction*%
%TD*%
M02*
