%TF.GenerationSoftware,KiCad,Pcbnew,10.0.0*%
%TF.CreationDate,2026-05-28T20:35:39+08:00*%
%TF.ProjectId,walk_talk_mint,77616c6b-5f74-4616-9c6b-5f6d696e742e,rev?*%
%TF.SameCoordinates,Original*%
%TF.FileFunction,Legend,Top*%
%TF.FilePolarity,Positive*%
%FSLAX46Y46*%
G04 Gerber Fmt 4.6, Leading zero omitted, Abs format (unit mm)*
G04 Created by KiCad (PCBNEW 10.0.0) date 2026-05-28 20:35:39*
%MOMM*%
%LPD*%
G01*
G04 APERTURE LIST*
%ADD10C,0.150000*%
%ADD11C,0.120000*%
%ADD12C,0.100000*%
%ADD13C,0.000000*%
G04 APERTURE END LIST*
D10*
X118988095Y-81954819D02*
X118988095Y-82764342D01*
X118988095Y-82764342D02*
X119035714Y-82859580D01*
X119035714Y-82859580D02*
X119083333Y-82907200D01*
X119083333Y-82907200D02*
X119178571Y-82954819D01*
X119178571Y-82954819D02*
X119369047Y-82954819D01*
X119369047Y-82954819D02*
X119464285Y-82907200D01*
X119464285Y-82907200D02*
X119511904Y-82859580D01*
X119511904Y-82859580D02*
X119559523Y-82764342D01*
X119559523Y-82764342D02*
X119559523Y-81954819D01*
X119988095Y-82050057D02*
X120035714Y-82002438D01*
X120035714Y-82002438D02*
X120130952Y-81954819D01*
X120130952Y-81954819D02*
X120369047Y-81954819D01*
X120369047Y-81954819D02*
X120464285Y-82002438D01*
X120464285Y-82002438D02*
X120511904Y-82050057D01*
X120511904Y-82050057D02*
X120559523Y-82145295D01*
X120559523Y-82145295D02*
X120559523Y-82240533D01*
X120559523Y-82240533D02*
X120511904Y-82383390D01*
X120511904Y-82383390D02*
X119940476Y-82954819D01*
X119940476Y-82954819D02*
X120559523Y-82954819D01*
X111916666Y-75454819D02*
X111916666Y-76169104D01*
X111916666Y-76169104D02*
X111869047Y-76311961D01*
X111869047Y-76311961D02*
X111773809Y-76407200D01*
X111773809Y-76407200D02*
X111630952Y-76454819D01*
X111630952Y-76454819D02*
X111535714Y-76454819D01*
X112916666Y-76454819D02*
X112345238Y-76454819D01*
X112630952Y-76454819D02*
X112630952Y-75454819D01*
X112630952Y-75454819D02*
X112535714Y-75597676D01*
X112535714Y-75597676D02*
X112440476Y-75692914D01*
X112440476Y-75692914D02*
X112345238Y-75740533D01*
X130452905Y-118310819D02*
X130452905Y-117310819D01*
X130452905Y-117310819D02*
X130691000Y-117310819D01*
X130691000Y-117310819D02*
X130833857Y-117358438D01*
X130833857Y-117358438D02*
X130929095Y-117453676D01*
X130929095Y-117453676D02*
X130976714Y-117548914D01*
X130976714Y-117548914D02*
X131024333Y-117739390D01*
X131024333Y-117739390D02*
X131024333Y-117882247D01*
X131024333Y-117882247D02*
X130976714Y-118072723D01*
X130976714Y-118072723D02*
X130929095Y-118167961D01*
X130929095Y-118167961D02*
X130833857Y-118263200D01*
X130833857Y-118263200D02*
X130691000Y-118310819D01*
X130691000Y-118310819D02*
X130452905Y-118310819D01*
X131976714Y-118310819D02*
X131405286Y-118310819D01*
X131691000Y-118310819D02*
X131691000Y-117310819D01*
X131691000Y-117310819D02*
X131595762Y-117453676D01*
X131595762Y-117453676D02*
X131500524Y-117548914D01*
X131500524Y-117548914D02*
X131405286Y-117596533D01*
X125011819Y-111986404D02*
X125821342Y-111986404D01*
X125821342Y-111986404D02*
X125916580Y-111938785D01*
X125916580Y-111938785D02*
X125964200Y-111891166D01*
X125964200Y-111891166D02*
X126011819Y-111795928D01*
X126011819Y-111795928D02*
X126011819Y-111605452D01*
X126011819Y-111605452D02*
X125964200Y-111510214D01*
X125964200Y-111510214D02*
X125916580Y-111462595D01*
X125916580Y-111462595D02*
X125821342Y-111414976D01*
X125821342Y-111414976D02*
X125011819Y-111414976D01*
X126011819Y-110414976D02*
X126011819Y-110986404D01*
X126011819Y-110700690D02*
X125011819Y-110700690D01*
X125011819Y-110700690D02*
X125154676Y-110795928D01*
X125154676Y-110795928D02*
X125249914Y-110891166D01*
X125249914Y-110891166D02*
X125297533Y-110986404D01*
X139026819Y-115532666D02*
X138550628Y-115865999D01*
X139026819Y-116104094D02*
X138026819Y-116104094D01*
X138026819Y-116104094D02*
X138026819Y-115723142D01*
X138026819Y-115723142D02*
X138074438Y-115627904D01*
X138074438Y-115627904D02*
X138122057Y-115580285D01*
X138122057Y-115580285D02*
X138217295Y-115532666D01*
X138217295Y-115532666D02*
X138360152Y-115532666D01*
X138360152Y-115532666D02*
X138455390Y-115580285D01*
X138455390Y-115580285D02*
X138503009Y-115627904D01*
X138503009Y-115627904D02*
X138550628Y-115723142D01*
X138550628Y-115723142D02*
X138550628Y-116104094D01*
X139026819Y-114580285D02*
X139026819Y-115151713D01*
X139026819Y-114865999D02*
X138026819Y-114865999D01*
X138026819Y-114865999D02*
X138169676Y-114961237D01*
X138169676Y-114961237D02*
X138264914Y-115056475D01*
X138264914Y-115056475D02*
X138312533Y-115151713D01*
X112609580Y-97908666D02*
X112657200Y-97956285D01*
X112657200Y-97956285D02*
X112704819Y-98099142D01*
X112704819Y-98099142D02*
X112704819Y-98194380D01*
X112704819Y-98194380D02*
X112657200Y-98337237D01*
X112657200Y-98337237D02*
X112561961Y-98432475D01*
X112561961Y-98432475D02*
X112466723Y-98480094D01*
X112466723Y-98480094D02*
X112276247Y-98527713D01*
X112276247Y-98527713D02*
X112133390Y-98527713D01*
X112133390Y-98527713D02*
X111942914Y-98480094D01*
X111942914Y-98480094D02*
X111847676Y-98432475D01*
X111847676Y-98432475D02*
X111752438Y-98337237D01*
X111752438Y-98337237D02*
X111704819Y-98194380D01*
X111704819Y-98194380D02*
X111704819Y-98099142D01*
X111704819Y-98099142D02*
X111752438Y-97956285D01*
X111752438Y-97956285D02*
X111800057Y-97908666D01*
X112704819Y-96956285D02*
X112704819Y-97527713D01*
X112704819Y-97241999D02*
X111704819Y-97241999D01*
X111704819Y-97241999D02*
X111847676Y-97337237D01*
X111847676Y-97337237D02*
X111942914Y-97432475D01*
X111942914Y-97432475D02*
X111990533Y-97527713D01*
X127158809Y-101418628D02*
X127158809Y-101894819D01*
X126825476Y-100894819D02*
X127158809Y-101418628D01*
X127158809Y-101418628D02*
X127492142Y-100894819D01*
X128349285Y-101894819D02*
X127777857Y-101894819D01*
X128063571Y-101894819D02*
X128063571Y-100894819D01*
X128063571Y-100894819D02*
X127968333Y-101037676D01*
X127968333Y-101037676D02*
X127873095Y-101132914D01*
X127873095Y-101132914D02*
X127777857Y-101180533D01*
X132588095Y-87719819D02*
X132588095Y-88529342D01*
X132588095Y-88529342D02*
X132635714Y-88624580D01*
X132635714Y-88624580D02*
X132683333Y-88672200D01*
X132683333Y-88672200D02*
X132778571Y-88719819D01*
X132778571Y-88719819D02*
X132969047Y-88719819D01*
X132969047Y-88719819D02*
X133064285Y-88672200D01*
X133064285Y-88672200D02*
X133111904Y-88624580D01*
X133111904Y-88624580D02*
X133159523Y-88529342D01*
X133159523Y-88529342D02*
X133159523Y-87719819D01*
X134064285Y-88053152D02*
X134064285Y-88719819D01*
X133826190Y-87672200D02*
X133588095Y-88386485D01*
X133588095Y-88386485D02*
X134207142Y-88386485D01*
X112627580Y-107548666D02*
X112675200Y-107596285D01*
X112675200Y-107596285D02*
X112722819Y-107739142D01*
X112722819Y-107739142D02*
X112722819Y-107834380D01*
X112722819Y-107834380D02*
X112675200Y-107977237D01*
X112675200Y-107977237D02*
X112579961Y-108072475D01*
X112579961Y-108072475D02*
X112484723Y-108120094D01*
X112484723Y-108120094D02*
X112294247Y-108167713D01*
X112294247Y-108167713D02*
X112151390Y-108167713D01*
X112151390Y-108167713D02*
X111960914Y-108120094D01*
X111960914Y-108120094D02*
X111865676Y-108072475D01*
X111865676Y-108072475D02*
X111770438Y-107977237D01*
X111770438Y-107977237D02*
X111722819Y-107834380D01*
X111722819Y-107834380D02*
X111722819Y-107739142D01*
X111722819Y-107739142D02*
X111770438Y-107596285D01*
X111770438Y-107596285D02*
X111818057Y-107548666D01*
X111818057Y-107167713D02*
X111770438Y-107120094D01*
X111770438Y-107120094D02*
X111722819Y-107024856D01*
X111722819Y-107024856D02*
X111722819Y-106786761D01*
X111722819Y-106786761D02*
X111770438Y-106691523D01*
X111770438Y-106691523D02*
X111818057Y-106643904D01*
X111818057Y-106643904D02*
X111913295Y-106596285D01*
X111913295Y-106596285D02*
X112008533Y-106596285D01*
X112008533Y-106596285D02*
X112151390Y-106643904D01*
X112151390Y-106643904D02*
X112722819Y-107215332D01*
X112722819Y-107215332D02*
X112722819Y-106596285D01*
X130492143Y-74252819D02*
X130492143Y-73252819D01*
X130492143Y-73252819D02*
X130825476Y-73967104D01*
X130825476Y-73967104D02*
X131158809Y-73252819D01*
X131158809Y-73252819D02*
X131158809Y-74252819D01*
X131587381Y-73967104D02*
X132063571Y-73967104D01*
X131492143Y-74252819D02*
X131825476Y-73252819D01*
X131825476Y-73252819D02*
X132158809Y-74252819D01*
X132396905Y-73252819D02*
X133063571Y-74252819D01*
X133063571Y-73252819D02*
X132396905Y-74252819D01*
X133492143Y-74252819D02*
X133682619Y-74252819D01*
X133682619Y-74252819D02*
X133777857Y-74205200D01*
X133777857Y-74205200D02*
X133825476Y-74157580D01*
X133825476Y-74157580D02*
X133920714Y-74014723D01*
X133920714Y-74014723D02*
X133968333Y-73824247D01*
X133968333Y-73824247D02*
X133968333Y-73443295D01*
X133968333Y-73443295D02*
X133920714Y-73348057D01*
X133920714Y-73348057D02*
X133873095Y-73300438D01*
X133873095Y-73300438D02*
X133777857Y-73252819D01*
X133777857Y-73252819D02*
X133587381Y-73252819D01*
X133587381Y-73252819D02*
X133492143Y-73300438D01*
X133492143Y-73300438D02*
X133444524Y-73348057D01*
X133444524Y-73348057D02*
X133396905Y-73443295D01*
X133396905Y-73443295D02*
X133396905Y-73681390D01*
X133396905Y-73681390D02*
X133444524Y-73776628D01*
X133444524Y-73776628D02*
X133492143Y-73824247D01*
X133492143Y-73824247D02*
X133587381Y-73871866D01*
X133587381Y-73871866D02*
X133777857Y-73871866D01*
X133777857Y-73871866D02*
X133873095Y-73824247D01*
X133873095Y-73824247D02*
X133920714Y-73776628D01*
X133920714Y-73776628D02*
X133968333Y-73681390D01*
X134539762Y-73681390D02*
X134444524Y-73633771D01*
X134444524Y-73633771D02*
X134396905Y-73586152D01*
X134396905Y-73586152D02*
X134349286Y-73490914D01*
X134349286Y-73490914D02*
X134349286Y-73443295D01*
X134349286Y-73443295D02*
X134396905Y-73348057D01*
X134396905Y-73348057D02*
X134444524Y-73300438D01*
X134444524Y-73300438D02*
X134539762Y-73252819D01*
X134539762Y-73252819D02*
X134730238Y-73252819D01*
X134730238Y-73252819D02*
X134825476Y-73300438D01*
X134825476Y-73300438D02*
X134873095Y-73348057D01*
X134873095Y-73348057D02*
X134920714Y-73443295D01*
X134920714Y-73443295D02*
X134920714Y-73490914D01*
X134920714Y-73490914D02*
X134873095Y-73586152D01*
X134873095Y-73586152D02*
X134825476Y-73633771D01*
X134825476Y-73633771D02*
X134730238Y-73681390D01*
X134730238Y-73681390D02*
X134539762Y-73681390D01*
X134539762Y-73681390D02*
X134444524Y-73729009D01*
X134444524Y-73729009D02*
X134396905Y-73776628D01*
X134396905Y-73776628D02*
X134349286Y-73871866D01*
X134349286Y-73871866D02*
X134349286Y-74062342D01*
X134349286Y-74062342D02*
X134396905Y-74157580D01*
X134396905Y-74157580D02*
X134444524Y-74205200D01*
X134444524Y-74205200D02*
X134539762Y-74252819D01*
X134539762Y-74252819D02*
X134730238Y-74252819D01*
X134730238Y-74252819D02*
X134825476Y-74205200D01*
X134825476Y-74205200D02*
X134873095Y-74157580D01*
X134873095Y-74157580D02*
X134920714Y-74062342D01*
X134920714Y-74062342D02*
X134920714Y-73871866D01*
X134920714Y-73871866D02*
X134873095Y-73776628D01*
X134873095Y-73776628D02*
X134825476Y-73729009D01*
X134825476Y-73729009D02*
X134730238Y-73681390D01*
X135873095Y-74252819D02*
X135301667Y-74252819D01*
X135587381Y-74252819D02*
X135587381Y-73252819D01*
X135587381Y-73252819D02*
X135492143Y-73395676D01*
X135492143Y-73395676D02*
X135396905Y-73490914D01*
X135396905Y-73490914D02*
X135301667Y-73538533D01*
X136730238Y-73586152D02*
X136730238Y-74252819D01*
X136492143Y-73205200D02*
X136254048Y-73919485D01*
X136254048Y-73919485D02*
X136873095Y-73919485D01*
%TO.C,U2*%
D11*
X117040000Y-75600000D02*
X117040000Y-111280000D01*
X117040000Y-111280000D02*
X122340000Y-111280000D01*
X120880000Y-75600000D02*
X117040000Y-75600000D01*
X122340000Y-75600000D02*
X120690000Y-75600000D01*
X122340000Y-111280000D02*
X122340000Y-75600000D01*
D12*
X118380000Y-76430000D02*
G75*
G02*
X117380000Y-76430000I-500000J0D01*
G01*
X117380000Y-76430000D02*
G75*
G02*
X118380000Y-76430000I500000J0D01*
G01*
%TO.C,J1*%
D11*
X110920000Y-89770000D02*
X110920000Y-77010000D01*
X110920000Y-92370000D02*
X110920000Y-91040000D01*
X112250000Y-92370000D02*
X110920000Y-92370000D01*
X113580000Y-77010000D02*
X110920000Y-77010000D01*
X113580000Y-89770000D02*
X110920000Y-89770000D01*
X113580000Y-89770000D02*
X113580000Y-77010000D01*
%TO.C,D1*%
X131716000Y-115321000D02*
X131716000Y-112671000D01*
X134476000Y-112671000D02*
X131716000Y-112671000D01*
X134476000Y-115321000D02*
X131716000Y-115321000D01*
X134476000Y-115321000D02*
X134476000Y-112671000D01*
X134476000Y-116591000D02*
X134476000Y-117971000D01*
X134476000Y-117971000D02*
X133096000Y-117971000D01*
%TO.C,U1*%
X110602000Y-112700000D02*
X126052000Y-112700000D01*
X110602000Y-119300000D02*
X110602000Y-112700000D01*
D13*
X114808000Y-113030000D02*
X114807999Y-113030000D01*
X114807999Y-113030000D01*
X114807999Y-113030000D01*
X114807999Y-113030000D01*
X114807999Y-113030000D01*
X114807999Y-113030000D01*
X114807999Y-113030000D01*
X114807999Y-113029999D01*
X114807999Y-113029999D01*
X114807999Y-113029999D01*
X114807999Y-113029999D01*
X114807999Y-113029999D01*
X114808000Y-113029999D01*
X114808000Y-113029999D01*
X114808000Y-113029999D01*
X114808000Y-113029999D01*
X114808000Y-113029999D01*
X114808000Y-113029999D01*
X114808000Y-113029999D01*
X114808000Y-113029999D01*
X114808000Y-113029999D01*
X114808000Y-113029999D01*
X114808000Y-113029999D01*
X114808000Y-113029999D01*
X114808001Y-113029999D01*
X114808001Y-113029999D01*
X114808001Y-113029999D01*
X114808001Y-113029999D01*
X114808001Y-113029999D01*
X114808001Y-113029999D01*
X114808001Y-113030000D01*
X114808001Y-113030000D01*
X114808001Y-113030000D01*
X114808001Y-113030000D01*
X114808001Y-113030000D01*
X114808001Y-113030000D01*
X114808001Y-113030000D01*
X114808000Y-113030000D01*
X114808000Y-113030000D02*
X114808001Y-113030000D01*
X114808001Y-113030000D01*
X114808001Y-113030000D01*
X114808001Y-113030000D01*
X114808001Y-113030000D01*
X114808001Y-113030000D01*
X114808001Y-113030001D01*
X114808001Y-113030001D01*
X114808001Y-113030001D01*
X114808001Y-113030001D01*
X114808001Y-113030001D01*
X114808001Y-113030001D01*
X114808001Y-113030001D01*
X114808000Y-113030001D01*
X114808000Y-113030001D01*
X114808000Y-113030001D01*
X114808000Y-113030001D01*
X114808000Y-113030001D01*
X114808000Y-113030001D01*
X114808000Y-113030001D01*
X114808000Y-113030001D01*
X114808000Y-113030001D01*
X114808000Y-113030001D01*
X114808000Y-113030001D01*
X114808000Y-113030001D01*
X114807999Y-113030001D01*
X114807999Y-113030001D01*
X114807999Y-113030001D01*
X114807999Y-113030001D01*
X114807999Y-113030001D01*
X114807999Y-113030001D01*
X114807999Y-113030000D01*
X114807999Y-113030000D01*
X114807999Y-113030000D01*
X114807999Y-113030000D01*
X114807999Y-113030000D01*
X114807999Y-113030000D01*
X114808000Y-113030000D01*
D11*
X114808000Y-113030000D02*
X125476000Y-113030000D01*
X114808000Y-118364000D02*
X114808000Y-113030000D01*
D13*
X125476000Y-113030000D02*
X125475999Y-113030000D01*
X125475999Y-113030000D01*
X125475999Y-113030000D01*
X125475999Y-113030000D01*
X125475999Y-113030000D01*
X125475999Y-113030000D01*
X125475999Y-113030000D01*
X125475999Y-113029999D01*
X125475999Y-113029999D01*
X125475999Y-113029999D01*
X125475999Y-113029999D01*
X125475999Y-113029999D01*
X125476000Y-113029999D01*
X125476000Y-113029999D01*
X125476000Y-113029999D01*
X125476000Y-113029999D01*
X125476000Y-113029999D01*
X125476000Y-113029999D01*
X125476000Y-113029999D01*
X125476000Y-113029999D01*
X125476000Y-113029999D01*
X125476000Y-113029999D01*
X125476000Y-113029999D01*
X125476000Y-113029999D01*
X125476001Y-113029999D01*
X125476001Y-113029999D01*
X125476001Y-113029999D01*
X125476001Y-113029999D01*
X125476001Y-113029999D01*
X125476001Y-113029999D01*
X125476001Y-113030000D01*
X125476001Y-113030000D01*
X125476001Y-113030000D01*
X125476001Y-113030000D01*
X125476001Y-113030000D01*
X125476001Y-113030000D01*
X125476001Y-113030000D01*
X125476000Y-113030000D01*
X125476000Y-113030000D02*
X125476001Y-113030000D01*
X125476001Y-113030000D01*
X125476001Y-113030000D01*
X125476001Y-113030000D01*
X125476001Y-113030000D01*
X125476001Y-113030000D01*
X125476001Y-113030001D01*
X125476001Y-113030001D01*
X125476001Y-113030001D01*
X125476001Y-113030001D01*
X125476001Y-113030001D01*
X125476001Y-113030001D01*
X125476001Y-113030001D01*
X125476000Y-113030001D01*
X125476000Y-113030001D01*
X125476000Y-113030001D01*
X125476000Y-113030001D01*
X125476000Y-113030001D01*
X125476000Y-113030001D01*
X125476000Y-113030001D01*
X125476000Y-113030001D01*
X125476000Y-113030001D01*
X125476000Y-113030001D01*
X125476000Y-113030001D01*
X125476000Y-113030001D01*
X125475999Y-113030001D01*
X125475999Y-113030001D01*
X125475999Y-113030001D01*
X125475999Y-113030001D01*
X125475999Y-113030001D01*
X125475999Y-113030001D01*
X125475999Y-113030000D01*
X125475999Y-113030000D01*
X125475999Y-113030000D01*
X125475999Y-113030000D01*
X125475999Y-113030000D01*
X125475999Y-113030000D01*
X125476000Y-113030000D01*
D11*
X125476000Y-113030000D02*
X125476000Y-118364000D01*
X125476000Y-118364000D02*
X114808000Y-118364000D01*
D13*
X126052000Y-112700000D02*
X126051999Y-112700000D01*
X126051999Y-112700000D01*
X126051999Y-112700000D01*
X126051999Y-112700000D01*
X126051999Y-112700000D01*
X126051999Y-112700000D01*
X126051999Y-112700000D01*
X126051999Y-112699999D01*
X126051999Y-112699999D01*
X126051999Y-112699999D01*
X126051999Y-112699999D01*
X126051999Y-112699999D01*
X126052000Y-112699999D01*
X126052000Y-112699999D01*
X126052000Y-112699999D01*
X126052000Y-112699999D01*
X126052000Y-112699999D01*
X126052000Y-112699999D01*
X126052000Y-112699999D01*
X126052000Y-112699999D01*
X126052000Y-112699999D01*
X126052000Y-112699999D01*
X126052000Y-112699999D01*
X126052000Y-112699999D01*
X126052001Y-112699999D01*
X126052001Y-112699999D01*
X126052001Y-112699999D01*
X126052001Y-112699999D01*
X126052001Y-112699999D01*
X126052001Y-112699999D01*
X126052001Y-112700000D01*
X126052001Y-112700000D01*
X126052001Y-112700000D01*
X126052001Y-112700000D01*
X126052001Y-112700000D01*
X126052001Y-112700000D01*
X126052001Y-112700000D01*
X126052000Y-112700000D01*
X126052000Y-112700000D02*
X126052001Y-112700000D01*
X126052001Y-112700000D01*
X126052001Y-112700000D01*
X126052001Y-112700000D01*
X126052001Y-112700000D01*
X126052001Y-112700000D01*
X126052001Y-112700001D01*
X126052001Y-112700001D01*
X126052001Y-112700001D01*
X126052001Y-112700001D01*
X126052001Y-112700001D01*
X126052001Y-112700001D01*
X126052001Y-112700001D01*
X126052000Y-112700001D01*
X126052000Y-112700001D01*
X126052000Y-112700001D01*
X126052000Y-112700001D01*
X126052000Y-112700001D01*
X126052000Y-112700001D01*
X126052000Y-112700001D01*
X126052000Y-112700001D01*
X126052000Y-112700001D01*
X126052000Y-112700001D01*
X126052000Y-112700001D01*
X126052000Y-112700001D01*
X126051999Y-112700001D01*
X126051999Y-112700001D01*
X126051999Y-112700001D01*
X126051999Y-112700001D01*
X126051999Y-112700001D01*
X126051999Y-112700001D01*
X126051999Y-112700000D01*
X126051999Y-112700000D01*
X126051999Y-112700000D01*
X126051999Y-112700000D01*
X126051999Y-112700000D01*
X126051999Y-112700000D01*
X126052000Y-112700000D01*
D11*
X126052000Y-112700000D02*
X126052000Y-119300000D01*
X126052000Y-119287500D02*
X110602000Y-119287500D01*
X123952000Y-112500000D02*
X123712000Y-112164000D01*
X124192000Y-112164000D01*
X123952000Y-112500000D01*
G36*
X123952000Y-112500000D02*
G01*
X123712000Y-112164000D01*
X124192000Y-112164000D01*
X123952000Y-112500000D01*
G37*
%TO.C,R1*%
X136652000Y-115016000D02*
X136652000Y-115636000D01*
X137572000Y-114096000D02*
G75*
G02*
X135732000Y-114096000I-920000J0D01*
G01*
X135732000Y-114096000D02*
G75*
G02*
X137572000Y-114096000I920000J0D01*
G01*
%TO.C,C1*%
X112250000Y-95032000D02*
X112250000Y-95722000D01*
X112250000Y-100452000D02*
X112250000Y-99762000D01*
X110830000Y-95722000D02*
X113670000Y-95722000D01*
X113670000Y-99762000D01*
X110830000Y-99762000D01*
X110830000Y-95722000D01*
%TO.C,Y1*%
X126255000Y-97790000D02*
X126255000Y-95140000D01*
X129015000Y-95140000D02*
X126255000Y-95140000D01*
X129015000Y-97790000D02*
X126255000Y-97790000D01*
X129015000Y-97790000D02*
X129015000Y-95140000D01*
X129015000Y-99060000D02*
X129015000Y-100440000D01*
X129015000Y-100440000D02*
X127635000Y-100440000D01*
%TO.C,U4*%
X128030000Y-88390000D02*
X130610000Y-88390000D01*
X130610000Y-89370000D02*
X130610000Y-88390000D01*
X130610000Y-92130000D02*
X130610000Y-93110000D01*
X130610000Y-93110000D02*
X127890000Y-93110000D01*
X127480000Y-88540000D02*
X127240000Y-88210000D01*
X127720000Y-88210000D01*
X127480000Y-88540000D01*
G36*
X127480000Y-88540000D02*
G01*
X127240000Y-88210000D01*
X127720000Y-88210000D01*
X127480000Y-88540000D01*
G37*
%TO.C,C2*%
X112268000Y-104672000D02*
X112268000Y-105362000D01*
X112268000Y-110092000D02*
X112268000Y-109402000D01*
X110848000Y-105362000D02*
X113688000Y-105362000D01*
X113688000Y-109402000D01*
X110848000Y-109402000D01*
X110848000Y-105362000D01*
%TO.C,MAX9814*%
X125670000Y-75378000D02*
X125670000Y-78038000D01*
X135890000Y-75378000D02*
X125670000Y-75378000D01*
X135890000Y-75378000D02*
X135890000Y-78038000D01*
X135890000Y-78038000D02*
X125670000Y-78038000D01*
X138490000Y-76708000D02*
X138490000Y-78038000D01*
X138490000Y-78038000D02*
X137160000Y-78038000D01*
%TD*%
M02*
