%TF.GenerationSoftware,KiCad,Pcbnew,10.0.0*%
%TF.CreationDate,2026-05-28T20:35:40+08:00*%
%TF.ProjectId,walk_talk_mint,77616c6b-5f74-4616-9c6b-5f6d696e742e,rev?*%
%TF.SameCoordinates,Original*%
%TF.FileFunction,Soldermask,Top*%
%TF.FilePolarity,Negative*%
%FSLAX46Y46*%
G04 Gerber Fmt 4.6, Leading zero omitted, Abs format (unit mm)*
G04 Created by KiCad (PCBNEW 10.0.0) date 2026-05-28 20:35:40*
%MOMM*%
%LPD*%
G01*
G04 APERTURE LIST*
G04 Aperture macros list*
%AMRoundRect*
0 Rectangle with rounded corners*
0 $1 Rounding radius*
0 $2 $3 $4 $5 $6 $7 $8 $9 X,Y pos of 4 corners*
0 Add a 4 corners polygon primitive as box body*
4,1,4,$2,$3,$4,$5,$6,$7,$8,$9,$2,$3,0*
0 Add four circle primitives for the rounded corners*
1,1,$1+$1,$2,$3*
1,1,$1+$1,$4,$5*
1,1,$1+$1,$6,$7*
1,1,$1+$1,$8,$9*
0 Add four rect primitives between the rounded corners*
20,1,$1+$1,$2,$3,$4,$5,0*
20,1,$1+$1,$4,$5,$6,$7,0*
20,1,$1+$1,$6,$7,$8,$9,0*
20,1,$1+$1,$8,$9,$2,$3,0*%
%AMFreePoly0*
4,1,9,3.862500,-0.866500,0.737500,-0.866500,0.737500,-0.450000,-0.737500,-0.450000,-0.737500,0.450000,0.737500,0.450000,0.737500,0.866500,3.862500,0.866500,3.862500,-0.866500,3.862500,-0.866500,$1*%
G04 Aperture macros list end*
%ADD10RoundRect,0.250000X-0.550000X-0.550000X0.550000X-0.550000X0.550000X0.550000X-0.550000X0.550000X0*%
%ADD11C,1.600000*%
%ADD12R,1.700000X1.700000*%
%ADD13C,1.700000*%
%ADD14C,1.400000*%
%ADD15RoundRect,0.225000X-0.425000X-0.225000X0.425000X-0.225000X0.425000X0.225000X-0.425000X0.225000X0*%
%ADD16FreePoly0,0.000000*%
%ADD17R,2.800000X2.800000*%
%ADD18C,2.000000*%
%ADD19C,1.524000*%
G04 APERTURE END LIST*
D10*
%TO.C,U2*%
X115880000Y-76930000D03*
D11*
X115880000Y-79470000D03*
X115880000Y-82010000D03*
X115880000Y-84550000D03*
X115880000Y-87090000D03*
X115880000Y-89630000D03*
X115880000Y-92170000D03*
X115880000Y-94710000D03*
X115880000Y-97250000D03*
X115880000Y-99790000D03*
X115880000Y-102330000D03*
X115880000Y-104870000D03*
X115880000Y-107410000D03*
X115880000Y-109950000D03*
X123500000Y-109950000D03*
X123500000Y-107410000D03*
X123500000Y-104870000D03*
X123500000Y-102330000D03*
X123500000Y-99790000D03*
X123500000Y-97250000D03*
X123500000Y-94710000D03*
X123500000Y-92170000D03*
X123500000Y-89630000D03*
X123500000Y-87090000D03*
X123500000Y-84550000D03*
X123500000Y-82010000D03*
X123500000Y-79470000D03*
X123500000Y-76930000D03*
%TD*%
D12*
%TO.C,J1*%
X112250000Y-91040000D03*
D13*
X112250000Y-88500000D03*
X112250000Y-85960000D03*
X112250000Y-83420000D03*
X112250000Y-80880000D03*
X112250000Y-78340000D03*
%TD*%
D12*
%TO.C,D1*%
X133096000Y-116591000D03*
D13*
X133096000Y-114051000D03*
%TD*%
D12*
%TO.C,U1*%
X123952000Y-114300000D03*
D13*
X123952000Y-116840000D03*
X121412000Y-114300000D03*
X121412000Y-116840000D03*
X118872000Y-114300000D03*
X118872000Y-116840000D03*
X116332000Y-114300000D03*
X116332000Y-116840000D03*
%TD*%
D14*
%TO.C,R1*%
X136652000Y-114096000D03*
X136652000Y-116636000D03*
%TD*%
D11*
%TO.C,C1*%
X112250000Y-93992000D03*
X112250000Y-101492000D03*
%TD*%
D12*
%TO.C,Y1*%
X127635000Y-99060000D03*
D13*
X127635000Y-96520000D03*
%TD*%
D15*
%TO.C,U4*%
X127300000Y-89250000D03*
D16*
X127387500Y-90750000D03*
D15*
X127300000Y-92250000D03*
%TD*%
D11*
%TO.C,C2*%
X112268000Y-103632000D03*
X112268000Y-111132000D03*
%TD*%
D12*
%TO.C,MAX9814*%
X137160000Y-76708000D03*
D13*
X134620000Y-76708000D03*
X132080000Y-76708000D03*
X129540000Y-76708000D03*
X127000000Y-76708000D03*
%TD*%
D17*
%TO.C,U5*%
X142565000Y-128905000D03*
X128365000Y-128905000D03*
X142565000Y-106005000D03*
X128065000Y-106005000D03*
X139065000Y-106005000D03*
X131465000Y-106005000D03*
%TD*%
D18*
%TO.C,SW1*%
X135500000Y-99500000D03*
X142000000Y-99500000D03*
X135500000Y-95000000D03*
X142000000Y-95000000D03*
%TD*%
D19*
%TO.C,U3*%
X139340000Y-76630000D03*
X139340000Y-79170000D03*
X139340000Y-81710000D03*
X139340000Y-89500000D03*
X139340000Y-92040000D03*
X121290000Y-92010000D03*
X121290000Y-89470000D03*
X121290000Y-79510000D03*
X121290000Y-76970000D03*
%TD*%
M02*
