%TF.GenerationSoftware,KiCad,Pcbnew,10.0.0*%
%TF.CreationDate,2026-05-28T20:35:39+08:00*%
%TF.ProjectId,walk_talk_mint,77616c6b-5f74-4616-9c6b-5f6d696e742e,rev?*%
%TF.SameCoordinates,Original*%
%TF.FileFunction,Copper,L2,Bot*%
%TF.FilePolarity,Positive*%
%FSLAX46Y46*%
G04 Gerber Fmt 4.6, Leading zero omitted, Abs format (unit mm)*
G04 Created by KiCad (PCBNEW 10.0.0) date 2026-05-28 20:35:39*
%MOMM*%
%LPD*%
G01*
G04 APERTURE LIST*
G04 Aperture macros list*
%AMRoundRect*
0 Rectangle with rounded corners*
0 $1 Rounding radius*
0 $2 $3 $4 $5 $6 $7 $8 $9 X,Y pos of 4 corners*
0 Add a 4 corners polygon primitive as box body*
4,1,4,$2,$3,$4,$5,$6,$7,$8,$9,$2,$3,0*
0 Add four circle primitives for the rounded corners*
1,1,$1+$1,$2,$3*
1,1,$1+$1,$4,$5*
1,1,$1+$1,$6,$7*
1,1,$1+$1,$8,$9*
0 Add four rect primitives between the rounded corners*
20,1,$1+$1,$2,$3,$4,$5,0*
20,1,$1+$1,$4,$5,$6,$7,0*
20,1,$1+$1,$6,$7,$8,$9,0*
20,1,$1+$1,$8,$9,$2,$3,0*%
G04 Aperture macros list end*
%TA.AperFunction,ComponentPad*%
%ADD10RoundRect,0.250000X-0.550000X-0.550000X0.550000X-0.550000X0.550000X0.550000X-0.550000X0.550000X0*%
%TD*%
%TA.AperFunction,ComponentPad*%
%ADD11C,1.600000*%
%TD*%
%TA.AperFunction,ComponentPad*%
%ADD12R,1.700000X1.700000*%
%TD*%
%TA.AperFunction,ComponentPad*%
%ADD13C,1.700000*%
%TD*%
%TA.AperFunction,ComponentPad*%
%ADD14C,1.400000*%
%TD*%
%TA.AperFunction,ComponentPad*%
%ADD15R,2.800000X2.800000*%
%TD*%
%TA.AperFunction,ComponentPad*%
%ADD16C,2.000000*%
%TD*%
%TA.AperFunction,ComponentPad*%
%ADD17C,1.524000*%
%TD*%
%TA.AperFunction,Conductor*%
%ADD18C,0.200000*%
%TD*%
%TA.AperFunction,Conductor*%
%ADD19C,0.500000*%
%TD*%
G04 APERTURE END LIST*
D10*
%TO.P,U2,1,~{RESET}/PC6_1*%
%TO.N,/RST*%
X115880000Y-76930000D03*
D11*
%TO.P,U2,2,PD0_2*%
%TO.N,Net-(U2-PD0)*%
X115880000Y-79470000D03*
%TO.P,U2,3,PD1_3*%
%TO.N,Net-(U2-PD1)*%
X115880000Y-82010000D03*
%TO.P,U2,4,PD2_4*%
%TO.N,unconnected-(U2-PD2-Pad4)*%
X115880000Y-84550000D03*
%TO.P,U2,5,PD3_5*%
%TO.N,unconnected-(U2-PD3-Pad5)*%
X115880000Y-87090000D03*
%TO.P,U2,6,PD4_6*%
%TO.N,unconnected-(U2-PD4-Pad6)*%
X115880000Y-89630000D03*
%TO.P,U2,7,VCC_7*%
%TO.N,+3V3*%
X115880000Y-92170000D03*
%TO.P,U2,8,GND_8*%
%TO.N,GND*%
X115880000Y-94710000D03*
%TO.P,U2,9,XTAL1/PB6_9*%
%TO.N,Net-(U2-XTAL1{slash}PB6)*%
X115880000Y-97250000D03*
%TO.P,U2,10,XTAL2/PB7_10*%
%TO.N,Net-(U2-XTAL2{slash}PB7)*%
X115880000Y-99790000D03*
%TO.P,U2,11,PD5_11*%
%TO.N,unconnected-(U2-PD5-Pad11)*%
X115880000Y-102330000D03*
%TO.P,U2,12,PD6_12*%
%TO.N,unconnected-(U2-PD6-Pad12)*%
X115880000Y-104870000D03*
%TO.P,U2,13,PD7_13*%
%TO.N,unconnected-(U2-PD7-Pad13)*%
X115880000Y-107410000D03*
%TO.P,U2,14,PB0_14*%
%TO.N,unconnected-(U2-PB0-Pad14)*%
X115880000Y-109950000D03*
%TO.P,U2,15,PB1_15*%
%TO.N,unconnected-(U2-PB1-Pad15)*%
X123500000Y-109950000D03*
%TO.P,U2,16,PB2_16*%
%TO.N,unconnected-(U2-PB2-Pad16)*%
X123500000Y-107410000D03*
%TO.P,U2,17,PB3_17*%
%TO.N,/MOSI*%
X123500000Y-104870000D03*
%TO.P,U2,18,PB4_18*%
%TO.N,/MISO*%
X123500000Y-102330000D03*
%TO.P,U2,19,PB5_19*%
%TO.N,/SCK*%
X123500000Y-99790000D03*
%TO.P,U2,20,AVCC_20*%
%TO.N,+3V3*%
X123500000Y-97250000D03*
%TO.P,U2,21,AREF_21*%
%TO.N,unconnected-(U2-AREF-Pad21)*%
X123500000Y-94710000D03*
%TO.P,U2,22,GND_22*%
%TO.N,GND*%
X123500000Y-92170000D03*
%TO.P,U2,23,PC0_23*%
%TO.N,/A0*%
X123500000Y-89630000D03*
%TO.P,U2,24,PC1_24*%
%TO.N,/CE*%
X123500000Y-87090000D03*
%TO.P,U2,25,PC2_25*%
%TO.N,/CSN*%
X123500000Y-84550000D03*
%TO.P,U2,26,PC3_26*%
%TO.N,/OUT*%
X123500000Y-82010000D03*
%TO.P,U2,27,PC4_27*%
%TO.N,unconnected-(U2-PC4-Pad27)*%
X123500000Y-79470000D03*
%TO.P,U2,28,PC5_28*%
%TO.N,unconnected-(U2-PC5-Pad28)*%
X123500000Y-76930000D03*
%TD*%
D12*
%TO.P,J1,1,Pin_1_1*%
%TO.N,/MOSI*%
X112250000Y-91040000D03*
D13*
%TO.P,J1,2,Pin_2_2*%
%TO.N,/MISO*%
X112250000Y-88500000D03*
%TO.P,J1,3,Pin_3_3*%
%TO.N,/SCK*%
X112250000Y-85960000D03*
%TO.P,J1,4,Pin_4_4*%
%TO.N,/CE*%
X112250000Y-83420000D03*
%TO.P,J1,5,Pin_5_5*%
%TO.N,/CSN*%
X112250000Y-80880000D03*
%TO.P,J1,6,Pin_6_6*%
%TO.N,/RST*%
X112250000Y-78340000D03*
%TD*%
D12*
%TO.P,D1,1,K_1*%
%TO.N,GND*%
X133096000Y-116591000D03*
D13*
%TO.P,D1,2,A_2*%
%TO.N,Net-(D1-A)*%
X133096000Y-114051000D03*
%TD*%
D12*
%TO.P,U1,1,GND_1*%
%TO.N,GND*%
X123952000Y-114300000D03*
D13*
%TO.P,U1,2,VCC_2*%
%TO.N,+3V3*%
X123952000Y-116840000D03*
%TO.P,U1,3,CE_3*%
%TO.N,/CE*%
X121412000Y-114300000D03*
%TO.P,U1,4,~{CSN}_4*%
%TO.N,/CSN*%
X121412000Y-116840000D03*
%TO.P,U1,5,SCK_5*%
%TO.N,/SCK*%
X118872000Y-114300000D03*
%TO.P,U1,6,MOSI_6*%
%TO.N,/MOSI*%
X118872000Y-116840000D03*
%TO.P,U1,7,MISO_7*%
%TO.N,/MISO*%
X116332000Y-114300000D03*
%TO.P,U1,8,IRQ_8*%
%TO.N,unconnected-(U1-IRQ-Pad8)*%
X116332000Y-116840000D03*
%TD*%
D14*
%TO.P,R1,1*%
%TO.N,Net-(U2-PD0)*%
X136652000Y-114096000D03*
%TO.P,R1,2*%
%TO.N,Net-(D1-A)*%
X136652000Y-116636000D03*
%TD*%
D11*
%TO.P,C1,1*%
%TO.N,Net-(U2-XTAL2{slash}PB7)*%
X112250000Y-93992000D03*
%TO.P,C1,2*%
%TO.N,GND*%
X112250000Y-101492000D03*
%TD*%
D12*
%TO.P,Y1,1,1_1*%
%TO.N,Net-(U2-XTAL2{slash}PB7)*%
X127635000Y-99060000D03*
D13*
%TO.P,Y1,2,2_2*%
%TO.N,Net-(U2-XTAL1{slash}PB6)*%
X127635000Y-96520000D03*
%TD*%
D11*
%TO.P,C2,1*%
%TO.N,GND*%
X112268000Y-103632000D03*
%TO.P,C2,2*%
%TO.N,Net-(U2-XTAL1{slash}PB6)*%
X112268000Y-111132000D03*
%TD*%
D12*
%TO.P,MAX9814,1,AR_1*%
%TO.N,unconnected-(MAX9814-AR-Pad1)*%
X137160000Y-76708000D03*
D13*
%TO.P,MAX9814,2,OUT_2*%
%TO.N,/A0*%
X134620000Y-76708000D03*
%TO.P,MAX9814,3,Gain_3*%
%TO.N,unconnected-(MAX9814-Gain-Pad3)*%
X132080000Y-76708000D03*
%TO.P,MAX9814,4,VDD_4*%
%TO.N,+3V3*%
X129540000Y-76708000D03*
%TO.P,MAX9814,5,GND_5*%
%TO.N,GND*%
X127000000Y-76708000D03*
%TD*%
D15*
%TO.P,U5,1,5v_1*%
%TO.N,unconnected-(U5-5v-Pad1)*%
X142565000Y-128905000D03*
%TO.P,U5,2,GND_2*%
%TO.N,unconnected-(U5-GND-Pad2)*%
X128365000Y-128905000D03*
%TO.P,U5,3,Out+_3*%
%TO.N,/V_BAT*%
X142565000Y-106005000D03*
%TO.P,U5,4,Out-_4*%
%TO.N,GND*%
X128065000Y-106005000D03*
%TO.P,U5,5,B+_5*%
%TO.N,unconnected-(U5-B+-Pad5)*%
X139065000Y-106005000D03*
%TO.P,U5,6,B-_6*%
%TO.N,unconnected-(U5-B--Pad6)*%
X131465000Y-106005000D03*
%TD*%
D16*
%TO.P,SW1,1,1_1*%
%TO.N,Net-(U2-PD1)*%
X135500000Y-99500000D03*
X142000000Y-99500000D03*
%TO.P,SW1,2,2_2*%
%TO.N,GND*%
X135500000Y-95000000D03*
X142000000Y-95000000D03*
%TD*%
D17*
%TO.P,U3,1,L_1*%
%TO.N,/OUT*%
X139340000Y-76630000D03*
%TO.P,U3,2,T_2*%
%TO.N,GND*%
X139340000Y-79170000D03*
%TO.P,U3,3,R_3*%
%TO.N,unconnected-(U3-R-Pad3)*%
X139340000Y-81710000D03*
%TO.P,U3,4,vin_4*%
%TO.N,/V_BAT*%
X139340000Y-89500000D03*
%TO.P,U3,5,gnd_5*%
%TO.N,GND*%
X139340000Y-92040000D03*
%TO.P,U3,6,R-_6*%
%TO.N,unconnected-(U3-R--Pad6)*%
X121290000Y-92010000D03*
%TO.P,U3,7,R+_7*%
%TO.N,unconnected-(U3-R+-Pad7)*%
X121290000Y-89470000D03*
%TO.P,U3,8,L+_8*%
%TO.N,Net-(U3-L+)*%
X121290000Y-79510000D03*
%TO.P,U3,9,L-_9*%
%TO.N,Net-(U3-L-)*%
X121290000Y-76970000D03*
%TD*%
%TO.N,Net-(U2-PD0)*%
D18*
X133350000Y-98111522D02*
X133350000Y-99441739D01*
X121894314Y-88590000D02*
X122118000Y-88590000D01*
X115880000Y-79470000D02*
X114780000Y-80570000D01*
X133350000Y-99441739D02*
X135381631Y-101473369D01*
X122118000Y-88590000D02*
X122400000Y-88872000D01*
X114780000Y-82465635D02*
X115424365Y-83110000D01*
X123044365Y-90730000D02*
X125968478Y-90730000D01*
X114780000Y-80570000D02*
X114780000Y-82465635D01*
X116414314Y-83110000D02*
X121894314Y-88590000D01*
X135381631Y-101473369D02*
X135381631Y-112825631D01*
X135381631Y-112825631D02*
X136652000Y-114096000D01*
X122400000Y-90085635D02*
X123044365Y-90730000D01*
X115424365Y-83110000D02*
X116414314Y-83110000D01*
X122400000Y-88872000D02*
X122400000Y-90085635D01*
X125968478Y-90730000D02*
X133350000Y-98111522D01*
%TO.N,Net-(U2-PD1)*%
X124190000Y-88190000D02*
X122060000Y-88190000D01*
X122060000Y-88190000D02*
X115880000Y-82010000D01*
X135500000Y-99500000D02*
X124190000Y-88190000D01*
X135500000Y-99500000D02*
X142000000Y-99500000D01*
%TO.N,+3V3*%
D19*
X118420000Y-92170000D02*
X123500000Y-97250000D01*
X115880000Y-92170000D02*
X118420000Y-92170000D01*
%TO.N,GND*%
D18*
X127000000Y-76708000D02*
X129462000Y-79170000D01*
X114780000Y-91714365D02*
X115546365Y-90948000D01*
X115880000Y-94710000D02*
X114780000Y-93610000D01*
X135500000Y-95000000D02*
X138460000Y-92040000D01*
X122278000Y-90948000D02*
X123500000Y-92170000D01*
X115546365Y-90948000D02*
X122278000Y-90948000D01*
X129462000Y-79170000D02*
X139340000Y-79170000D01*
X133096000Y-116591000D02*
X128065000Y-111560000D01*
X138460000Y-92040000D02*
X139750000Y-92040000D01*
X112250000Y-101492000D02*
X112250000Y-98340000D01*
X112250000Y-98340000D02*
X115880000Y-94710000D01*
X128065000Y-111560000D02*
X128065000Y-106005000D01*
X114780000Y-93610000D02*
X114780000Y-91714365D01*
%TO.N,Net-(U2-XTAL1{slash}PB6)*%
X113350000Y-109728000D02*
X113792000Y-109286000D01*
X112268000Y-111132000D02*
X113350000Y-110050000D01*
X115880000Y-97250000D02*
X117320000Y-98690000D01*
X113792000Y-109286000D02*
X113792000Y-99338000D01*
X125465000Y-98690000D02*
X127635000Y-96520000D01*
X113792000Y-99338000D02*
X115880000Y-97250000D01*
X117320000Y-98690000D02*
X125465000Y-98690000D01*
X113350000Y-110050000D02*
X113350000Y-109728000D01*
%TO.N,Net-(U2-XTAL2{slash}PB7)*%
X115880000Y-99790000D02*
X116980000Y-100890000D01*
X116980000Y-100890000D02*
X125805000Y-100890000D01*
X125805000Y-100890000D02*
X127635000Y-99060000D01*
%TO.N,/MOSI*%
X120027000Y-114771346D02*
X120027000Y-108343000D01*
X118872000Y-115926346D02*
X120027000Y-114771346D01*
X118872000Y-116840000D02*
X118872000Y-115926346D01*
X120027000Y-108343000D02*
X123500000Y-104870000D01*
%TO.N,/MISO*%
X116332000Y-111252000D02*
X122400000Y-105184000D01*
X122400000Y-105184000D02*
X122400000Y-103430000D01*
X122400000Y-103430000D02*
X123500000Y-102330000D01*
X116332000Y-114300000D02*
X116332000Y-111252000D01*
%TO.N,/SCK*%
X111100000Y-115545000D02*
X113665000Y-118110000D01*
X117722000Y-117228000D02*
X117722000Y-115888685D01*
X116840000Y-118110000D02*
X117722000Y-117228000D01*
X111100000Y-114300000D02*
X111100000Y-115545000D01*
X117722000Y-115888685D02*
X119091343Y-114519342D01*
X111000000Y-87210000D02*
X111000000Y-114200000D01*
X111000000Y-114200000D02*
X111100000Y-114300000D01*
X112250000Y-85960000D02*
X111000000Y-87210000D01*
X113665000Y-118110000D02*
X116840000Y-118110000D01*
%TO.N,/CE*%
X112250000Y-83420000D02*
X110600000Y-85070000D01*
X120262000Y-115450000D02*
X121412000Y-114300000D01*
X110600000Y-115680000D02*
X113430000Y-118510000D01*
X113430000Y-118510000D02*
X119380000Y-118510000D01*
X110600000Y-85070000D02*
X110600000Y-115680000D01*
X120262000Y-117628000D02*
X120262000Y-115450000D01*
X119380000Y-118510000D02*
X120262000Y-117628000D01*
%TO.N,/OUT*%
X124968000Y-81280000D02*
X124968000Y-76200000D01*
X139580000Y-76630000D02*
X139340000Y-76630000D01*
X137894000Y-75184000D02*
X139340000Y-76630000D01*
X123500000Y-82010000D02*
X124238000Y-82010000D01*
X125984000Y-75184000D02*
X137894000Y-75184000D01*
X124238000Y-82010000D02*
X124968000Y-81280000D01*
X124968000Y-76200000D02*
X125984000Y-75184000D01*
%TO.N,Net-(D1-A)*%
X135681000Y-116636000D02*
X136652000Y-116636000D01*
X133096000Y-114051000D02*
X135681000Y-116636000D01*
%TD*%
M02*
