%TF.GenerationSoftware,KiCad,Pcbnew,10.0.0*%
%TF.CreationDate,2026-05-28T20:35:39+08:00*%
%TF.ProjectId,walk_talk_mint,77616c6b-5f74-4616-9c6b-5f6d696e742e,rev?*%
%TF.SameCoordinates,Original*%
%TF.FileFunction,Legend,Bot*%
%TF.FilePolarity,Positive*%
%FSLAX46Y46*%
G04 Gerber Fmt 4.6, Leading zero omitted, Abs format (unit mm)*
G04 Created by KiCad (PCBNEW 10.0.0) date 2026-05-28 20:35:39*
%MOMM*%
%LPD*%
G01*
G04 APERTURE LIST*
%ADD10C,0.300000*%
%ADD11C,0.150000*%
%ADD12C,0.120000*%
G04 APERTURE END LIST*
D10*
X125429489Y-121310366D02*
X124929489Y-121310366D01*
X124715203Y-122096080D02*
X125429489Y-122096080D01*
X125429489Y-122096080D02*
X125429489Y-120596080D01*
X125429489Y-120596080D02*
X124715203Y-120596080D01*
X123429489Y-122024652D02*
X123572346Y-122096080D01*
X123572346Y-122096080D02*
X123858060Y-122096080D01*
X123858060Y-122096080D02*
X124000917Y-122024652D01*
X124000917Y-122024652D02*
X124072346Y-121953223D01*
X124072346Y-121953223D02*
X124143774Y-121810366D01*
X124143774Y-121810366D02*
X124143774Y-121381794D01*
X124143774Y-121381794D02*
X124072346Y-121238937D01*
X124072346Y-121238937D02*
X124000917Y-121167509D01*
X124000917Y-121167509D02*
X123858060Y-121096080D01*
X123858060Y-121096080D02*
X123572346Y-121096080D01*
X123572346Y-121096080D02*
X123429489Y-121167509D01*
X122572346Y-122096080D02*
X122715203Y-122024652D01*
X122715203Y-122024652D02*
X122786632Y-121881794D01*
X122786632Y-121881794D02*
X122786632Y-120596080D01*
X122000918Y-122096080D02*
X122000918Y-121096080D01*
X122000918Y-120596080D02*
X122072346Y-120667509D01*
X122072346Y-120667509D02*
X122000918Y-120738937D01*
X122000918Y-120738937D02*
X121929489Y-120667509D01*
X121929489Y-120667509D02*
X122000918Y-120596080D01*
X122000918Y-120596080D02*
X122000918Y-120738937D01*
X121286632Y-121096080D02*
X121286632Y-122596080D01*
X121286632Y-121167509D02*
X121143775Y-121096080D01*
X121143775Y-121096080D02*
X120858060Y-121096080D01*
X120858060Y-121096080D02*
X120715203Y-121167509D01*
X120715203Y-121167509D02*
X120643775Y-121238937D01*
X120643775Y-121238937D02*
X120572346Y-121381794D01*
X120572346Y-121381794D02*
X120572346Y-121810366D01*
X120572346Y-121810366D02*
X120643775Y-121953223D01*
X120643775Y-121953223D02*
X120715203Y-122024652D01*
X120715203Y-122024652D02*
X120858060Y-122096080D01*
X120858060Y-122096080D02*
X121143775Y-122096080D01*
X121143775Y-122096080D02*
X121286632Y-122024652D01*
X120000917Y-122024652D02*
X119858060Y-122096080D01*
X119858060Y-122096080D02*
X119572346Y-122096080D01*
X119572346Y-122096080D02*
X119429489Y-122024652D01*
X119429489Y-122024652D02*
X119358060Y-121881794D01*
X119358060Y-121881794D02*
X119358060Y-121810366D01*
X119358060Y-121810366D02*
X119429489Y-121667509D01*
X119429489Y-121667509D02*
X119572346Y-121596080D01*
X119572346Y-121596080D02*
X119786632Y-121596080D01*
X119786632Y-121596080D02*
X119929489Y-121524652D01*
X119929489Y-121524652D02*
X120000917Y-121381794D01*
X120000917Y-121381794D02*
X120000917Y-121310366D01*
X120000917Y-121310366D02*
X119929489Y-121167509D01*
X119929489Y-121167509D02*
X119786632Y-121096080D01*
X119786632Y-121096080D02*
X119572346Y-121096080D01*
X119572346Y-121096080D02*
X119429489Y-121167509D01*
X118143774Y-122024652D02*
X118286631Y-122096080D01*
X118286631Y-122096080D02*
X118572346Y-122096080D01*
X118572346Y-122096080D02*
X118715203Y-122024652D01*
X118715203Y-122024652D02*
X118786631Y-121881794D01*
X118786631Y-121881794D02*
X118786631Y-121310366D01*
X118786631Y-121310366D02*
X118715203Y-121167509D01*
X118715203Y-121167509D02*
X118572346Y-121096080D01*
X118572346Y-121096080D02*
X118286631Y-121096080D01*
X118286631Y-121096080D02*
X118143774Y-121167509D01*
X118143774Y-121167509D02*
X118072346Y-121310366D01*
X118072346Y-121310366D02*
X118072346Y-121453223D01*
X118072346Y-121453223D02*
X118786631Y-121596080D01*
X125572346Y-123010996D02*
X125215203Y-124510996D01*
X125215203Y-124510996D02*
X124929489Y-123439568D01*
X124929489Y-123439568D02*
X124643774Y-124510996D01*
X124643774Y-124510996D02*
X124286632Y-123010996D01*
X123072346Y-124510996D02*
X123072346Y-123725282D01*
X123072346Y-123725282D02*
X123143774Y-123582425D01*
X123143774Y-123582425D02*
X123286631Y-123510996D01*
X123286631Y-123510996D02*
X123572346Y-123510996D01*
X123572346Y-123510996D02*
X123715203Y-123582425D01*
X123072346Y-124439568D02*
X123215203Y-124510996D01*
X123215203Y-124510996D02*
X123572346Y-124510996D01*
X123572346Y-124510996D02*
X123715203Y-124439568D01*
X123715203Y-124439568D02*
X123786631Y-124296710D01*
X123786631Y-124296710D02*
X123786631Y-124153853D01*
X123786631Y-124153853D02*
X123715203Y-124010996D01*
X123715203Y-124010996D02*
X123572346Y-123939568D01*
X123572346Y-123939568D02*
X123215203Y-123939568D01*
X123215203Y-123939568D02*
X123072346Y-123868139D01*
X122143774Y-124510996D02*
X122286631Y-124439568D01*
X122286631Y-124439568D02*
X122358060Y-124296710D01*
X122358060Y-124296710D02*
X122358060Y-123010996D01*
X121572346Y-124510996D02*
X121572346Y-123010996D01*
X121429489Y-123939568D02*
X121000917Y-124510996D01*
X121000917Y-123510996D02*
X121572346Y-124082425D01*
X120358060Y-124510996D02*
X120358060Y-123510996D01*
X120358060Y-123010996D02*
X120429488Y-123082425D01*
X120429488Y-123082425D02*
X120358060Y-123153853D01*
X120358060Y-123153853D02*
X120286631Y-123082425D01*
X120286631Y-123082425D02*
X120358060Y-123010996D01*
X120358060Y-123010996D02*
X120358060Y-123153853D01*
X119072345Y-124439568D02*
X119215202Y-124510996D01*
X119215202Y-124510996D02*
X119500917Y-124510996D01*
X119500917Y-124510996D02*
X119643774Y-124439568D01*
X119643774Y-124439568D02*
X119715202Y-124296710D01*
X119715202Y-124296710D02*
X119715202Y-123725282D01*
X119715202Y-123725282D02*
X119643774Y-123582425D01*
X119643774Y-123582425D02*
X119500917Y-123510996D01*
X119500917Y-123510996D02*
X119215202Y-123510996D01*
X119215202Y-123510996D02*
X119072345Y-123582425D01*
X119072345Y-123582425D02*
X119000917Y-123725282D01*
X119000917Y-123725282D02*
X119000917Y-123868139D01*
X119000917Y-123868139D02*
X119715202Y-124010996D01*
X125643774Y-125425912D02*
X124786632Y-125425912D01*
X125215203Y-126925912D02*
X125215203Y-125425912D01*
X123643775Y-126925912D02*
X123643775Y-126140198D01*
X123643775Y-126140198D02*
X123715203Y-125997341D01*
X123715203Y-125997341D02*
X123858060Y-125925912D01*
X123858060Y-125925912D02*
X124143775Y-125925912D01*
X124143775Y-125925912D02*
X124286632Y-125997341D01*
X123643775Y-126854484D02*
X123786632Y-126925912D01*
X123786632Y-126925912D02*
X124143775Y-126925912D01*
X124143775Y-126925912D02*
X124286632Y-126854484D01*
X124286632Y-126854484D02*
X124358060Y-126711626D01*
X124358060Y-126711626D02*
X124358060Y-126568769D01*
X124358060Y-126568769D02*
X124286632Y-126425912D01*
X124286632Y-126425912D02*
X124143775Y-126354484D01*
X124143775Y-126354484D02*
X123786632Y-126354484D01*
X123786632Y-126354484D02*
X123643775Y-126283055D01*
X122715203Y-126925912D02*
X122858060Y-126854484D01*
X122858060Y-126854484D02*
X122929489Y-126711626D01*
X122929489Y-126711626D02*
X122929489Y-125425912D01*
X122143775Y-126925912D02*
X122143775Y-125425912D01*
X122000918Y-126354484D02*
X121572346Y-126925912D01*
X121572346Y-125925912D02*
X122143775Y-126497341D01*
X120929489Y-126925912D02*
X120929489Y-125925912D01*
X120929489Y-125425912D02*
X121000917Y-125497341D01*
X121000917Y-125497341D02*
X120929489Y-125568769D01*
X120929489Y-125568769D02*
X120858060Y-125497341D01*
X120858060Y-125497341D02*
X120929489Y-125425912D01*
X120929489Y-125425912D02*
X120929489Y-125568769D01*
X119643774Y-126854484D02*
X119786631Y-126925912D01*
X119786631Y-126925912D02*
X120072346Y-126925912D01*
X120072346Y-126925912D02*
X120215203Y-126854484D01*
X120215203Y-126854484D02*
X120286631Y-126711626D01*
X120286631Y-126711626D02*
X120286631Y-126140198D01*
X120286631Y-126140198D02*
X120215203Y-125997341D01*
X120215203Y-125997341D02*
X120072346Y-125925912D01*
X120072346Y-125925912D02*
X119786631Y-125925912D01*
X119786631Y-125925912D02*
X119643774Y-125997341D01*
X119643774Y-125997341D02*
X119572346Y-126140198D01*
X119572346Y-126140198D02*
X119572346Y-126283055D01*
X119572346Y-126283055D02*
X120286631Y-126425912D01*
X125429489Y-129340828D02*
X125429489Y-127840828D01*
X125429489Y-128412257D02*
X125286632Y-128340828D01*
X125286632Y-128340828D02*
X125000917Y-128340828D01*
X125000917Y-128340828D02*
X124858060Y-128412257D01*
X124858060Y-128412257D02*
X124786632Y-128483685D01*
X124786632Y-128483685D02*
X124715203Y-128626542D01*
X124715203Y-128626542D02*
X124715203Y-129055114D01*
X124715203Y-129055114D02*
X124786632Y-129197971D01*
X124786632Y-129197971D02*
X124858060Y-129269400D01*
X124858060Y-129269400D02*
X125000917Y-129340828D01*
X125000917Y-129340828D02*
X125286632Y-129340828D01*
X125286632Y-129340828D02*
X125429489Y-129269400D01*
X124215203Y-128340828D02*
X123858060Y-129340828D01*
X123500917Y-128340828D02*
X123858060Y-129340828D01*
X123858060Y-129340828D02*
X124000917Y-129697971D01*
X124000917Y-129697971D02*
X124072346Y-129769400D01*
X124072346Y-129769400D02*
X124215203Y-129840828D01*
X121072346Y-129340828D02*
X121786632Y-129340828D01*
X121786632Y-129340828D02*
X121786632Y-127840828D01*
X120572346Y-129340828D02*
X120572346Y-127840828D01*
X120572346Y-127840828D02*
X120215203Y-127840828D01*
X120215203Y-127840828D02*
X120000917Y-127912257D01*
X120000917Y-127912257D02*
X119858060Y-128055114D01*
X119858060Y-128055114D02*
X119786631Y-128197971D01*
X119786631Y-128197971D02*
X119715203Y-128483685D01*
X119715203Y-128483685D02*
X119715203Y-128697971D01*
X119715203Y-128697971D02*
X119786631Y-128983685D01*
X119786631Y-128983685D02*
X119858060Y-129126542D01*
X119858060Y-129126542D02*
X120000917Y-129269400D01*
X120000917Y-129269400D02*
X120215203Y-129340828D01*
X120215203Y-129340828D02*
X120572346Y-129340828D01*
D11*
X133058819Y-125222095D02*
X133868342Y-125222095D01*
X133868342Y-125222095D02*
X133963580Y-125269714D01*
X133963580Y-125269714D02*
X134011200Y-125317333D01*
X134011200Y-125317333D02*
X134058819Y-125412571D01*
X134058819Y-125412571D02*
X134058819Y-125603047D01*
X134058819Y-125603047D02*
X134011200Y-125698285D01*
X134011200Y-125698285D02*
X133963580Y-125745904D01*
X133963580Y-125745904D02*
X133868342Y-125793523D01*
X133868342Y-125793523D02*
X133058819Y-125793523D01*
X133058819Y-126745904D02*
X133058819Y-126269714D01*
X133058819Y-126269714D02*
X133535009Y-126222095D01*
X133535009Y-126222095D02*
X133487390Y-126269714D01*
X133487390Y-126269714D02*
X133439771Y-126364952D01*
X133439771Y-126364952D02*
X133439771Y-126603047D01*
X133439771Y-126603047D02*
X133487390Y-126698285D01*
X133487390Y-126698285D02*
X133535009Y-126745904D01*
X133535009Y-126745904D02*
X133630247Y-126793523D01*
X133630247Y-126793523D02*
X133868342Y-126793523D01*
X133868342Y-126793523D02*
X133963580Y-126745904D01*
X133963580Y-126745904D02*
X134011200Y-126698285D01*
X134011200Y-126698285D02*
X134058819Y-126603047D01*
X134058819Y-126603047D02*
X134058819Y-126364952D01*
X134058819Y-126364952D02*
X134011200Y-126269714D01*
X134011200Y-126269714D02*
X133963580Y-126222095D01*
X127538866Y-126224048D02*
X127538866Y-126985953D01*
X127519819Y-108252619D02*
X127519819Y-108443095D01*
X127519819Y-108443095D02*
X127567438Y-108538333D01*
X127567438Y-108538333D02*
X127662676Y-108633571D01*
X127662676Y-108633571D02*
X127853152Y-108681190D01*
X127853152Y-108681190D02*
X128186485Y-108681190D01*
X128186485Y-108681190D02*
X128376961Y-108633571D01*
X128376961Y-108633571D02*
X128472200Y-108538333D01*
X128472200Y-108538333D02*
X128519819Y-108443095D01*
X128519819Y-108443095D02*
X128519819Y-108252619D01*
X128519819Y-108252619D02*
X128472200Y-108157381D01*
X128472200Y-108157381D02*
X128376961Y-108062143D01*
X128376961Y-108062143D02*
X128186485Y-108014524D01*
X128186485Y-108014524D02*
X127853152Y-108014524D01*
X127853152Y-108014524D02*
X127662676Y-108062143D01*
X127662676Y-108062143D02*
X127567438Y-108157381D01*
X127567438Y-108157381D02*
X127519819Y-108252619D01*
X127853152Y-109538333D02*
X128519819Y-109538333D01*
X127853152Y-109109762D02*
X128376961Y-109109762D01*
X128376961Y-109109762D02*
X128472200Y-109157381D01*
X128472200Y-109157381D02*
X128519819Y-109252619D01*
X128519819Y-109252619D02*
X128519819Y-109395476D01*
X128519819Y-109395476D02*
X128472200Y-109490714D01*
X128472200Y-109490714D02*
X128424580Y-109538333D01*
X127853152Y-109871667D02*
X127853152Y-110252619D01*
X127519819Y-110014524D02*
X128376961Y-110014524D01*
X128376961Y-110014524D02*
X128472200Y-110062143D01*
X128472200Y-110062143D02*
X128519819Y-110157381D01*
X128519819Y-110157381D02*
X128519819Y-110252619D01*
X128138866Y-110585953D02*
X128138866Y-111347858D01*
X130067438Y-128043095D02*
X130019819Y-127947857D01*
X130019819Y-127947857D02*
X130019819Y-127805000D01*
X130019819Y-127805000D02*
X130067438Y-127662143D01*
X130067438Y-127662143D02*
X130162676Y-127566905D01*
X130162676Y-127566905D02*
X130257914Y-127519286D01*
X130257914Y-127519286D02*
X130448390Y-127471667D01*
X130448390Y-127471667D02*
X130591247Y-127471667D01*
X130591247Y-127471667D02*
X130781723Y-127519286D01*
X130781723Y-127519286D02*
X130876961Y-127566905D01*
X130876961Y-127566905D02*
X130972200Y-127662143D01*
X130972200Y-127662143D02*
X131019819Y-127805000D01*
X131019819Y-127805000D02*
X131019819Y-127900238D01*
X131019819Y-127900238D02*
X130972200Y-128043095D01*
X130972200Y-128043095D02*
X130924580Y-128090714D01*
X130924580Y-128090714D02*
X130591247Y-128090714D01*
X130591247Y-128090714D02*
X130591247Y-127900238D01*
X131019819Y-128519286D02*
X130019819Y-128519286D01*
X130019819Y-128519286D02*
X131019819Y-129090714D01*
X131019819Y-129090714D02*
X130019819Y-129090714D01*
X131019819Y-129566905D02*
X130019819Y-129566905D01*
X130019819Y-129566905D02*
X130019819Y-129805000D01*
X130019819Y-129805000D02*
X130067438Y-129947857D01*
X130067438Y-129947857D02*
X130162676Y-130043095D01*
X130162676Y-130043095D02*
X130257914Y-130090714D01*
X130257914Y-130090714D02*
X130448390Y-130138333D01*
X130448390Y-130138333D02*
X130591247Y-130138333D01*
X130591247Y-130138333D02*
X130781723Y-130090714D01*
X130781723Y-130090714D02*
X130876961Y-130043095D01*
X130876961Y-130043095D02*
X130972200Y-129947857D01*
X130972200Y-129947857D02*
X131019819Y-129805000D01*
X131019819Y-129805000D02*
X131019819Y-129566905D01*
X131496009Y-108357381D02*
X131543628Y-108500238D01*
X131543628Y-108500238D02*
X131591247Y-108547857D01*
X131591247Y-108547857D02*
X131686485Y-108595476D01*
X131686485Y-108595476D02*
X131829342Y-108595476D01*
X131829342Y-108595476D02*
X131924580Y-108547857D01*
X131924580Y-108547857D02*
X131972200Y-108500238D01*
X131972200Y-108500238D02*
X132019819Y-108405000D01*
X132019819Y-108405000D02*
X132019819Y-108024048D01*
X132019819Y-108024048D02*
X131019819Y-108024048D01*
X131019819Y-108024048D02*
X131019819Y-108357381D01*
X131019819Y-108357381D02*
X131067438Y-108452619D01*
X131067438Y-108452619D02*
X131115057Y-108500238D01*
X131115057Y-108500238D02*
X131210295Y-108547857D01*
X131210295Y-108547857D02*
X131305533Y-108547857D01*
X131305533Y-108547857D02*
X131400771Y-108500238D01*
X131400771Y-108500238D02*
X131448390Y-108452619D01*
X131448390Y-108452619D02*
X131496009Y-108357381D01*
X131496009Y-108357381D02*
X131496009Y-108024048D01*
X131638866Y-109024048D02*
X131638866Y-109785953D01*
X136426904Y-128459819D02*
X136426904Y-129269342D01*
X136426904Y-129269342D02*
X136379285Y-129364580D01*
X136379285Y-129364580D02*
X136331666Y-129412200D01*
X136331666Y-129412200D02*
X136236428Y-129459819D01*
X136236428Y-129459819D02*
X136045952Y-129459819D01*
X136045952Y-129459819D02*
X135950714Y-129412200D01*
X135950714Y-129412200D02*
X135903095Y-129364580D01*
X135903095Y-129364580D02*
X135855476Y-129269342D01*
X135855476Y-129269342D02*
X135855476Y-128459819D01*
X135426904Y-129412200D02*
X135284047Y-129459819D01*
X135284047Y-129459819D02*
X135045952Y-129459819D01*
X135045952Y-129459819D02*
X134950714Y-129412200D01*
X134950714Y-129412200D02*
X134903095Y-129364580D01*
X134903095Y-129364580D02*
X134855476Y-129269342D01*
X134855476Y-129269342D02*
X134855476Y-129174104D01*
X134855476Y-129174104D02*
X134903095Y-129078866D01*
X134903095Y-129078866D02*
X134950714Y-129031247D01*
X134950714Y-129031247D02*
X135045952Y-128983628D01*
X135045952Y-128983628D02*
X135236428Y-128936009D01*
X135236428Y-128936009D02*
X135331666Y-128888390D01*
X135331666Y-128888390D02*
X135379285Y-128840771D01*
X135379285Y-128840771D02*
X135426904Y-128745533D01*
X135426904Y-128745533D02*
X135426904Y-128650295D01*
X135426904Y-128650295D02*
X135379285Y-128555057D01*
X135379285Y-128555057D02*
X135331666Y-128507438D01*
X135331666Y-128507438D02*
X135236428Y-128459819D01*
X135236428Y-128459819D02*
X134998333Y-128459819D01*
X134998333Y-128459819D02*
X134855476Y-128507438D01*
X134093571Y-128936009D02*
X133950714Y-128983628D01*
X133950714Y-128983628D02*
X133903095Y-129031247D01*
X133903095Y-129031247D02*
X133855476Y-129126485D01*
X133855476Y-129126485D02*
X133855476Y-129269342D01*
X133855476Y-129269342D02*
X133903095Y-129364580D01*
X133903095Y-129364580D02*
X133950714Y-129412200D01*
X133950714Y-129412200D02*
X134045952Y-129459819D01*
X134045952Y-129459819D02*
X134426904Y-129459819D01*
X134426904Y-129459819D02*
X134426904Y-128459819D01*
X134426904Y-128459819D02*
X134093571Y-128459819D01*
X134093571Y-128459819D02*
X133998333Y-128507438D01*
X133998333Y-128507438D02*
X133950714Y-128555057D01*
X133950714Y-128555057D02*
X133903095Y-128650295D01*
X133903095Y-128650295D02*
X133903095Y-128745533D01*
X133903095Y-128745533D02*
X133950714Y-128840771D01*
X133950714Y-128840771D02*
X133998333Y-128888390D01*
X133998333Y-128888390D02*
X134093571Y-128936009D01*
X134093571Y-128936009D02*
X134426904Y-128936009D01*
X135296009Y-111262141D02*
X135343628Y-111404998D01*
X135343628Y-111404998D02*
X135391247Y-111452617D01*
X135391247Y-111452617D02*
X135486485Y-111500236D01*
X135486485Y-111500236D02*
X135629342Y-111500236D01*
X135629342Y-111500236D02*
X135724580Y-111452617D01*
X135724580Y-111452617D02*
X135772200Y-111404998D01*
X135772200Y-111404998D02*
X135819819Y-111309760D01*
X135819819Y-111309760D02*
X135819819Y-110928808D01*
X135819819Y-110928808D02*
X134819819Y-110928808D01*
X134819819Y-110928808D02*
X134819819Y-111262141D01*
X134819819Y-111262141D02*
X134867438Y-111357379D01*
X134867438Y-111357379D02*
X134915057Y-111404998D01*
X134915057Y-111404998D02*
X135010295Y-111452617D01*
X135010295Y-111452617D02*
X135105533Y-111452617D01*
X135105533Y-111452617D02*
X135200771Y-111404998D01*
X135200771Y-111404998D02*
X135248390Y-111357379D01*
X135248390Y-111357379D02*
X135296009Y-111262141D01*
X135296009Y-111262141D02*
X135296009Y-110928808D01*
X135819819Y-112357379D02*
X135296009Y-112357379D01*
X135296009Y-112357379D02*
X135200771Y-112309760D01*
X135200771Y-112309760D02*
X135153152Y-112214522D01*
X135153152Y-112214522D02*
X135153152Y-112024046D01*
X135153152Y-112024046D02*
X135200771Y-111928808D01*
X135772200Y-112357379D02*
X135819819Y-112262141D01*
X135819819Y-112262141D02*
X135819819Y-112024046D01*
X135819819Y-112024046D02*
X135772200Y-111928808D01*
X135772200Y-111928808D02*
X135676961Y-111881189D01*
X135676961Y-111881189D02*
X135581723Y-111881189D01*
X135581723Y-111881189D02*
X135486485Y-111928808D01*
X135486485Y-111928808D02*
X135438866Y-112024046D01*
X135438866Y-112024046D02*
X135438866Y-112262141D01*
X135438866Y-112262141D02*
X135391247Y-112357379D01*
X135153152Y-112690713D02*
X135153152Y-113071665D01*
X134819819Y-112833570D02*
X135676961Y-112833570D01*
X135676961Y-112833570D02*
X135772200Y-112881189D01*
X135772200Y-112881189D02*
X135819819Y-112976427D01*
X135819819Y-112976427D02*
X135819819Y-113071665D01*
X135153152Y-113262142D02*
X135153152Y-113643094D01*
X134819819Y-113404999D02*
X135676961Y-113404999D01*
X135676961Y-113404999D02*
X135772200Y-113452618D01*
X135772200Y-113452618D02*
X135819819Y-113547856D01*
X135819819Y-113547856D02*
X135819819Y-113643094D01*
X135772200Y-114357380D02*
X135819819Y-114262142D01*
X135819819Y-114262142D02*
X135819819Y-114071666D01*
X135819819Y-114071666D02*
X135772200Y-113976428D01*
X135772200Y-113976428D02*
X135676961Y-113928809D01*
X135676961Y-113928809D02*
X135296009Y-113928809D01*
X135296009Y-113928809D02*
X135200771Y-113976428D01*
X135200771Y-113976428D02*
X135153152Y-114071666D01*
X135153152Y-114071666D02*
X135153152Y-114262142D01*
X135153152Y-114262142D02*
X135200771Y-114357380D01*
X135200771Y-114357380D02*
X135296009Y-114404999D01*
X135296009Y-114404999D02*
X135391247Y-114404999D01*
X135391247Y-114404999D02*
X135486485Y-113928809D01*
X135819819Y-114833571D02*
X135153152Y-114833571D01*
X135343628Y-114833571D02*
X135248390Y-114881190D01*
X135248390Y-114881190D02*
X135200771Y-114928809D01*
X135200771Y-114928809D02*
X135153152Y-115024047D01*
X135153152Y-115024047D02*
X135153152Y-115119285D01*
X135153152Y-115357381D02*
X135819819Y-115595476D01*
X135153152Y-115833571D02*
X135819819Y-115595476D01*
X135819819Y-115595476D02*
X136057914Y-115500238D01*
X136057914Y-115500238D02*
X136105533Y-115452619D01*
X136105533Y-115452619D02*
X136153152Y-115357381D01*
X135724580Y-117547857D02*
X135772200Y-117500238D01*
X135772200Y-117500238D02*
X135819819Y-117357381D01*
X135819819Y-117357381D02*
X135819819Y-117262143D01*
X135819819Y-117262143D02*
X135772200Y-117119286D01*
X135772200Y-117119286D02*
X135676961Y-117024048D01*
X135676961Y-117024048D02*
X135581723Y-116976429D01*
X135581723Y-116976429D02*
X135391247Y-116928810D01*
X135391247Y-116928810D02*
X135248390Y-116928810D01*
X135248390Y-116928810D02*
X135057914Y-116976429D01*
X135057914Y-116976429D02*
X134962676Y-117024048D01*
X134962676Y-117024048D02*
X134867438Y-117119286D01*
X134867438Y-117119286D02*
X134819819Y-117262143D01*
X134819819Y-117262143D02*
X134819819Y-117357381D01*
X134819819Y-117357381D02*
X134867438Y-117500238D01*
X134867438Y-117500238D02*
X134915057Y-117547857D01*
X135819819Y-117976429D02*
X134819819Y-117976429D01*
X135819819Y-118405000D02*
X135296009Y-118405000D01*
X135296009Y-118405000D02*
X135200771Y-118357381D01*
X135200771Y-118357381D02*
X135153152Y-118262143D01*
X135153152Y-118262143D02*
X135153152Y-118119286D01*
X135153152Y-118119286D02*
X135200771Y-118024048D01*
X135200771Y-118024048D02*
X135248390Y-117976429D01*
X135819819Y-119309762D02*
X135296009Y-119309762D01*
X135296009Y-119309762D02*
X135200771Y-119262143D01*
X135200771Y-119262143D02*
X135153152Y-119166905D01*
X135153152Y-119166905D02*
X135153152Y-118976429D01*
X135153152Y-118976429D02*
X135200771Y-118881191D01*
X135772200Y-119309762D02*
X135819819Y-119214524D01*
X135819819Y-119214524D02*
X135819819Y-118976429D01*
X135819819Y-118976429D02*
X135772200Y-118881191D01*
X135772200Y-118881191D02*
X135676961Y-118833572D01*
X135676961Y-118833572D02*
X135581723Y-118833572D01*
X135581723Y-118833572D02*
X135486485Y-118881191D01*
X135486485Y-118881191D02*
X135438866Y-118976429D01*
X135438866Y-118976429D02*
X135438866Y-119214524D01*
X135438866Y-119214524D02*
X135391247Y-119309762D01*
X135819819Y-119785953D02*
X135153152Y-119785953D01*
X135343628Y-119785953D02*
X135248390Y-119833572D01*
X135248390Y-119833572D02*
X135200771Y-119881191D01*
X135200771Y-119881191D02*
X135153152Y-119976429D01*
X135153152Y-119976429D02*
X135153152Y-120071667D01*
X135153152Y-120833572D02*
X135962676Y-120833572D01*
X135962676Y-120833572D02*
X136057914Y-120785953D01*
X136057914Y-120785953D02*
X136105533Y-120738334D01*
X136105533Y-120738334D02*
X136153152Y-120643096D01*
X136153152Y-120643096D02*
X136153152Y-120500239D01*
X136153152Y-120500239D02*
X136105533Y-120405001D01*
X135772200Y-120833572D02*
X135819819Y-120738334D01*
X135819819Y-120738334D02*
X135819819Y-120547858D01*
X135819819Y-120547858D02*
X135772200Y-120452620D01*
X135772200Y-120452620D02*
X135724580Y-120405001D01*
X135724580Y-120405001D02*
X135629342Y-120357382D01*
X135629342Y-120357382D02*
X135343628Y-120357382D01*
X135343628Y-120357382D02*
X135248390Y-120405001D01*
X135248390Y-120405001D02*
X135200771Y-120452620D01*
X135200771Y-120452620D02*
X135153152Y-120547858D01*
X135153152Y-120547858D02*
X135153152Y-120738334D01*
X135153152Y-120738334D02*
X135200771Y-120833572D01*
X135772200Y-121690715D02*
X135819819Y-121595477D01*
X135819819Y-121595477D02*
X135819819Y-121405001D01*
X135819819Y-121405001D02*
X135772200Y-121309763D01*
X135772200Y-121309763D02*
X135676961Y-121262144D01*
X135676961Y-121262144D02*
X135296009Y-121262144D01*
X135296009Y-121262144D02*
X135200771Y-121309763D01*
X135200771Y-121309763D02*
X135153152Y-121405001D01*
X135153152Y-121405001D02*
X135153152Y-121595477D01*
X135153152Y-121595477D02*
X135200771Y-121690715D01*
X135200771Y-121690715D02*
X135296009Y-121738334D01*
X135296009Y-121738334D02*
X135391247Y-121738334D01*
X135391247Y-121738334D02*
X135486485Y-121262144D01*
X135819819Y-122166906D02*
X135153152Y-122166906D01*
X135343628Y-122166906D02*
X135248390Y-122214525D01*
X135248390Y-122214525D02*
X135200771Y-122262144D01*
X135200771Y-122262144D02*
X135153152Y-122357382D01*
X135153152Y-122357382D02*
X135153152Y-122452620D01*
X135819819Y-124071668D02*
X135819819Y-123500240D01*
X135819819Y-123785954D02*
X134819819Y-123785954D01*
X134819819Y-123785954D02*
X134962676Y-123690716D01*
X134962676Y-123690716D02*
X135057914Y-123595478D01*
X135057914Y-123595478D02*
X135105533Y-123500240D01*
X135534104Y-124452621D02*
X135534104Y-124928811D01*
X135819819Y-124357383D02*
X134819819Y-124690716D01*
X134819819Y-124690716D02*
X135819819Y-125024049D01*
X139096009Y-108357381D02*
X139143628Y-108500238D01*
X139143628Y-108500238D02*
X139191247Y-108547857D01*
X139191247Y-108547857D02*
X139286485Y-108595476D01*
X139286485Y-108595476D02*
X139429342Y-108595476D01*
X139429342Y-108595476D02*
X139524580Y-108547857D01*
X139524580Y-108547857D02*
X139572200Y-108500238D01*
X139572200Y-108500238D02*
X139619819Y-108405000D01*
X139619819Y-108405000D02*
X139619819Y-108024048D01*
X139619819Y-108024048D02*
X138619819Y-108024048D01*
X138619819Y-108024048D02*
X138619819Y-108357381D01*
X138619819Y-108357381D02*
X138667438Y-108452619D01*
X138667438Y-108452619D02*
X138715057Y-108500238D01*
X138715057Y-108500238D02*
X138810295Y-108547857D01*
X138810295Y-108547857D02*
X138905533Y-108547857D01*
X138905533Y-108547857D02*
X139000771Y-108500238D01*
X139000771Y-108500238D02*
X139048390Y-108452619D01*
X139048390Y-108452619D02*
X139096009Y-108357381D01*
X139096009Y-108357381D02*
X139096009Y-108024048D01*
X139238866Y-109024048D02*
X139238866Y-109785953D01*
X139619819Y-109405000D02*
X138857914Y-109405000D01*
X139619819Y-128762142D02*
X139619819Y-128285952D01*
X139619819Y-128285952D02*
X140096009Y-128238333D01*
X140096009Y-128238333D02*
X140048390Y-128285952D01*
X140048390Y-128285952D02*
X140000771Y-128381190D01*
X140000771Y-128381190D02*
X140000771Y-128619285D01*
X140000771Y-128619285D02*
X140048390Y-128714523D01*
X140048390Y-128714523D02*
X140096009Y-128762142D01*
X140096009Y-128762142D02*
X140191247Y-128809761D01*
X140191247Y-128809761D02*
X140429342Y-128809761D01*
X140429342Y-128809761D02*
X140524580Y-128762142D01*
X140524580Y-128762142D02*
X140572200Y-128714523D01*
X140572200Y-128714523D02*
X140619819Y-128619285D01*
X140619819Y-128619285D02*
X140619819Y-128381190D01*
X140619819Y-128381190D02*
X140572200Y-128285952D01*
X140572200Y-128285952D02*
X140524580Y-128238333D01*
X139953152Y-129143095D02*
X140619819Y-129381190D01*
X140619819Y-129381190D02*
X139953152Y-129619285D01*
X142119819Y-108252619D02*
X142119819Y-108443095D01*
X142119819Y-108443095D02*
X142167438Y-108538333D01*
X142167438Y-108538333D02*
X142262676Y-108633571D01*
X142262676Y-108633571D02*
X142453152Y-108681190D01*
X142453152Y-108681190D02*
X142786485Y-108681190D01*
X142786485Y-108681190D02*
X142976961Y-108633571D01*
X142976961Y-108633571D02*
X143072200Y-108538333D01*
X143072200Y-108538333D02*
X143119819Y-108443095D01*
X143119819Y-108443095D02*
X143119819Y-108252619D01*
X143119819Y-108252619D02*
X143072200Y-108157381D01*
X143072200Y-108157381D02*
X142976961Y-108062143D01*
X142976961Y-108062143D02*
X142786485Y-108014524D01*
X142786485Y-108014524D02*
X142453152Y-108014524D01*
X142453152Y-108014524D02*
X142262676Y-108062143D01*
X142262676Y-108062143D02*
X142167438Y-108157381D01*
X142167438Y-108157381D02*
X142119819Y-108252619D01*
X142453152Y-109538333D02*
X143119819Y-109538333D01*
X142453152Y-109109762D02*
X142976961Y-109109762D01*
X142976961Y-109109762D02*
X143072200Y-109157381D01*
X143072200Y-109157381D02*
X143119819Y-109252619D01*
X143119819Y-109252619D02*
X143119819Y-109395476D01*
X143119819Y-109395476D02*
X143072200Y-109490714D01*
X143072200Y-109490714D02*
X143024580Y-109538333D01*
X142453152Y-109871667D02*
X142453152Y-110252619D01*
X142119819Y-110014524D02*
X142976961Y-110014524D01*
X142976961Y-110014524D02*
X143072200Y-110062143D01*
X143072200Y-110062143D02*
X143119819Y-110157381D01*
X143119819Y-110157381D02*
X143119819Y-110252619D01*
X142738866Y-110585953D02*
X142738866Y-111347858D01*
X143119819Y-110966905D02*
X142357914Y-110966905D01*
X142738866Y-126324048D02*
X142738866Y-127085953D01*
X143119819Y-126705000D02*
X142357914Y-126705000D01*
X140083332Y-101907200D02*
X139940475Y-101954819D01*
X139940475Y-101954819D02*
X139702380Y-101954819D01*
X139702380Y-101954819D02*
X139607142Y-101907200D01*
X139607142Y-101907200D02*
X139559523Y-101859580D01*
X139559523Y-101859580D02*
X139511904Y-101764342D01*
X139511904Y-101764342D02*
X139511904Y-101669104D01*
X139511904Y-101669104D02*
X139559523Y-101573866D01*
X139559523Y-101573866D02*
X139607142Y-101526247D01*
X139607142Y-101526247D02*
X139702380Y-101478628D01*
X139702380Y-101478628D02*
X139892856Y-101431009D01*
X139892856Y-101431009D02*
X139988094Y-101383390D01*
X139988094Y-101383390D02*
X140035713Y-101335771D01*
X140035713Y-101335771D02*
X140083332Y-101240533D01*
X140083332Y-101240533D02*
X140083332Y-101145295D01*
X140083332Y-101145295D02*
X140035713Y-101050057D01*
X140035713Y-101050057D02*
X139988094Y-101002438D01*
X139988094Y-101002438D02*
X139892856Y-100954819D01*
X139892856Y-100954819D02*
X139654761Y-100954819D01*
X139654761Y-100954819D02*
X139511904Y-101002438D01*
X139178570Y-100954819D02*
X138940475Y-101954819D01*
X138940475Y-101954819D02*
X138749999Y-101240533D01*
X138749999Y-101240533D02*
X138559523Y-101954819D01*
X138559523Y-101954819D02*
X138321428Y-100954819D01*
X137416666Y-101954819D02*
X137988094Y-101954819D01*
X137702380Y-101954819D02*
X137702380Y-100954819D01*
X137702380Y-100954819D02*
X137797618Y-101097676D01*
X137797618Y-101097676D02*
X137892856Y-101192914D01*
X137892856Y-101192914D02*
X137988094Y-101240533D01*
X128544819Y-83658095D02*
X129354342Y-83658095D01*
X129354342Y-83658095D02*
X129449580Y-83705714D01*
X129449580Y-83705714D02*
X129497200Y-83753333D01*
X129497200Y-83753333D02*
X129544819Y-83848571D01*
X129544819Y-83848571D02*
X129544819Y-84039047D01*
X129544819Y-84039047D02*
X129497200Y-84134285D01*
X129497200Y-84134285D02*
X129449580Y-84181904D01*
X129449580Y-84181904D02*
X129354342Y-84229523D01*
X129354342Y-84229523D02*
X128544819Y-84229523D01*
X128544819Y-84610476D02*
X128544819Y-85229523D01*
X128544819Y-85229523D02*
X128925771Y-84896190D01*
X128925771Y-84896190D02*
X128925771Y-85039047D01*
X128925771Y-85039047D02*
X128973390Y-85134285D01*
X128973390Y-85134285D02*
X129021009Y-85181904D01*
X129021009Y-85181904D02*
X129116247Y-85229523D01*
X129116247Y-85229523D02*
X129354342Y-85229523D01*
X129354342Y-85229523D02*
X129449580Y-85181904D01*
X129449580Y-85181904D02*
X129497200Y-85134285D01*
X129497200Y-85134285D02*
X129544819Y-85039047D01*
X129544819Y-85039047D02*
X129544819Y-84753333D01*
X129544819Y-84753333D02*
X129497200Y-84658095D01*
X129497200Y-84658095D02*
X129449580Y-84610476D01*
%TO.C,U5*%
X126465000Y-102205000D02*
X126465000Y-130605000D01*
X126465000Y-130605000D02*
X144265000Y-130605000D01*
X128565000Y-102205000D02*
X126465000Y-102205000D01*
X128865000Y-102205000D02*
X128565000Y-102205000D01*
X128865000Y-104305000D02*
X128865000Y-102205000D01*
X128865000Y-104505000D02*
X128865000Y-104205000D01*
X133265000Y-127705000D02*
X133265000Y-130205000D01*
X133265000Y-130205000D02*
X136965000Y-130205000D01*
X137065000Y-127705000D02*
X133265000Y-127705000D01*
X137065000Y-130205000D02*
X137065000Y-127705000D01*
X141765000Y-102205000D02*
X141765000Y-104505000D01*
X141765000Y-104505000D02*
X128865000Y-104505000D01*
X144265000Y-102205000D02*
X141765000Y-102205000D01*
X144265000Y-104305000D02*
X144265000Y-102205000D01*
X144265000Y-130605000D02*
X144265000Y-104305000D01*
%TO.C,SW1*%
D12*
X135250000Y-98000000D02*
X135250000Y-96500000D01*
X136500000Y-94000000D02*
X141000000Y-94000000D01*
X141000000Y-100500000D02*
X136500000Y-100500000D01*
X142250000Y-96500000D02*
X142250000Y-98000000D01*
%TO.C,U3*%
X119890000Y-75530000D02*
X141020000Y-75530000D01*
X141020000Y-93620000D01*
X119890000Y-93620000D01*
X119890000Y-75530000D01*
%TD*%
M02*
