M48
; DRILL file KiCad 10.0.0 date 2026-05-28T20:35:47
; FORMAT={-:-/ absolute / metric / decimal}
; #@! TF.CreationDate,2026-05-28T20:35:47+08:00
; #@! TF.GenerationSoftware,Kicad,Pcbnew,10.0.0
; #@! TF.FileFunction,Plated,1,2,PTH
FMAT,2
METRIC
; #@! TA.AperFunction,Plated,PTH,ComponentDrill
T1C0.700
; #@! TA.AperFunction,Plated,PTH,ComponentDrill
T2C0.762
; #@! TA.AperFunction,Plated,PTH,ComponentDrill
T3C0.800
; #@! TA.AperFunction,Plated,PTH,ComponentDrill
T4C1.000
; #@! TA.AperFunction,Plated,PTH,ComponentDrill
T5C1.100
; #@! TA.AperFunction,Plated,PTH,ComponentDrill
T6C1.540
%
G90
G05
T1
X136.652Y-114.096
X136.652Y-116.636
T2
X121.29Y-76.97
X121.29Y-79.51
X121.29Y-89.47
X121.29Y-92.01
X139.34Y-76.63
X139.34Y-79.17
X139.34Y-81.71
X139.34Y-89.5
X139.34Y-92.04
T3
X112.25Y-93.992
X112.25Y-101.492
X112.268Y-103.632
X112.268Y-111.132
X115.88Y-76.93
X115.88Y-79.47
X115.88Y-82.01
X115.88Y-84.55
X115.88Y-87.09
X115.88Y-89.63
X115.88Y-92.17
X115.88Y-94.71
X115.88Y-97.25
X115.88Y-99.79
X115.88Y-102.33
X115.88Y-104.87
X115.88Y-107.41
X115.88Y-109.95
X123.5Y-76.93
X123.5Y-79.47
X123.5Y-82.01
X123.5Y-84.55
X123.5Y-87.09
X123.5Y-89.63
X123.5Y-92.17
X123.5Y-94.71
X123.5Y-97.25
X123.5Y-99.79
X123.5Y-102.33
X123.5Y-104.87
X123.5Y-107.41
X123.5Y-109.95
T4
X112.25Y-78.34
X112.25Y-80.88
X112.25Y-83.42
X112.25Y-85.96
X112.25Y-88.5
X112.25Y-91.04
X116.332Y-114.3
X116.332Y-116.84
X118.872Y-114.3
X118.872Y-116.84
X121.412Y-114.3
X121.412Y-116.84
X123.952Y-114.3
X123.952Y-116.84
X127.0Y-76.708
X127.635Y-96.52
X127.635Y-99.06
X129.54Y-76.708
X132.08Y-76.708
X133.096Y-114.051
X133.096Y-116.591
X134.62Y-76.708
X137.16Y-76.708
T5
X135.5Y-95.0
X135.5Y-99.5
X142.0Y-95.0
X142.0Y-99.5
T6
X128.065Y-106.005
X128.365Y-128.905
X131.465Y-106.005
X139.065Y-106.005
X142.565Y-106.005
X142.565Y-128.905
M30
