ISO-10303-21;
HEADER;

/* File generated by Shapr3D Version 26.90.10979.0 */

FILE_DESCRIPTION(('HOOPS Exchange Step'),'2;1');

FILE_NAME('C:\\Users\\Linus\\AppData\\Local\\Packages\\Shapr3D.Shapr3D_dvv5p1vgwv6mp\\TempState\\export\\temp_export',
'2026-06-03T20:41:29+08:00',
('Linus'),
('Shapr3D Limited'),
'HOOPS Exchange 2026.3',
'Shapr3D',
'Authorized');

FILE_SCHEMA( ('AP242_MANAGED_MODEL_BASED_3D_ENGINEERING_MIM_LF {1 0 10303 442 1 1 4}') );

ENDSEC;

DATA;
#3=(NAMED_UNIT(*)PLANE_ANGLE_UNIT()SI_UNIT($,.RADIAN.));
#4=PLANE_ANGLE_MEASURE_WITH_UNIT(PLANE_ANGLE_MEASURE(0.0174532925),#3);
#5=(CONVERSION_BASED_UNIT('DEGREE',#4)NAMED_UNIT(#6)PLANE_ANGLE_UNIT());
#6=DIMENSIONAL_EXPONENTS(0.,0.,0.,0.,0.,0.,0.);
#7=(NAMED_UNIT(*)SI_UNIT($,.STERADIAN.)SOLID_ANGLE_UNIT());
#8=(LENGTH_UNIT()NAMED_UNIT(*)SI_UNIT(.MILLI.,.METRE.));
#9=UNCERTAINTY_MEASURE_WITH_UNIT(LENGTH_MEASURE(1.000000E-05),#8,'DISTANCE_ACCURACY_VALUE','Maximum Tolerance applied to model');
#10=(GEOMETRIC_REPRESENTATION_CONTEXT(3)GLOBAL_UNCERTAINTY_ASSIGNED_CONTEXT((#9))GLOBAL_UNIT_ASSIGNED_CONTEXT((#8,#5,#7))REPRESENTATION_CONTEXT('','root'));
#12=CARTESIAN_POINT('',(0.,0.,0.));
#13=DIRECTION('',(0.,0.,1.));
#14=DIRECTION('',(1.,0.,0.));
#15=AXIS2_PLACEMENT_3D('',#12,#13,#14);
#27=CARTESIAN_POINT('',(164.939955007,-58.417535902,-4.352166835));
#28=DIRECTION('',(0.,0.,-1.));
#29=DIRECTION('',(-0.707106781,-0.707106781,-0.));
#30=AXIS2_PLACEMENT_3D('',#27,#28,#29);
#31=PLANE('',#30);
#32=CARTESIAN_POINT('',(155.784985787,-110.741535902,-4.352166835));
#33=VERTEX_POINT('',#32);
#34=CARTESIAN_POINT('',(147.605826242,-110.741535902,-4.352166835));
#35=VERTEX_POINT('',#34);
#36=CARTESIAN_POINT('',(147.605826242,-110.741535902,-4.352166835));
#37=CARTESIAN_POINT('',(147.605826242,-110.206283199,-4.352166835));
#38=CARTESIAN_POINT('',(147.712294624,-109.671030496,-4.352166835));
#39=CARTESIAN_POINT('',(147.917126966,-109.176521478,-4.352166835));
#40=CARTESIAN_POINT('',(148.121959307,-108.682012461,-4.352166835));
#41=CARTESIAN_POINT('',(148.425155609,-108.228247129,-4.352166835));
#42=CARTESIAN_POINT('',(148.803636425,-107.849766313,-4.352166835));
#43=CARTESIAN_POINT('',(149.182117241,-107.471285497,-4.352166835));
#44=CARTESIAN_POINT('',(149.635882572,-107.168089196,-4.352166835));
#45=CARTESIAN_POINT('',(150.13039159,-106.963256854,-4.352166835));
#46=CARTESIAN_POINT('',(150.624900607,-106.758424512,-4.352166835));
#47=CARTESIAN_POINT('',(151.160153311,-106.65195613,-4.352166835));
#48=CARTESIAN_POINT('',(151.695406014,-106.65195613,-4.352166835));
#49=CARTESIAN_POINT('',(152.230658718,-106.65195613,-4.352166835));
#50=CARTESIAN_POINT('',(152.765911421,-106.758424512,-4.352166835));
#51=CARTESIAN_POINT('',(153.260420439,-106.963256854,-4.352166835));
#52=CARTESIAN_POINT('',(153.754929456,-107.168089196,-4.352166835));
#53=CARTESIAN_POINT('',(154.208694787,-107.471285497,-4.352166835));
#54=CARTESIAN_POINT('',(154.587175604,-107.849766313,-4.352166835));
#55=CARTESIAN_POINT('',(154.96565642,-108.228247129,-4.352166835));
#56=CARTESIAN_POINT('',(155.268852721,-108.682012461,-4.352166835));
#57=CARTESIAN_POINT('',(155.473685063,-109.176521478,-4.352166835));
#58=CARTESIAN_POINT('',(155.678517404,-109.671030496,-4.352166835));
#59=CARTESIAN_POINT('',(155.784985787,-110.206283199,-4.352166835));
#60=CARTESIAN_POINT('',(155.784985787,-110.741535902,-4.352166835));
#61=CARTESIAN_POINT('',(155.784985787,-111.276788606,-4.352166835));
#62=CARTESIAN_POINT('',(155.678517404,-111.812041309,-4.352166835));
#63=CARTESIAN_POINT('',(155.473685063,-112.306550327,-4.352166835));
#64=CARTESIAN_POINT('',(155.268852721,-112.801059344,-4.352166835));
#65=CARTESIAN_POINT('',(154.96565642,-113.254824676,-4.352166835));
#66=CARTESIAN_POINT('',(154.587175604,-113.633305492,-4.352166835));
#67=CARTESIAN_POINT('',(154.208694787,-114.011786308,-4.352166835));
#68=CARTESIAN_POINT('',(153.754929456,-114.314982609,-4.352166835));
#69=CARTESIAN_POINT('',(153.260420439,-114.519814951,-4.352166835));
#70=CARTESIAN_POINT('',(152.765911421,-114.724647293,-4.352166835));
#71=CARTESIAN_POINT('',(152.230658718,-114.831115675,-4.352166835));
#72=CARTESIAN_POINT('',(151.695406014,-114.831115675,-4.352166835));
#73=CARTESIAN_POINT('',(151.160153311,-114.831115675,-4.352166835));
#74=CARTESIAN_POINT('',(150.624900607,-114.724647293,-4.352166835));
#75=CARTESIAN_POINT('',(150.13039159,-114.519814951,-4.352166835));
#76=CARTESIAN_POINT('',(149.635882572,-114.314982609,-4.352166835));
#77=CARTESIAN_POINT('',(149.182117241,-114.011786308,-4.352166835));
#78=CARTESIAN_POINT('',(148.803636425,-113.633305492,-4.352166835));
#79=CARTESIAN_POINT('',(148.425155609,-113.254824676,-4.352166835));
#80=CARTESIAN_POINT('',(148.121959307,-112.801059344,-4.352166835));
#81=CARTESIAN_POINT('',(147.917126966,-112.306550327,-4.352166835));
#82=CARTESIAN_POINT('',(147.712294624,-111.812041309,-4.352166835));
#83=CARTESIAN_POINT('',(147.605826242,-111.276788606,-4.352166835));
#84=CARTESIAN_POINT('',(147.605826242,-110.741535902,-4.352166835));
#85=B_SPLINE_CURVE_WITH_KNOTS('',3,(#36,#37,#38,#39,#40,#41,#42,#43,#44,#45,#46,#47,#48,#49,#50,#51,#52,#53,#54,#55,#56,#57,#58,#59,#60,#61,
#62,#63,#64,#65,#66,#67,#68,#69,#70,#71,#72,#73,#74,#75,#76,#77,#78,#79,#80,#81,#82,#83,#84),.UNSPECIFIED.,.T.,.F.,(4,3,3,3,3,3,3,3,3,3,3,3,3,3,3,3,4),(0.,0.0625,0.125,0.1875,0.25,0.3125,0.375,0.4375,0.5,0.5625,0.625,0.6875,0.75,0.8125,0.875,0.9375,1.),.UNSPECIFIED.);
#86=EDGE_CURVE('',#33,#35,#85,.T.);
#87=ORIENTED_EDGE('',*,*,#86,.F.);
#88=CARTESIAN_POINT('',(147.605826242,-110.741535902,-4.352166835));
#89=CARTESIAN_POINT('',(147.605826242,-110.206283199,-4.352166835));
#90=CARTESIAN_POINT('',(147.712294624,-109.671030496,-4.352166835));
#91=CARTESIAN_POINT('',(147.917126966,-109.176521478,-4.352166835));
#92=CARTESIAN_POINT('',(148.121959307,-108.682012461,-4.352166835));
#93=CARTESIAN_POINT('',(148.425155609,-108.228247129,-4.352166835));
#94=CARTESIAN_POINT('',(148.803636425,-107.849766313,-4.352166835));
#95=CARTESIAN_POINT('',(149.182117241,-107.471285497,-4.352166835));
#96=CARTESIAN_POINT('',(149.635882572,-107.168089196,-4.352166835));
#97=CARTESIAN_POINT('',(150.13039159,-106.963256854,-4.352166835));
#98=CARTESIAN_POINT('',(150.624900607,-106.758424512,-4.352166835));
#99=CARTESIAN_POINT('',(151.160153311,-106.65195613,-4.352166835));
#100=CARTESIAN_POINT('',(151.695406014,-106.65195613,-4.352166835));
#101=CARTESIAN_POINT('',(152.230658718,-106.65195613,-4.352166835));
#102=CARTESIAN_POINT('',(152.765911421,-106.758424512,-4.352166835));
#103=CARTESIAN_POINT('',(153.260420439,-106.963256854,-4.352166835));
#104=CARTESIAN_POINT('',(153.754929456,-107.168089196,-4.352166835));
#105=CARTESIAN_POINT('',(154.208694787,-107.471285497,-4.352166835));
#106=CARTESIAN_POINT('',(154.587175604,-107.849766313,-4.352166835));
#107=CARTESIAN_POINT('',(154.96565642,-108.228247129,-4.352166835));
#108=CARTESIAN_POINT('',(155.268852721,-108.682012461,-4.352166835));
#109=CARTESIAN_POINT('',(155.473685063,-109.176521478,-4.352166835));
#110=CARTESIAN_POINT('',(155.678517404,-109.671030496,-4.352166835));
#111=CARTESIAN_POINT('',(155.784985787,-110.206283199,-4.352166835));
#112=CARTESIAN_POINT('',(155.784985787,-110.741535902,-4.352166835));
#113=CARTESIAN_POINT('',(155.784985787,-111.276788606,-4.352166835));
#114=CARTESIAN_POINT('',(155.678517404,-111.812041309,-4.352166835));
#115=CARTESIAN_POINT('',(155.473685063,-112.306550327,-4.352166835));
#116=CARTESIAN_POINT('',(155.268852721,-112.801059344,-4.352166835));
#117=CARTESIAN_POINT('',(154.96565642,-113.254824676,-4.352166835));
#118=CARTESIAN_POINT('',(154.587175604,-113.633305492,-4.352166835));
#119=CARTESIAN_POINT('',(154.208694787,-114.011786308,-4.352166835));
#120=CARTESIAN_POINT('',(153.754929456,-114.314982609,-4.352166835));
#121=CARTESIAN_POINT('',(153.260420439,-114.519814951,-4.352166835));
#122=CARTESIAN_POINT('',(152.765911421,-114.724647293,-4.352166835));
#123=CARTESIAN_POINT('',(152.230658718,-114.831115675,-4.352166835));
#124=CARTESIAN_POINT('',(151.695406014,-114.831115675,-4.352166835));
#125=CARTESIAN_POINT('',(151.160153311,-114.831115675,-4.352166835));
#126=CARTESIAN_POINT('',(150.624900607,-114.724647293,-4.352166835));
#127=CARTESIAN_POINT('',(150.13039159,-114.519814951,-4.352166835));
#128=CARTESIAN_POINT('',(149.635882572,-114.314982609,-4.352166835));
#129=CARTESIAN_POINT('',(149.182117241,-114.011786308,-4.352166835));
#130=CARTESIAN_POINT('',(148.803636425,-113.633305492,-4.352166835));
#131=CARTESIAN_POINT('',(148.425155609,-113.254824676,-4.352166835));
#132=CARTESIAN_POINT('',(148.121959307,-112.801059344,-4.352166835));
#133=CARTESIAN_POINT('',(147.917126966,-112.306550327,-4.352166835));
#134=CARTESIAN_POINT('',(147.712294624,-111.812041309,-4.352166835));
#135=CARTESIAN_POINT('',(147.605826242,-111.276788606,-4.352166835));
#136=CARTESIAN_POINT('',(147.605826242,-110.741535902,-4.352166835));
#137=B_SPLINE_CURVE_WITH_KNOTS('',3,(#88,#89,#90,#91,#92,#93,#94,#95,#96,#97,#98,#99,#100,#101,#102,#103,#104,#105,#106,#107,#108,#109,#110,#111,#112,#113,
#114,#115,#116,#117,#118,#119,#120,#121,#122,#123,#124,#125,#126,#127,#128,#129,#130,#131,#132,#133,#134,#135,#136),.UNSPECIFIED.,.T.,.F.,(4,3,3,3,3,3,3,3,3,3,3,3,3,3,3,3,4),(0.,0.0625,0.125,0.1875,0.25,0.3125,0.375,0.4375,0.5,0.5625,0.625,0.6875,0.75,0.8125,0.875,0.9375,1.),.UNSPECIFIED.);
#138=EDGE_CURVE('',#35,#33,#137,.T.);
#139=ORIENTED_EDGE('',*,*,#138,.F.);
#140=EDGE_LOOP('',(#87,#139));
#141=FACE_BOUND('',#140,.T.);
#142=CARTESIAN_POINT('',(153.095406014,-110.241535902,-4.352166835));
#143=VERTEX_POINT('',#142);
#144=CARTESIAN_POINT('',(152.195406014,-110.241535902,-4.352166835));
#145=VERTEX_POINT('',#144);
#146=CARTESIAN_POINT('',(153.095406014,-110.241535902,-4.352166835));
#147=DIRECTION('',(-1.,0.,-0.));
#148=VECTOR('',#147,0.9);
#149=LINE('',#146,#148);
#150=EDGE_CURVE('',#143,#145,#149,.T.);
#151=ORIENTED_EDGE('',*,*,#150,.F.);
#152=CARTESIAN_POINT('',(153.095406014,-111.241535902,-4.352166835));
#153=VERTEX_POINT('',#152);
#154=CARTESIAN_POINT('',(153.095406014,-111.241535902,-4.352166835));
#155=DIRECTION('',(0.,1.,0.));
#156=VECTOR('',#155,1.);
#157=LINE('',#154,#156);
#158=EDGE_CURVE('',#153,#143,#157,.T.);
#159=ORIENTED_EDGE('',*,*,#158,.F.);
#160=CARTESIAN_POINT('',(152.195406014,-111.241535902,-4.352166835));
#161=VERTEX_POINT('',#160);
#162=CARTESIAN_POINT('',(152.195406014,-111.241535902,-4.352166835));
#163=DIRECTION('',(1.,-0.,0.));
#164=VECTOR('',#163,0.9);
#165=LINE('',#162,#164);
#166=EDGE_CURVE('',#161,#153,#165,.T.);
#167=ORIENTED_EDGE('',*,*,#166,.F.);
#168=CARTESIAN_POINT('',(152.195406014,-112.141535902,-4.352166835));
#169=VERTEX_POINT('',#168);
#170=CARTESIAN_POINT('',(152.195406014,-112.141535902,-4.352166835));
#171=DIRECTION('',(0.,1.,0.));
#172=VECTOR('',#171,0.9);
#173=LINE('',#170,#172);
#174=EDGE_CURVE('',#169,#161,#173,.T.);
#175=ORIENTED_EDGE('',*,*,#174,.F.);
#176=CARTESIAN_POINT('',(151.195406014,-112.141535902,-4.352166835));
#177=VERTEX_POINT('',#176);
#178=CARTESIAN_POINT('',(151.195406014,-112.141535902,-4.352166835));
#179=DIRECTION('',(1.,-0.,0.));
#180=VECTOR('',#179,1.);
#181=LINE('',#178,#180);
#182=EDGE_CURVE('',#177,#169,#181,.T.);
#183=ORIENTED_EDGE('',*,*,#182,.F.);
#184=CARTESIAN_POINT('',(151.195406014,-111.241535902,-4.352166835));
#185=VERTEX_POINT('',#184);
#186=CARTESIAN_POINT('',(151.195406014,-111.241535902,-4.352166835));
#187=DIRECTION('',(-0.,-1.,-0.));
#188=VECTOR('',#187,0.9);
#189=LINE('',#186,#188);
#190=EDGE_CURVE('',#185,#177,#189,.T.);
#191=ORIENTED_EDGE('',*,*,#190,.F.);
#192=CARTESIAN_POINT('',(150.295406014,-111.241535902,-4.352166835));
#193=VERTEX_POINT('',#192);
#194=CARTESIAN_POINT('',(150.295406014,-111.241535902,-4.352166835));
#195=DIRECTION('',(1.,-0.,0.));
#196=VECTOR('',#195,0.9);
#197=LINE('',#194,#196);
#198=EDGE_CURVE('',#193,#185,#197,.T.);
#199=ORIENTED_EDGE('',*,*,#198,.F.);
#200=CARTESIAN_POINT('',(150.295406014,-110.241535902,-4.352166835));
#201=VERTEX_POINT('',#200);
#202=CARTESIAN_POINT('',(150.295406014,-110.241535902,-4.352166835));
#203=DIRECTION('',(-0.,-1.,-0.));
#204=VECTOR('',#203,1.);
#205=LINE('',#202,#204);
#206=EDGE_CURVE('',#201,#193,#205,.T.);
#207=ORIENTED_EDGE('',*,*,#206,.F.);
#208=CARTESIAN_POINT('',(151.195406014,-110.241535902,-4.352166835));
#209=VERTEX_POINT('',#208);
#210=CARTESIAN_POINT('',(151.195406014,-110.241535902,-4.352166835));
#211=DIRECTION('',(-1.,0.,-0.));
#212=VECTOR('',#211,0.9);
#213=LINE('',#210,#212);
#214=EDGE_CURVE('',#209,#201,#213,.T.);
#215=ORIENTED_EDGE('',*,*,#214,.F.);
#216=CARTESIAN_POINT('',(151.195406014,-109.341535902,-4.352166835));
#217=VERTEX_POINT('',#216);
#218=CARTESIAN_POINT('',(151.195406014,-109.341535902,-4.352166835));
#219=DIRECTION('',(-0.,-1.,-0.));
#220=VECTOR('',#219,0.9);
#221=LINE('',#218,#220);
#222=EDGE_CURVE('',#217,#209,#221,.T.);
#223=ORIENTED_EDGE('',*,*,#222,.F.);
#224=CARTESIAN_POINT('',(152.195406014,-109.341535902,-4.352166835));
#225=VERTEX_POINT('',#224);
#226=CARTESIAN_POINT('',(152.195406014,-109.341535902,-4.352166835));
#227=DIRECTION('',(-1.,0.,-0.));
#228=VECTOR('',#227,1.);
#229=LINE('',#226,#228);
#230=EDGE_CURVE('',#225,#217,#229,.T.);
#231=ORIENTED_EDGE('',*,*,#230,.F.);
#232=CARTESIAN_POINT('',(152.195406014,-110.241535902,-4.352166835));
#233=DIRECTION('',(0.,1.,0.));
#234=VECTOR('',#233,0.9);
#235=LINE('',#232,#234);
#236=EDGE_CURVE('',#145,#225,#235,.T.);
#237=ORIENTED_EDGE('',*,*,#236,.F.);
#238=EDGE_LOOP('',(#151,#159,#167,#175,#183,#191,#199,#207,#215,#223,#231,#237));
#239=FACE_BOUND('',#238,.T.);
#240=ADVANCED_FACE('',(#141,#239),#31,.F.);
#241=CARTESIAN_POINT('',(154.915547567,-110.741535902,-7.852166835));
#242=CARTESIAN_POINT('',(155.205360307,-110.741535902,-6.685500168));
#243=CARTESIAN_POINT('',(155.495173047,-110.741535902,-5.518833502));
#244=CARTESIAN_POINT('',(155.784985787,-110.741535902,-4.352166835));
#245=CARTESIAN_POINT('',(154.915547567,-110.320077081,-7.852166835));
#246=CARTESIAN_POINT('',(155.205360307,-110.282145787,-6.685500168));
#247=CARTESIAN_POINT('',(155.495173047,-110.244214493,-5.518833502));
#248=CARTESIAN_POINT('',(155.784985787,-110.206283199,-4.352166835));
#249=CARTESIAN_POINT('',(154.747880824,-109.477159438,-7.852166835));
#250=CARTESIAN_POINT('',(155.022603556,-109.363365556,-6.685500168));
#251=CARTESIAN_POINT('',(155.297326289,-109.249571674,-5.518833502));
#252=CARTESIAN_POINT('',(155.572049022,-109.135777792,-4.352166835));
#253=CARTESIAN_POINT('',(154.031669089,-108.405272828,-7.852166835));
#254=CARTESIAN_POINT('',(154.241932765,-108.195009151,-6.685500168));
#255=CARTESIAN_POINT('',(154.452196442,-107.984745475,-5.518833502));
#256=CARTESIAN_POINT('',(154.662460119,-107.774481798,-4.352166835));
#257=CARTESIAN_POINT('',(152.959782479,-107.689061093,-7.852166835));
#258=CARTESIAN_POINT('',(153.073576361,-107.41433836,-6.685500168));
#259=CARTESIAN_POINT('',(153.187370243,-107.139615627,-5.518833502));
#260=CARTESIAN_POINT('',(153.301164125,-106.864892895,-4.352166835));
#261=CARTESIAN_POINT('',(151.695406014,-107.437560977,-7.852166835));
#262=CARTESIAN_POINT('',(151.695406014,-107.140203234,-6.685500168));
#263=CARTESIAN_POINT('',(151.695406014,-106.842845491,-5.518833502));
#264=CARTESIAN_POINT('',(151.695406014,-106.545487747,-4.352166835));
#265=CARTESIAN_POINT('',(150.431029549,-107.689061093,-7.852166835));
#266=CARTESIAN_POINT('',(150.317235668,-107.41433836,-6.685500168));
#267=CARTESIAN_POINT('',(150.203441786,-107.139615627,-5.518833502));
#268=CARTESIAN_POINT('',(150.089647904,-106.864892895,-4.352166835));
#269=CARTESIAN_POINT('',(149.35914294,-108.405272828,-7.852166835));
#270=CARTESIAN_POINT('',(149.148879263,-108.195009151,-6.685500168));
#271=CARTESIAN_POINT('',(148.938615586,-107.984745475,-5.518833502));
#272=CARTESIAN_POINT('',(148.72835191,-107.774481798,-4.352166835));
#273=CARTESIAN_POINT('',(148.642931205,-109.477159438,-7.852166835));
#274=CARTESIAN_POINT('',(148.368208472,-109.363365556,-6.685500168));
#275=CARTESIAN_POINT('',(148.093485739,-109.249571674,-5.518833502));
#276=CARTESIAN_POINT('',(147.818763006,-109.135777792,-4.352166835));
#277=CARTESIAN_POINT('',(148.391431089,-110.741535902,-7.852166835));
#278=CARTESIAN_POINT('',(148.094073346,-110.741535902,-6.685500168));
#279=CARTESIAN_POINT('',(147.796715602,-110.741535902,-5.518833502));
#280=CARTESIAN_POINT('',(147.499357859,-110.741535902,-4.352166835));
#281=CARTESIAN_POINT('',(148.642931205,-112.005912367,-7.852166835));
#282=CARTESIAN_POINT('',(148.368208472,-112.119706249,-6.685500168));
#283=CARTESIAN_POINT('',(148.093485739,-112.233500131,-5.518833502));
#284=CARTESIAN_POINT('',(147.818763006,-112.347294013,-4.352166835));
#285=CARTESIAN_POINT('',(149.35914294,-113.077798977,-7.852166835));
#286=CARTESIAN_POINT('',(149.148879263,-113.288062654,-6.685500168));
#287=CARTESIAN_POINT('',(148.938615586,-113.49832633,-5.518833502));
#288=CARTESIAN_POINT('',(148.72835191,-113.708590007,-4.352166835));
#289=CARTESIAN_POINT('',(150.431029549,-113.794010712,-7.852166835));
#290=CARTESIAN_POINT('',(150.317235668,-114.068733445,-6.685500168));
#291=CARTESIAN_POINT('',(150.203441786,-114.343456177,-5.518833502));
#292=CARTESIAN_POINT('',(150.089647904,-114.61817891,-4.352166835));
#293=CARTESIAN_POINT('',(151.695406014,-114.045510828,-7.852166835));
#294=CARTESIAN_POINT('',(151.695406014,-114.342868571,-6.685500168));
#295=CARTESIAN_POINT('',(151.695406014,-114.640226314,-5.518833502));
#296=CARTESIAN_POINT('',(151.695406014,-114.937584057,-4.352166835));
#297=CARTESIAN_POINT('',(152.959782479,-113.794010712,-7.852166835));
#298=CARTESIAN_POINT('',(153.073576361,-114.068733445,-6.685500168));
#299=CARTESIAN_POINT('',(153.187370243,-114.343456177,-5.518833502));
#300=CARTESIAN_POINT('',(153.301164125,-114.61817891,-4.352166835));
#301=CARTESIAN_POINT('',(154.031669089,-113.077798977,-7.852166835));
#302=CARTESIAN_POINT('',(154.241932765,-113.288062654,-6.685500168));
#303=CARTESIAN_POINT('',(154.452196442,-113.49832633,-5.518833502));
#304=CARTESIAN_POINT('',(154.662460119,-113.708590007,-4.352166835));
#305=CARTESIAN_POINT('',(154.747880824,-112.005912367,-7.852166835));
#306=CARTESIAN_POINT('',(155.022603556,-112.119706249,-6.685500168));
#307=CARTESIAN_POINT('',(155.297326289,-112.233500131,-5.518833502));
#308=CARTESIAN_POINT('',(155.572049022,-112.347294013,-4.352166835));
#309=CARTESIAN_POINT('',(154.915547567,-111.162994724,-7.852166835));
#310=CARTESIAN_POINT('',(155.205360307,-111.200926018,-6.685500168));
#311=CARTESIAN_POINT('',(155.495173047,-111.238857312,-5.518833502));
#312=CARTESIAN_POINT('',(155.784985787,-111.276788606,-4.352166835));
#313=CARTESIAN_POINT('',(154.915547567,-110.741535902,-7.852166835));
#314=CARTESIAN_POINT('',(155.205360307,-110.741535902,-6.685500168));
#315=CARTESIAN_POINT('',(155.495173047,-110.741535902,-5.518833502));
#316=CARTESIAN_POINT('',(155.784985787,-110.741535902,-4.352166835));
#317=B_SPLINE_SURFACE_WITH_KNOTS('',3,3,((#241,#242,#243,#244),(#245,#246,#247,#248),(#249,#250,#251,#252),(#253,#254,#255,#256),(#257,#258,#259,#260),(#261,#262,#263,#264),(#265,#266,#267,#268),(#269,#270,#271,#272),(#273,#274,#275,#276),(#277,#278,#279,#280),(#281,#282,#283,#284),(#285,#286,#287,#288),(#289,#290,#291,#292),(#293,#294,#295,#296),(#297,#298,#299,#300),(#301,#302,#303,#304),(#305,#306,#307,#308),(#309,#310,#311,#312),(#313,#314,#315,#316)),.UNSPECIFIED.,.T.,.F.,.U.,(4,1,1,1,1,1,1,1,1,1,1,1,1,1,1,1,4),(4,4),(0.,0.0625,0.125,0.1875,0.25,0.3125,0.375,0.4375,0.5,0.5625,0.625,0.6875,0.75,0.8125,0.875,0.9375,1.),(0.,1.),.UNSPECIFIED.);
#318=CARTESIAN_POINT('',(154.915547567,-110.741535902,-7.852166835));
#319=VERTEX_POINT('',#318);
#320=CARTESIAN_POINT('',(155.784985787,-110.741535902,-4.352166835));
#321=CARTESIAN_POINT('',(155.495173047,-110.741535902,-5.518833502));
#322=CARTESIAN_POINT('',(155.205360307,-110.741535902,-6.685500168));
#323=CARTESIAN_POINT('',(154.915547567,-110.741535902,-7.852166835));
#324=B_SPLINE_CURVE_WITH_KNOTS('',3,(#320,#321,#322,#323),.UNSPECIFIED.,.F.,.F.,(4,4),(0.,1.),.UNSPECIFIED.);
#325=EDGE_CURVE('',#33,#319,#324,.T.);
#326=ORIENTED_EDGE('',*,*,#325,.T.);
#327=CARTESIAN_POINT('',(148.475264461,-110.741535902,-7.852166835));
#328=VERTEX_POINT('',#327);
#329=CARTESIAN_POINT('',(148.475264461,-110.741535902,-7.852166835));
#330=CARTESIAN_POINT('',(148.475264461,-110.320077081,-7.852166835));
#331=CARTESIAN_POINT('',(148.559097833,-109.898618259,-7.852166835));
#332=CARTESIAN_POINT('',(148.720383141,-109.50924108,-7.852166835));
#333=CARTESIAN_POINT('',(148.88166845,-109.119863901,-7.852166835));
#334=CARTESIAN_POINT('',(149.120405695,-108.762568365,-7.852166835));
#335=CARTESIAN_POINT('',(149.418422086,-108.464551974,-7.852166835));
#336=CARTESIAN_POINT('',(149.716438476,-108.166535583,-7.852166835));
#337=CARTESIAN_POINT('',(150.073734013,-107.927798338,-7.852166835));
#338=CARTESIAN_POINT('',(150.463111192,-107.76651303,-7.852166835));
#339=CARTESIAN_POINT('',(150.852488371,-107.605227721,-7.852166835));
#340=CARTESIAN_POINT('',(151.273947193,-107.521394349,-7.852166835));
#341=CARTESIAN_POINT('',(151.695406014,-107.521394349,-7.852166835));
#342=CARTESIAN_POINT('',(152.116864836,-107.521394349,-7.852166835));
#343=CARTESIAN_POINT('',(152.538323657,-107.605227721,-7.852166835));
#344=CARTESIAN_POINT('',(152.927700837,-107.76651303,-7.852166835));
#345=CARTESIAN_POINT('',(153.317078016,-107.927798338,-7.852166835));
#346=CARTESIAN_POINT('',(153.674373552,-108.166535583,-7.852166835));
#347=CARTESIAN_POINT('',(153.972389943,-108.464551974,-7.852166835));
#348=CARTESIAN_POINT('',(154.270406334,-108.762568365,-7.852166835));
#349=CARTESIAN_POINT('',(154.509143579,-109.119863901,-7.852166835));
#350=CARTESIAN_POINT('',(154.670428887,-109.50924108,-7.852166835));
#351=CARTESIAN_POINT('',(154.831714196,-109.898618259,-7.852166835));
#352=CARTESIAN_POINT('',(154.915547567,-110.320077081,-7.852166835));
#353=CARTESIAN_POINT('',(154.915547567,-110.741535902,-7.852166835));
#354=CARTESIAN_POINT('',(154.915547567,-111.162994724,-7.852166835));
#355=CARTESIAN_POINT('',(154.831714196,-111.584453546,-7.852166835));
#356=CARTESIAN_POINT('',(154.670428887,-111.973830725,-7.852166835));
#357=CARTESIAN_POINT('',(154.509143579,-112.363207904,-7.852166835));
#358=CARTESIAN_POINT('',(154.270406334,-112.72050344,-7.852166835));
#359=CARTESIAN_POINT('',(153.972389943,-113.018519831,-7.852166835));
#360=CARTESIAN_POINT('',(153.674373552,-113.316536222,-7.852166835));
#361=CARTESIAN_POINT('',(153.317078016,-113.555273467,-7.852166835));
#362=CARTESIAN_POINT('',(152.927700837,-113.716558775,-7.852166835));
#363=CARTESIAN_POINT('',(152.538323657,-113.877844084,-7.852166835));
#364=CARTESIAN_POINT('',(152.116864836,-113.961677456,-7.852166835));
#365=CARTESIAN_POINT('',(151.695406014,-113.961677456,-7.852166835));
#366=CARTESIAN_POINT('',(151.273947193,-113.961677456,-7.852166835));
#367=CARTESIAN_POINT('',(150.852488371,-113.877844084,-7.852166835));
#368=CARTESIAN_POINT('',(150.463111192,-113.716558775,-7.852166835));
#369=CARTESIAN_POINT('',(150.073734013,-113.555273467,-7.852166835));
#370=CARTESIAN_POINT('',(149.716438476,-113.316536222,-7.852166835));
#371=CARTESIAN_POINT('',(149.418422086,-113.018519831,-7.852166835));
#372=CARTESIAN_POINT('',(149.120405695,-112.72050344,-7.852166835));
#373=CARTESIAN_POINT('',(148.88166845,-112.363207904,-7.852166835));
#374=CARTESIAN_POINT('',(148.720383141,-111.973830725,-7.852166835));
#375=CARTESIAN_POINT('',(148.559097833,-111.584453546,-7.852166835));
#376=CARTESIAN_POINT('',(148.475264461,-111.162994724,-7.852166835));
#377=CARTESIAN_POINT('',(148.475264461,-110.741535902,-7.852166835));
#378=B_SPLINE_CURVE_WITH_KNOTS('',3,(#329,#330,#331,#332,#333,#334,#335,#336,#337,#338,#339,#340,#341,#342,#343,#344,#345,#346,#347,#348,#349,#350,#351,#352,#353,#354,
#355,#356,#357,#358,#359,#360,#361,#362,#363,#364,#365,#366,#367,#368,#369,#370,#371,#372,#373,#374,#375,#376,#377),.UNSPECIFIED.,.T.,.F.,(4,3,3,3,3,3,3,3,3,3,3,3,3,3,3,3,4),(0.,0.0625,0.125,0.1875,0.25,0.3125,0.375,0.4375,0.5,0.5625,0.625,0.6875,0.75,0.8125,0.875,0.9375,1.),.UNSPECIFIED.);
#379=EDGE_CURVE('',#328,#319,#378,.T.);
#380=ORIENTED_EDGE('',*,*,#379,.F.);
#381=CARTESIAN_POINT('',(148.475264461,-110.741535902,-7.852166835));
#382=CARTESIAN_POINT('',(148.475264461,-110.320077081,-7.852166835));
#383=CARTESIAN_POINT('',(148.559097833,-109.898618259,-7.852166835));
#384=CARTESIAN_POINT('',(148.720383141,-109.50924108,-7.852166835));
#385=CARTESIAN_POINT('',(148.88166845,-109.119863901,-7.852166835));
#386=CARTESIAN_POINT('',(149.120405695,-108.762568365,-7.852166835));
#387=CARTESIAN_POINT('',(149.418422086,-108.464551974,-7.852166835));
#388=CARTESIAN_POINT('',(149.716438476,-108.166535583,-7.852166835));
#389=CARTESIAN_POINT('',(150.073734013,-107.927798338,-7.852166835));
#390=CARTESIAN_POINT('',(150.463111192,-107.76651303,-7.852166835));
#391=CARTESIAN_POINT('',(150.852488371,-107.605227721,-7.852166835));
#392=CARTESIAN_POINT('',(151.273947193,-107.521394349,-7.852166835));
#393=CARTESIAN_POINT('',(151.695406014,-107.521394349,-7.852166835));
#394=CARTESIAN_POINT('',(152.116864836,-107.521394349,-7.852166835));
#395=CARTESIAN_POINT('',(152.538323657,-107.605227721,-7.852166835));
#396=CARTESIAN_POINT('',(152.927700837,-107.76651303,-7.852166835));
#397=CARTESIAN_POINT('',(153.317078016,-107.927798338,-7.852166835));
#398=CARTESIAN_POINT('',(153.674373552,-108.166535583,-7.852166835));
#399=CARTESIAN_POINT('',(153.972389943,-108.464551974,-7.852166835));
#400=CARTESIAN_POINT('',(154.270406334,-108.762568365,-7.852166835));
#401=CARTESIAN_POINT('',(154.509143579,-109.119863901,-7.852166835));
#402=CARTESIAN_POINT('',(154.670428887,-109.50924108,-7.852166835));
#403=CARTESIAN_POINT('',(154.831714196,-109.898618259,-7.852166835));
#404=CARTESIAN_POINT('',(154.915547567,-110.320077081,-7.852166835));
#405=CARTESIAN_POINT('',(154.915547567,-110.741535902,-7.852166835));
#406=CARTESIAN_POINT('',(154.915547567,-111.162994724,-7.852166835));
#407=CARTESIAN_POINT('',(154.831714196,-111.584453546,-7.852166835));
#408=CARTESIAN_POINT('',(154.670428887,-111.973830725,-7.852166835));
#409=CARTESIAN_POINT('',(154.509143579,-112.363207904,-7.852166835));
#410=CARTESIAN_POINT('',(154.270406334,-112.72050344,-7.852166835));
#411=CARTESIAN_POINT('',(153.972389943,-113.018519831,-7.852166835));
#412=CARTESIAN_POINT('',(153.674373552,-113.316536222,-7.852166835));
#413=CARTESIAN_POINT('',(153.317078016,-113.555273467,-7.852166835));
#414=CARTESIAN_POINT('',(152.927700837,-113.716558775,-7.852166835));
#415=CARTESIAN_POINT('',(152.538323657,-113.877844084,-7.852166835));
#416=CARTESIAN_POINT('',(152.116864836,-113.961677456,-7.852166835));
#417=CARTESIAN_POINT('',(151.695406014,-113.961677456,-7.852166835));
#418=CARTESIAN_POINT('',(151.273947193,-113.961677456,-7.852166835));
#419=CARTESIAN_POINT('',(150.852488371,-113.877844084,-7.852166835));
#420=CARTESIAN_POINT('',(150.463111192,-113.716558775,-7.852166835));
#421=CARTESIAN_POINT('',(150.073734013,-113.555273467,-7.852166835));
#422=CARTESIAN_POINT('',(149.716438476,-113.316536222,-7.852166835));
#423=CARTESIAN_POINT('',(149.418422086,-113.018519831,-7.852166835));
#424=CARTESIAN_POINT('',(149.120405695,-112.72050344,-7.852166835));
#425=CARTESIAN_POINT('',(148.88166845,-112.363207904,-7.852166835));
#426=CARTESIAN_POINT('',(148.720383141,-111.973830725,-7.852166835));
#427=CARTESIAN_POINT('',(148.559097833,-111.584453546,-7.852166835));
#428=CARTESIAN_POINT('',(148.475264461,-111.162994724,-7.852166835));
#429=CARTESIAN_POINT('',(148.475264461,-110.741535902,-7.852166835));
#430=B_SPLINE_CURVE_WITH_KNOTS('',3,(#381,#382,#383,#384,#385,#386,#387,#388,#389,#390,#391,#392,#393,#394,#395,#396,#397,#398,#399,#400,#401,#402,#403,#404,#405,#406,
#407,#408,#409,#410,#411,#412,#413,#414,#415,#416,#417,#418,#419,#420,#421,#422,#423,#424,#425,#426,#427,#428,#429),.UNSPECIFIED.,.T.,.F.,(4,3,3,3,3,3,3,3,3,3,3,3,3,3,3,3,4),(0.,0.0625,0.125,0.1875,0.25,0.3125,0.375,0.4375,0.5,0.5625,0.625,0.6875,0.75,0.8125,0.875,0.9375,1.),.UNSPECIFIED.);
#431=EDGE_CURVE('',#319,#328,#430,.T.);
#432=ORIENTED_EDGE('',*,*,#431,.F.);
#433=ORIENTED_EDGE('',*,*,#325,.F.);
#434=ORIENTED_EDGE('',*,*,#86,.T.);
#435=ORIENTED_EDGE('',*,*,#138,.T.);
#436=EDGE_LOOP('',(#326,#380,#432,#433,#434,#435));
#437=FACE_BOUND('',#436,.T.);
#438=ADVANCED_FACE('',(#437),#317,.T.);
#439=CARTESIAN_POINT('',(162.124184749,-69.541535902,-7.852166835));
#440=DIRECTION('',(0.,0.,-1.));
#441=DIRECTION('',(-0.707106781,-0.707106781,-0.));
#442=AXIS2_PLACEMENT_3D('',#439,#440,#441);
#443=PLANE('',#442);
#444=ORIENTED_EDGE('',*,*,#379,.T.);
#445=ORIENTED_EDGE('',*,*,#431,.T.);
#446=EDGE_LOOP('',(#444,#445));
#447=FACE_BOUND('',#446,.T.);
#448=ADVANCED_FACE('',(#447),#443,.T.);
#449=CARTESIAN_POINT('',(153.445406014,-110.241535902,-2.252166835));
#450=DIRECTION('',(-0.,-1.,-0.));
#451=DIRECTION('',(-0.,-0.,1.));
#452=AXIS2_PLACEMENT_3D('',#449,#450,#451);
#453=PLANE('',#452);
#454=ORIENTED_EDGE('',*,*,#150,.T.);
#455=CARTESIAN_POINT('',(152.195406014,-110.241535902,-0.752166835));
#456=VERTEX_POINT('',#455);
#457=CARTESIAN_POINT('',(152.195406014,-110.241535902,-0.752166835));
#458=DIRECTION('',(0.,0.,-1.));
#459=VECTOR('',#458,3.6);
#460=LINE('',#457,#459);
#461=EDGE_CURVE('',#456,#145,#460,.T.);
#462=ORIENTED_EDGE('',*,*,#461,.F.);
#463=CARTESIAN_POINT('',(153.095406014,-110.241535902,-0.752166835));
#464=VERTEX_POINT('',#463);
#465=CARTESIAN_POINT('',(153.095406014,-110.241535902,-0.752166835));
#466=DIRECTION('',(-1.,0.,-0.));
#467=VECTOR('',#466,0.9);
#468=LINE('',#465,#467);
#469=EDGE_CURVE('',#464,#456,#468,.T.);
#470=ORIENTED_EDGE('',*,*,#469,.F.);
#471=CARTESIAN_POINT('',(153.095406014,-110.241535902,-0.752166835));
#472=DIRECTION('',(0.,0.,-1.));
#473=VECTOR('',#472,3.6);
#474=LINE('',#471,#473);
#475=EDGE_CURVE('',#464,#143,#474,.T.);
#476=ORIENTED_EDGE('',*,*,#475,.T.);
#477=EDGE_LOOP('',(#454,#462,#470,#476));
#478=FACE_BOUND('',#477,.T.);
#479=ADVANCED_FACE('',(#478),#453,.F.);
#480=CARTESIAN_POINT('',(152.195406014,-108.991535902,-2.252166835));
#481=DIRECTION('',(-1.,0.,-0.));
#482=DIRECTION('',(-0.,-0.,1.));
#483=AXIS2_PLACEMENT_3D('',#480,#481,#482);
#484=PLANE('',#483);
#485=ORIENTED_EDGE('',*,*,#236,.T.);
#486=CARTESIAN_POINT('',(152.195406014,-109.341535902,-0.752166835));
#487=VERTEX_POINT('',#486);
#488=CARTESIAN_POINT('',(152.195406014,-109.341535902,-0.752166835));
#489=DIRECTION('',(0.,0.,-1.));
#490=VECTOR('',#489,3.6);
#491=LINE('',#488,#490);
#492=EDGE_CURVE('',#487,#225,#491,.T.);
#493=ORIENTED_EDGE('',*,*,#492,.F.);
#494=CARTESIAN_POINT('',(152.195406014,-110.241535902,-0.752166835));
#495=DIRECTION('',(0.,1.,0.));
#496=VECTOR('',#495,0.9);
#497=LINE('',#494,#496);
#498=EDGE_CURVE('',#456,#487,#497,.T.);
#499=ORIENTED_EDGE('',*,*,#498,.F.);
#500=ORIENTED_EDGE('',*,*,#461,.T.);
#501=EDGE_LOOP('',(#485,#493,#499,#500));
#502=FACE_BOUND('',#501,.T.);
#503=ADVANCED_FACE('',(#502),#484,.F.);
#504=CARTESIAN_POINT('',(151.695406014,-109.341535902,-2.252166835));
#505=DIRECTION('',(-0.,-1.,-0.));
#506=DIRECTION('',(-0.,-0.,1.));
#507=AXIS2_PLACEMENT_3D('',#504,#505,#506);
#508=PLANE('',#507);
#509=ORIENTED_EDGE('',*,*,#230,.T.);
#510=CARTESIAN_POINT('',(151.195406014,-109.341535902,-0.752166835));
#511=VERTEX_POINT('',#510);
#512=CARTESIAN_POINT('',(151.195406014,-109.341535902,-0.752166835));
#513=DIRECTION('',(0.,0.,-1.));
#514=VECTOR('',#513,3.6);
#515=LINE('',#512,#514);
#516=EDGE_CURVE('',#511,#217,#515,.T.);
#517=ORIENTED_EDGE('',*,*,#516,.F.);
#518=CARTESIAN_POINT('',(152.195406014,-109.341535902,-0.752166835));
#519=DIRECTION('',(-1.,0.,-0.));
#520=VECTOR('',#519,1.);
#521=LINE('',#518,#520);
#522=EDGE_CURVE('',#487,#511,#521,.T.);
#523=ORIENTED_EDGE('',*,*,#522,.F.);
#524=ORIENTED_EDGE('',*,*,#492,.T.);
#525=EDGE_LOOP('',(#509,#517,#523,#524));
#526=FACE_BOUND('',#525,.T.);
#527=ADVANCED_FACE('',(#526),#508,.F.);
#528=CARTESIAN_POINT('',(151.195406014,-108.991535902,-2.252166835));
#529=DIRECTION('',(1.,-0.,0.));
#530=DIRECTION('',(0.,0.,-1.));
#531=AXIS2_PLACEMENT_3D('',#528,#529,#530);
#532=PLANE('',#531);
#533=ORIENTED_EDGE('',*,*,#222,.T.);
#534=CARTESIAN_POINT('',(151.195406014,-110.241535902,-0.752166835));
#535=VERTEX_POINT('',#534);
#536=CARTESIAN_POINT('',(151.195406014,-110.241535902,-0.752166835));
#537=DIRECTION('',(0.,0.,-1.));
#538=VECTOR('',#537,3.6);
#539=LINE('',#536,#538);
#540=EDGE_CURVE('',#535,#209,#539,.T.);
#541=ORIENTED_EDGE('',*,*,#540,.F.);
#542=CARTESIAN_POINT('',(151.195406014,-109.341535902,-0.752166835));
#543=DIRECTION('',(-0.,-1.,-0.));
#544=VECTOR('',#543,0.9);
#545=LINE('',#542,#544);
#546=EDGE_CURVE('',#511,#535,#545,.T.);
#547=ORIENTED_EDGE('',*,*,#546,.F.);
#548=ORIENTED_EDGE('',*,*,#516,.T.);
#549=EDGE_LOOP('',(#533,#541,#547,#548));
#550=FACE_BOUND('',#549,.T.);
#551=ADVANCED_FACE('',(#550),#532,.F.);
#552=CARTESIAN_POINT('',(149.945406014,-110.241535902,-2.252166835));
#553=DIRECTION('',(-0.,-1.,-0.));
#554=DIRECTION('',(-0.,-0.,1.));
#555=AXIS2_PLACEMENT_3D('',#552,#553,#554);
#556=PLANE('',#555);
#557=ORIENTED_EDGE('',*,*,#214,.T.);
#558=CARTESIAN_POINT('',(150.295406014,-110.241535902,-0.752166835));
#559=VERTEX_POINT('',#558);
#560=CARTESIAN_POINT('',(150.295406014,-110.241535902,-0.752166835));
#561=DIRECTION('',(0.,0.,-1.));
#562=VECTOR('',#561,3.6);
#563=LINE('',#560,#562);
#564=EDGE_CURVE('',#559,#201,#563,.T.);
#565=ORIENTED_EDGE('',*,*,#564,.F.);
#566=CARTESIAN_POINT('',(151.195406014,-110.241535902,-0.752166835));
#567=DIRECTION('',(-1.,0.,-0.));
#568=VECTOR('',#567,0.9);
#569=LINE('',#566,#568);
#570=EDGE_CURVE('',#535,#559,#569,.T.);
#571=ORIENTED_EDGE('',*,*,#570,.F.);
#572=ORIENTED_EDGE('',*,*,#540,.T.);
#573=EDGE_LOOP('',(#557,#565,#571,#572));
#574=FACE_BOUND('',#573,.T.);
#575=ADVANCED_FACE('',(#574),#556,.F.);
#576=CARTESIAN_POINT('',(150.295406014,-110.741535902,-2.252166835));
#577=DIRECTION('',(1.,-0.,0.));
#578=DIRECTION('',(0.,0.,-1.));
#579=AXIS2_PLACEMENT_3D('',#576,#577,#578);
#580=PLANE('',#579);
#581=ORIENTED_EDGE('',*,*,#206,.T.);
#582=CARTESIAN_POINT('',(150.295406014,-111.241535902,-0.752166835));
#583=VERTEX_POINT('',#582);
#584=CARTESIAN_POINT('',(150.295406014,-111.241535902,-0.752166835));
#585=DIRECTION('',(0.,0.,-1.));
#586=VECTOR('',#585,3.6);
#587=LINE('',#584,#586);
#588=EDGE_CURVE('',#583,#193,#587,.T.);
#589=ORIENTED_EDGE('',*,*,#588,.F.);
#590=CARTESIAN_POINT('',(150.295406014,-110.241535902,-0.752166835));
#591=DIRECTION('',(-0.,-1.,-0.));
#592=VECTOR('',#591,1.);
#593=LINE('',#590,#592);
#594=EDGE_CURVE('',#559,#583,#593,.T.);
#595=ORIENTED_EDGE('',*,*,#594,.F.);
#596=ORIENTED_EDGE('',*,*,#564,.T.);
#597=EDGE_LOOP('',(#581,#589,#595,#596));
#598=FACE_BOUND('',#597,.T.);
#599=ADVANCED_FACE('',(#598),#580,.F.);
#600=CARTESIAN_POINT('',(149.945406014,-111.241535902,-2.252166835));
#601=DIRECTION('',(0.,1.,0.));
#602=DIRECTION('',(0.,0.,-1.));
#603=AXIS2_PLACEMENT_3D('',#600,#601,#602);
#604=PLANE('',#603);
#605=ORIENTED_EDGE('',*,*,#198,.T.);
#606=CARTESIAN_POINT('',(151.195406014,-111.241535902,-0.752166835));
#607=VERTEX_POINT('',#606);
#608=CARTESIAN_POINT('',(151.195406014,-111.241535902,-0.752166835));
#609=DIRECTION('',(0.,0.,-1.));
#610=VECTOR('',#609,3.6);
#611=LINE('',#608,#610);
#612=EDGE_CURVE('',#607,#185,#611,.T.);
#613=ORIENTED_EDGE('',*,*,#612,.F.);
#614=CARTESIAN_POINT('',(150.295406014,-111.241535902,-0.752166835));
#615=DIRECTION('',(1.,-0.,0.));
#616=VECTOR('',#615,0.9);
#617=LINE('',#614,#616);
#618=EDGE_CURVE('',#583,#607,#617,.T.);
#619=ORIENTED_EDGE('',*,*,#618,.F.);
#620=ORIENTED_EDGE('',*,*,#588,.T.);
#621=EDGE_LOOP('',(#605,#613,#619,#620));
#622=FACE_BOUND('',#621,.T.);
#623=ADVANCED_FACE('',(#622),#604,.F.);
#624=CARTESIAN_POINT('',(151.195406014,-112.491535902,-2.252166835));
#625=DIRECTION('',(1.,-0.,0.));
#626=DIRECTION('',(0.,0.,-1.));
#627=AXIS2_PLACEMENT_3D('',#624,#625,#626);
#628=PLANE('',#627);
#629=ORIENTED_EDGE('',*,*,#190,.T.);
#630=CARTESIAN_POINT('',(151.195406014,-112.141535902,-0.752166835));
#631=VERTEX_POINT('',#630);
#632=CARTESIAN_POINT('',(151.195406014,-112.141535902,-0.752166835));
#633=DIRECTION('',(0.,0.,-1.));
#634=VECTOR('',#633,3.6);
#635=LINE('',#632,#634);
#636=EDGE_CURVE('',#631,#177,#635,.T.);
#637=ORIENTED_EDGE('',*,*,#636,.F.);
#638=CARTESIAN_POINT('',(151.195406014,-111.241535902,-0.752166835));
#639=DIRECTION('',(-0.,-1.,-0.));
#640=VECTOR('',#639,0.9);
#641=LINE('',#638,#640);
#642=EDGE_CURVE('',#607,#631,#641,.T.);
#643=ORIENTED_EDGE('',*,*,#642,.F.);
#644=ORIENTED_EDGE('',*,*,#612,.T.);
#645=EDGE_LOOP('',(#629,#637,#643,#644));
#646=FACE_BOUND('',#645,.T.);
#647=ADVANCED_FACE('',(#646),#628,.F.);
#648=CARTESIAN_POINT('',(151.695406014,-112.141535902,-2.252166835));
#649=DIRECTION('',(0.,1.,0.));
#650=DIRECTION('',(0.,0.,-1.));
#651=AXIS2_PLACEMENT_3D('',#648,#649,#650);
#652=PLANE('',#651);
#653=ORIENTED_EDGE('',*,*,#182,.T.);
#654=CARTESIAN_POINT('',(152.195406014,-112.141535902,-0.752166835));
#655=VERTEX_POINT('',#654);
#656=CARTESIAN_POINT('',(152.195406014,-112.141535902,-0.752166835));
#657=DIRECTION('',(0.,0.,-1.));
#658=VECTOR('',#657,3.6);
#659=LINE('',#656,#658);
#660=EDGE_CURVE('',#655,#169,#659,.T.);
#661=ORIENTED_EDGE('',*,*,#660,.F.);
#662=CARTESIAN_POINT('',(151.195406014,-112.141535902,-0.752166835));
#663=DIRECTION('',(1.,-0.,0.));
#664=VECTOR('',#663,1.);
#665=LINE('',#662,#664);
#666=EDGE_CURVE('',#631,#655,#665,.T.);
#667=ORIENTED_EDGE('',*,*,#666,.F.);
#668=ORIENTED_EDGE('',*,*,#636,.T.);
#669=EDGE_LOOP('',(#653,#661,#667,#668));
#670=FACE_BOUND('',#669,.T.);
#671=ADVANCED_FACE('',(#670),#652,.F.);
#672=CARTESIAN_POINT('',(152.195406014,-112.491535902,-2.252166835));
#673=DIRECTION('',(-1.,0.,-0.));
#674=DIRECTION('',(-0.,-0.,1.));
#675=AXIS2_PLACEMENT_3D('',#672,#673,#674);
#676=PLANE('',#675);
#677=ORIENTED_EDGE('',*,*,#174,.T.);
#678=CARTESIAN_POINT('',(152.195406014,-111.241535902,-0.752166835));
#679=VERTEX_POINT('',#678);
#680=CARTESIAN_POINT('',(152.195406014,-111.241535902,-0.752166835));
#681=DIRECTION('',(0.,0.,-1.));
#682=VECTOR('',#681,3.6);
#683=LINE('',#680,#682);
#684=EDGE_CURVE('',#679,#161,#683,.T.);
#685=ORIENTED_EDGE('',*,*,#684,.F.);
#686=CARTESIAN_POINT('',(152.195406014,-112.141535902,-0.752166835));
#687=DIRECTION('',(0.,1.,0.));
#688=VECTOR('',#687,0.9);
#689=LINE('',#686,#688);
#690=EDGE_CURVE('',#655,#679,#689,.T.);
#691=ORIENTED_EDGE('',*,*,#690,.F.);
#692=ORIENTED_EDGE('',*,*,#660,.T.);
#693=EDGE_LOOP('',(#677,#685,#691,#692));
#694=FACE_BOUND('',#693,.T.);
#695=ADVANCED_FACE('',(#694),#676,.F.);
#696=CARTESIAN_POINT('',(153.445406014,-111.241535902,-2.252166835));
#697=DIRECTION('',(0.,1.,0.));
#698=DIRECTION('',(0.,0.,-1.));
#699=AXIS2_PLACEMENT_3D('',#696,#697,#698);
#700=PLANE('',#699);
#701=ORIENTED_EDGE('',*,*,#166,.T.);
#702=CARTESIAN_POINT('',(153.095406014,-111.241535902,-0.752166835));
#703=VERTEX_POINT('',#702);
#704=CARTESIAN_POINT('',(153.095406014,-111.241535902,-0.752166835));
#705=DIRECTION('',(0.,0.,-1.));
#706=VECTOR('',#705,3.6);
#707=LINE('',#704,#706);
#708=EDGE_CURVE('',#703,#153,#707,.T.);
#709=ORIENTED_EDGE('',*,*,#708,.F.);
#710=CARTESIAN_POINT('',(152.195406014,-111.241535902,-0.752166835));
#711=DIRECTION('',(1.,-0.,0.));
#712=VECTOR('',#711,0.9);
#713=LINE('',#710,#712);
#714=EDGE_CURVE('',#679,#703,#713,.T.);
#715=ORIENTED_EDGE('',*,*,#714,.F.);
#716=ORIENTED_EDGE('',*,*,#684,.T.);
#717=EDGE_LOOP('',(#701,#709,#715,#716));
#718=FACE_BOUND('',#717,.T.);
#719=ADVANCED_FACE('',(#718),#700,.F.);
#720=CARTESIAN_POINT('',(153.095406014,-110.741535902,-2.252166835));
#721=DIRECTION('',(-1.,0.,-0.));
#722=DIRECTION('',(-0.,-0.,1.));
#723=AXIS2_PLACEMENT_3D('',#720,#721,#722);
#724=PLANE('',#723);
#725=ORIENTED_EDGE('',*,*,#158,.T.);
#726=ORIENTED_EDGE('',*,*,#475,.F.);
#727=CARTESIAN_POINT('',(153.095406014,-111.241535902,-0.752166835));
#728=DIRECTION('',(0.,1.,0.));
#729=VECTOR('',#728,1.);
#730=LINE('',#727,#729);
#731=EDGE_CURVE('',#703,#464,#730,.T.);
#732=ORIENTED_EDGE('',*,*,#731,.F.);
#733=ORIENTED_EDGE('',*,*,#708,.T.);
#734=EDGE_LOOP('',(#725,#726,#732,#733));
#735=FACE_BOUND('',#734,.T.);
#736=ADVANCED_FACE('',(#735),#724,.F.);
#737=CARTESIAN_POINT('',(51.445406014,-249.391535902,-0.752166835));
#738=DIRECTION('',(-0.,-0.,1.));
#739=DIRECTION('',(1.,-0.,0.));
#740=AXIS2_PLACEMENT_3D('',#737,#738,#739);
#741=PLANE('',#740);
#742=ORIENTED_EDGE('',*,*,#469,.T.);
#743=ORIENTED_EDGE('',*,*,#498,.T.);
#744=ORIENTED_EDGE('',*,*,#522,.T.);
#745=ORIENTED_EDGE('',*,*,#546,.T.);
#746=ORIENTED_EDGE('',*,*,#570,.T.);
#747=ORIENTED_EDGE('',*,*,#594,.T.);
#748=ORIENTED_EDGE('',*,*,#618,.T.);
#749=ORIENTED_EDGE('',*,*,#642,.T.);
#750=ORIENTED_EDGE('',*,*,#666,.T.);
#751=ORIENTED_EDGE('',*,*,#690,.T.);
#752=ORIENTED_EDGE('',*,*,#714,.T.);
#753=ORIENTED_EDGE('',*,*,#731,.T.);
#754=EDGE_LOOP('',(#742,#743,#744,#745,#746,#747,#748,#749,#750,#751,#752,#753));
#755=FACE_BOUND('',#754,.T.);
#756=ADVANCED_FACE('',(#755),#741,.T.);
#757=CLOSED_SHELL('',(#240,#438,#448,#479,#503,#527,#551,#575,#599,#623,#647,#671,#695,#719,#736,#756));
#758=MANIFOLD_SOLID_BREP('Body 479',#757);
#759=DRAUGHTING_PRE_DEFINED_COLOUR('blue');
#760=FILL_AREA_STYLE_COLOUR('',#759);
#761=FILL_AREA_STYLE('',(#760));
#762=SURFACE_STYLE_FILL_AREA(#761);
#763=SURFACE_SIDE_STYLE('',(#762));
#764=SURFACE_STYLE_USAGE(.BOTH.,#763);
#765=PRESENTATION_STYLE_ASSIGNMENT((#764));
#26=STYLED_ITEM('',(#765),#758);
#16=SHAPE_REPRESENTATION('root',(#15),#10);
#17=ADVANCED_BREP_SHAPE_REPRESENTATION('root',(#758),#10);
#773=SHAPE_REPRESENTATION_RELATIONSHIP('','',#16,#17);
#774=CARTESIAN_POINT('',(0.,0.,0.));
#775=DIRECTION('',(0.,0.,1.));
#776=DIRECTION('',(1.,0.,0.));
#777=AXIS2_PLACEMENT_3D('',#774,#775,#776);
#779=MAPPED_ITEM('',#778,#777);
#778=REPRESENTATION_MAP(#777,#16);
#780=APPLICATION_CONTEXT('Managed model based 3d engineering');
#781=APPLICATION_PROTOCOL_DEFINITION('international standard','ap242_managed_model_based_3d_engineering',2014,#780);
#782=PRODUCT_CONTEXT('',#780,'mechanical');
#783=PRODUCT_DEFINITION_CONTEXT('part definition',#780,'design');
#24=PRODUCT('root','root','',(#782));
#784=PRODUCT_RELATED_PRODUCT_CATEGORY('part','',(#24));
#785=PRODUCT_DEFINITION_FORMATION_WITH_SPECIFIED_SOURCE('','',#24,.NOT_KNOWN.);
#25=PRODUCT_DEFINITION('design','',#785,#783);
#23=PRODUCT_DEFINITION_SHAPE('','',#25);
#786=SHAPE_DEFINITION_REPRESENTATION(#23,#16);
#11=DRAUGHTING_MODEL('',(#779),#10);
#787=DESCRIPTIVE_REPRESENTATION_ITEM('KEY','C:\\Users\\Linus\\AppData\\Local\\Packages\\Shapr3D.Shapr3D_dvv5p1vgwv6mp\\TempState\\f92ed6c4-0ebe-413b-be4c-5b9ef8ed5223.tmp');
#788=PROPERTY_DEFINITION('KEY','',#25);
#789=REPRESENTATION('',(#787),#10);
#790=PROPERTY_DEFINITION_REPRESENTATION(#788,#789);
#791=GENERAL_PROPERTY('','KEY','');
#792=GENERAL_PROPERTY_ASSOCIATION('','',#791,#788);
#1=MECHANICAL_DESIGN_GEOMETRIC_PRESENTATION_REPRESENTATION('',(#26),#10);
ENDSEC;
END-ISO-10303-21;
